<svg xmlns="http://www.w3.org/2000/svg" xmlns:xlink="http://www.w3.org/1999/xlink" version="1.1" viewBox="0 0 2608 3216" style="background: #ffffff"><defs joint-selector="defs"></defs><g joint-selector="layers"  transform="matrix(1,0,0,1,0,0)"><g ></g><g ><!--z-index:0--><!--z-index:1--><!--z-index:2--><!--z-index:3--><!--z-index:4--><!--z-index:5--><!--z-index:6--><!--z-index:7--><!--z-index:8--><!--z-index:9--><!--z-index:10--><!--z-index:11--><!--z-index:12--><!--z-index:13--><!--z-index:14--><!--z-index:15--><!--z-index:16--><!--z-index:17--><!--z-index:18--><!--z-index:19--><!--z-index:20--><!--z-index:21--><!--z-index:22--><!--z-index:23--><!--z-index:24--><g   id="j_165"  transform="translate(20,3179.6)"><g id="v-2215"><text  id="v-2216" font-size="22px" xml:space="preserve" y="0.8em" font-weight="normal" text-anchor="start" fill="#aaaaaa" pointer-events="none" display="block" font-family="Arial"><tspan dy="0"  display="block">Wednesday, March 4, 2026 at 7:06 PM Moscow Standard Time</tspan></text></g></g><!--z-index:25--><g   id="j_164"  transform="translate(20,3153.2)"><g id="v-2213"><text  id="v-2214" font-size="22px" xml:space="preserve" y="0.8em" font-weight="normal" text-anchor="start" fill="#aaaaaa" pointer-events="none" display="block" font-family="Arial"><tspan dy="0"  display="block">API: Создание нового письма в папке (+ отправка наружу, опционально)</tspan></text></g></g><!--z-index:26--><g   id="j_163"  transform="translate(20,3110)"><g id="v-2211"><text  id="v-2212" font-size="36px" xml:space="preserve" y="0.8em" font-weight="normal" text-anchor="start" fill="#000000" pointer-events="none" display="block" font-family="Arial"><tspan dy="0"  display="block">[Dynamic] Email Service</tspan></text></g></g><!--z-index:27--><g   id="j_166"  transform="translate(1104,208)" style=""><g  id="v-2220" style="opacity: 1;"><rect  x="0" y="160" width="400" height="240" rx="70" id="v-2222" stroke="#073b6f" stroke-width="2" pointer-events="visiblePainted" fill="#08427b" style="fill: rgb(8, 66, 123); stroke: rgb(7, 59, 111);"></rect><circle  cx="200" cy="88.88888888888889" r="88.88888888888889" id="v-2221" stroke="#073b6f" stroke-width="2" pointer-events="visiblePainted" fill="#08427b" style="fill: rgb(8, 66, 123); stroke: rgb(7, 59, 111);"></circle><line  x1="80" y1="266.6666666666667" x2="80" y2="400" id="v-2228" stroke="#073b6f" stroke-width="2" style="stroke: rgb(7, 59, 111);"></line><line  x1="320" y1="266.6666666666667" x2="320" y2="400" id="v-2229" stroke="#073b6f" stroke-width="2" style="stroke: rgb(7, 59, 111);"></line><text  id="v-2223" font-size="34" xml:space="preserve" y="0.8em" font-weight="bold" text-anchor="middle" pointer-events="visible" font-family="Arial" fill="#ffffff" transform="matrix(1,0,0,1,200,218.1)" style="fill: rgb(255, 255, 255);"><tspan dy="0" >Пользователь</tspan></text><text  id="v-2224" font-size="17" xml:space="preserve" y="0.8em" text-anchor="middle" font-family="Arial" fill="#ffffff" transform="matrix(1,0,0,1,200,258.9)" style="fill: rgb(255, 255, 255);"><tspan dy="0" >[Person]</tspan></text><text  id="v-2225" font-size="24" xml:space="preserve" y="0.8em" text-anchor="middle" font-family="Arial" fill="#ffffff" transform="matrix(1,0,0,1,200,289.3)" style="fill: rgb(255, 255, 255);"><tspan dy="0" >Работает с почтой: папки и</tspan><tspan dy="1.2em" x="0" >письма.</tspan></text><g  id="v-2226" font-weight="normal" text-anchor="middle" color="#ffffff" transform="matrix(1,0,0,1,200,368)" display="none" style="fill: rgb(255, 255, 255);"><g ></g><g ></g><g ></g><g ></g></g><image  id="v-2227"></image></g></g><!--z-index:28--><g   id="j_167"  transform="translate(1829,2617)" style=""><g  id="v-2236" style="opacity: 1;"><rect  id="v-2237" rx="20" ry="20" stroke="#8a8a8a" stroke-width="2" pointer-events="visiblePainted" fill="#999999" width="450" height="300" style="fill: rgb(153, 153, 153); stroke: rgb(138, 138, 138);"></rect><text  id="v-2238" font-size="34" xml:space="preserve" y="0.8em" font-weight="bold" text-anchor="middle" pointer-events="visible" font-family="Arial" fill="#ffffff" transform="matrix(1,0,0,1,225,88.1)" style="fill: rgb(255, 255, 255);"><tspan dy="0" >Identity Provider</tspan></text><text  id="v-2239" font-size="17" xml:space="preserve" y="0.8em" text-anchor="middle" font-family="Arial" fill="#ffffff" transform="matrix(1,0,0,1,225,128.9)" style="fill: rgb(255, 255, 255);"><tspan dy="0" >[Software System]</tspan></text><text  id="v-2240" font-size="24" xml:space="preserve" y="0.8em" text-anchor="middle" font-family="Arial" fill="#ffffff" transform="matrix(1,0,0,1,225,159.3)" style="fill: rgb(255, 255, 255);"><tspan dy="0" >Внешняя аутентификация</tspan><tspan dy="1.2em" x="0" >(OAuth2/OIDC).</tspan></text><g  id="v-2241" color="#ffffff" transform="matrix(1,0,0,1,0,268)" display="none" style="fill: rgb(255, 255, 255);"><g ></g><g ></g><g ></g><g ></g></g><image  id="v-2242"></image></g></g><!--z-index:29--><g   id="j_168"  transform="translate(1079,2708)" style=""><g  id="v-2249" style="opacity: 1;"><rect  id="v-2250" rx="20" ry="20" stroke="#8a8a8a" stroke-width="2" pointer-events="visiblePainted" fill="#999999" width="450" height="300" style="fill: rgb(153, 153, 153); stroke: rgb(138, 138, 138);"></rect><text  id="v-2251" font-size="34" xml:space="preserve" y="0.8em" font-weight="bold" text-anchor="middle" pointer-events="visible" font-family="Arial" fill="#ffffff" transform="matrix(1,0,0,1,225,88.1)" style="fill: rgb(255, 255, 255);"><tspan dy="0" >External Mail Servers</tspan></text><text  id="v-2252" font-size="17" xml:space="preserve" y="0.8em" text-anchor="middle" font-family="Arial" fill="#ffffff" transform="matrix(1,0,0,1,225,128.9)" style="fill: rgb(255, 255, 255);"><tspan dy="0" >[Software System]</tspan></text><text  id="v-2253" font-size="24" xml:space="preserve" y="0.8em" text-anchor="middle" font-family="Arial" fill="#ffffff" transform="matrix(1,0,0,1,225,159.3)" style="fill: rgb(255, 255, 255);"><tspan dy="0" >Внешние SMTP-серверы для</tspan><tspan dy="1.2em" x="0" >доставки писем.</tspan></text><g  id="v-2254" color="#ffffff" transform="matrix(1,0,0,1,0,268)" display="none" style="fill: rgb(255, 255, 255);"><g ></g><g ></g><g ></g><g ></g></g><image  id="v-2255"></image></g></g><!--z-index:30--><g   id="j_170"  transform="translate(309,888)" style=""><g id="v-2266"><rect  id="v-2267" width="1990" height="1611" rx="0" ry="0" fill="#ffffff" stroke="#1168bd" stroke-width="1" stroke-dasharray="20,20" pointer-events="none"></rect><text  id="v-2268" font-size="24px" xml:space="preserve" y="1572" font-weight="normal" fill="#1168bd" text-anchor="start" pointer-events="visible" font-family="Arial" transform="matrix(1,0,0,1,15,0)"><tspan dy="0" >Email Service</tspan></text><text  id="v-2269" font-size="17px" xml:space="preserve" y="1596" font-weight="normal" fill="#1168bd" text-anchor="start" pointer-events="visible" font-family="Arial" transform="matrix(1,0,0,1,15,0)"><tspan dy="0" >[Software System]</tspan></text><image  id="v-2270" pointer-events="visible"></image></g></g><!--z-index:31--><g   id="j_169"  transform="translate(1829,1508)" style=""><g  id="v-2259" style="opacity: 1;"><rect  id="v-2260" rx="20" ry="20" stroke="#3c7fc0" stroke-width="2" pointer-events="visiblePainted" fill="#438dd5" width="450" height="300" style="fill: rgb(67, 141, 213); stroke: rgb(60, 127, 192);"></rect><text  id="v-2261" font-size="34" xml:space="preserve" y="0.8em" font-weight="bold" text-anchor="middle" pointer-events="visible" font-family="Arial" fill="#ffffff" transform="matrix(1,0,0,1,225,88.1)" style="fill: rgb(255, 255, 255);"><tspan dy="0" >Web Client</tspan></text><text  id="v-2262" font-size="17" xml:space="preserve" y="0.8em" text-anchor="middle" font-family="Arial" fill="#ffffff" transform="matrix(1,0,0,1,225,128.9)" style="fill: rgb(255, 255, 255);"><tspan dy="0" >[Container: Web Application]</tspan></text><text  id="v-2263" font-size="24" xml:space="preserve" y="0.8em" text-anchor="middle" font-family="Arial" fill="#ffffff" transform="matrix(1,0,0,1,225,159.3)" style="fill: rgb(255, 255, 255);"><tspan dy="0" >Веб-интерфейс (SPA), вызывает</tspan><tspan dy="1.2em" x="0" >backend API.</tspan></text><g  id="v-2264" color="#ffffff" transform="matrix(1,0,0,1,0,268)" display="none" style="fill: rgb(255, 255, 255);"><g ></g><g ></g><g ></g><g ></g></g><image  id="v-2265"></image></g></g><!--z-index:32--><g   id="j_171"  transform="translate(1079,1508)" style=""><g  id="v-2277" style="opacity: 1;"><rect  id="v-2278" rx="20" ry="20" stroke="#3c7fc0" stroke-width="2" pointer-events="visiblePainted" fill="#438dd5" width="450" height="300" style="fill: rgb(67, 141, 213); stroke: rgb(60, 127, 192);"></rect><text  id="v-2279" font-size="34" xml:space="preserve" y="0.8em" font-weight="bold" text-anchor="middle" pointer-events="visible" font-family="Arial" fill="#ffffff" transform="matrix(1,0,0,1,225,88.1)" style="fill: rgb(255, 255, 255);"><tspan dy="0" >API Gateway</tspan></text><text  id="v-2280" font-size="17" xml:space="preserve" y="0.8em" text-anchor="middle" font-family="Arial" fill="#ffffff" transform="matrix(1,0,0,1,225,128.9)" style="fill: rgb(255, 255, 255);"><tspan dy="0" >[Container: Nginx (Reverse Proxy)]</tspan></text><text  id="v-2281" font-size="24" xml:space="preserve" y="0.8em" text-anchor="middle" font-family="Arial" fill="#ffffff" transform="matrix(1,0,0,1,225,159.3)" style="fill: rgb(255, 255, 255);"><tspan dy="0" >Единая точка входа: TLS, роутинг,</tspan><tspan dy="1.2em" x="0" >rate limit.</tspan></text><g  id="v-2282" color="#ffffff" transform="matrix(1,0,0,1,0,268)" display="none" style="fill: rgb(255, 255, 255);"><g ></g><g ></g><g ></g><g ></g></g><image  id="v-2283"></image></g></g><!--z-index:33--><g   id="j_172"  transform="translate(329,1508)" style=""><g  id="v-2290" style="opacity: 1;"><rect  id="v-2291" rx="20" ry="20" stroke="#3c7fc0" stroke-width="2" pointer-events="visiblePainted" fill="#438dd5" width="450" height="300" style="fill: rgb(67, 141, 213); stroke: rgb(60, 127, 192);"></rect><text  id="v-2292" font-size="34" xml:space="preserve" y="0.8em" font-weight="bold" text-anchor="middle" pointer-events="visible" font-family="Arial" fill="#ffffff" transform="matrix(1,0,0,1,225,102.5)" style="fill: rgb(255, 255, 255);"><tspan dy="0" >Message Service</tspan></text><text  id="v-2293" font-size="17" xml:space="preserve" y="0.8em" text-anchor="middle" font-family="Arial" fill="#ffffff" transform="matrix(1,0,0,1,225,143.3)" style="fill: rgb(255, 255, 255);"><tspan dy="0" >[Container: C++ (Yandex userver), REST API]</tspan></text><text  id="v-2294" font-size="24" xml:space="preserve" y="0.8em" text-anchor="middle" font-family="Arial" fill="#ffffff" transform="matrix(1,0,0,1,225,173.7)" style="fill: rgb(255, 255, 255);"><tspan dy="0" >Создание/получение писем.</tspan></text><g  id="v-2295" color="#ffffff" transform="matrix(1,0,0,1,0,268)" display="none" style="fill: rgb(255, 255, 255);"><g ></g><g ></g><g ></g><g ></g></g><image  id="v-2296"></image></g></g><!--z-index:34--><g   id="j_173"  transform="translate(1079,2108)" style=""><g  id="v-2300" style="opacity: 1;"><rect  id="v-2301" rx="20" ry="20" stroke="#8ab2d9" stroke-width="2" pointer-events="visiblePainted" fill="#8ebbe6" width="450" height="300" style="fill: rgb(142, 187, 230); stroke: rgb(138, 178, 217);"></rect><text  id="v-2302" font-size="34" xml:space="preserve" y="0.8em" font-weight="bold" text-anchor="middle" pointer-events="visible" font-family="Arial" fill="#ffffff" transform="matrix(1,0,0,1,225,88.1)" style="fill: rgb(255, 255, 255);"><tspan dy="0" >Outbox Queue</tspan></text><text  id="v-2303" font-size="17" xml:space="preserve" y="0.8em" text-anchor="middle" font-family="Arial" fill="#ffffff" transform="matrix(1,0,0,1,225,128.9)" style="fill: rgb(255, 255, 255);"><tspan dy="0" >[Container: RabbitMQ (AMQP)]</tspan></text><text  id="v-2304" font-size="24" xml:space="preserve" y="0.8em" text-anchor="middle" font-family="Arial" fill="#ffffff" transform="matrix(1,0,0,1,225,159.3)" style="fill: rgb(255, 255, 255);"><tspan dy="0" >Очередь событий для</tspan><tspan dy="1.2em" x="0" >асинхронной отправки писем.</tspan></text><g  id="v-2305" color="#ffffff" transform="matrix(1,0,0,1,0,268)" display="none" style="fill: rgb(255, 255, 255);"><g ></g><g ></g><g ></g><g ></g></g><image  id="v-2306"></image></g></g><!--z-index:35--><g   id="j_174"  transform="translate(329,2108)" style=""><g  id="v-2310" style="opacity: 1;"><rect  id="v-2311" rx="20" ry="20" stroke="#8ab2d9" stroke-width="2" pointer-events="visiblePainted" fill="#8ebbe6" width="450" height="300" style="fill: rgb(142, 187, 230); stroke: rgb(138, 178, 217);"></rect><text  id="v-2312" font-size="34" xml:space="preserve" y="0.8em" font-weight="bold" text-anchor="middle" pointer-events="visible" font-family="Arial" fill="#ffffff" transform="matrix(1,0,0,1,225,73.7)" style="fill: rgb(255, 255, 255);"><tspan dy="0" >SMTP Worker</tspan></text><text  id="v-2313" font-size="17" xml:space="preserve" y="0.8em" text-anchor="middle" font-family="Arial" fill="#ffffff" transform="matrix(1,0,0,1,225,114.5)" style="fill: rgb(255, 255, 255);"><tspan dy="0" >[Container: C++ worker]</tspan></text><text  id="v-2314" font-size="24" xml:space="preserve" y="0.8em" text-anchor="middle" font-family="Arial" fill="#ffffff" transform="matrix(1,0,0,1,225,144.9)" style="fill: rgb(255, 255, 255);"><tspan dy="0" >Воркер: забирает события и</tspan><tspan dy="1.2em" x="0" >отправляет письма наружу по</tspan><tspan dy="1.2em" x="0" >SMTP.</tspan></text><g  id="v-2315" color="#ffffff" transform="matrix(1,0,0,1,0,268)" display="none" style="fill: rgb(255, 255, 255);"><g ></g><g ></g><g ></g><g ></g></g><image  id="v-2316"></image></g></g><!--z-index:36--><g   id="j_175"  transform="translate(1079,908)" style=""><g  id="v-2320" style="opacity: 1;"><path  d="M 0,30 a 225,30 0,0,0 450 0 a 225,30 0,0,0 -450 0 l 0,240 a 225,30 0,0,0 450 0 l 0,-240" id="v-2321" stroke="#3c7fc0" stroke-width="2" pointer-events="visiblePainted" fill="#438dd5" style="fill: rgb(67, 141, 213); stroke: rgb(60, 127, 192);"></path><rect  id="v-2322" stroke-width="0" pointer-events="visiblePainted" fill="none" stroke="none" width="450" height="270" x="0" y="30"></rect><text  id="v-2323" font-size="34" xml:space="preserve" y="0.8em" font-weight="bold" text-anchor="middle" pointer-events="visible" font-family="Arial" fill="#ffffff" transform="matrix(1,0,0,1,225,110.6)" style="fill: rgb(255, 255, 255);"><tspan dy="0" >Database</tspan></text><text  id="v-2324" font-size="17" xml:space="preserve" y="0.8em" text-anchor="middle" font-family="Arial" fill="#ffffff" transform="matrix(1,0,0,1,225,151.4)" style="fill: rgb(255, 255, 255);"><tspan dy="0" >[Container: PostgreSQL]</tspan></text><text  id="v-2325" font-size="24" xml:space="preserve" y="0.8em" text-anchor="middle" font-family="Arial" fill="#ffffff" transform="matrix(1,0,0,1,225,181.8)" style="fill: rgb(255, 255, 255);"><tspan dy="0" >Хранит пользователей, папки,</tspan><tspan dy="1.2em" x="0" >сообщения.</tspan></text><g  id="v-2326" font-weight="normal" text-anchor="middle" color="#ffffff" transform="matrix(1,0,0,1,225,268)" display="none" style="fill: rgb(255, 255, 255);"><g ></g><g ></g><g ></g><g ></g></g><image  id="v-2327"></image></g></g><!--z-index:37--><g   id="j_176" ><path  stroke="#707070" d="M 1444 608 L 1523 721 C 1527 726.3333333333333 1530.6666666666665 732 1534 738 L 1969 1508" id="v-2344" stroke-width="2" stroke-dasharray="30 30" fill="none"></path><path  fill="black" stroke="black" d="M 0 0 0 0" transform="matrix(0.5739758615111792,0.8188722186046488,-0.8188722186046488,0.5739758615111792,1444.1868896484375,608)"></path><path  fill="#707070" stroke="#707070" d="M 20 0 L 0 10 L 20 20 z" id="v-2346" transform="matrix(-0.49199538489517075,-0.8705978068211824,0.8705978068211824,-0.49199538489517075,1960.52549921824,1512.919999299976)"></path><path  d="M 1444 608 L 1523 721 C 1527 726.3333333333333 1530.6666666666665 732 1534 738 L 1969 1508" id="v-2345" fill="none" style="pointer-events: visiblepainted; cursor: auto;"></path><g ><g id="v-2335"  label-idx="0" cursor="move" transform="matrix(1,0,0,1,1712.6077880859375,1054.15625)"><rect joint-selector="rect" id="v-2339" fill="#ffffff" rx="3" ry="3" pointer-events="none" width="188.57078552246094" height="115.74457931518555" transform="matrix(1,0,0,1,-93.6,-57.9)"></rect><text joint-selector="text" id="v-2338" font-size="24px" xml:space="preserve" y="0.8em" fill="#707070" text-anchor="middle" pointer-events="none" font-family="Arial" font-weight="normal" transform="matrix(1,0,0,1,0,-55.1)"><tspan dy="0" >1: Пишет письмо</tspan><tspan dy="1.2em" x="0" >и нажимает</tspan><tspan dy="1.2em" x="0" >Отправить/</tspan><tspan dy="1.2em" x="0" >Сохранить</tspan></text></g><g id="v-2336"  label-idx="1" cursor="move" transform="matrix(1,0,0,1,1712.6077880859375,1123.75634765625)"><rect joint-selector="rect" id="v-2341" fill="#ffffff" rx="3" ry="3" pointer-events="none" width="65.05098724365234" height="18.34036636352539" transform="matrix(1,0,0,1,-32.5,-9.2)"></rect><text joint-selector="text" id="v-2340" font-size="17px" xml:space="preserve" y="0.8em" fill="#707070" text-anchor="middle" pointer-events="none" font-family="Arial" font-weight="normal" transform="matrix(1,0,0,1,0,-8.1)"><tspan dy="0" >[HTTPS]</tspan></text></g><g id="v-2337"  label-idx="2" cursor="move" transform="matrix(1,0,0,1,1702.6077880859375,1132.15625)"><rect joint-selector="rect" id="v-2343" fill="#ffffff" rx="3" ry="3"  width="0" height="0" transform="matrix(1,0,0,1,0,0)" display="none"></rect><text joint-selector="text" id="v-2342" fill="#000000" font-size="14" text-anchor="middle" pointer-events="none"></text></g></g><g  display="none" style="display: none;"><g  transform="translate(1529, 729)" id="v-2332"><circle  idx="0" r="10"></circle><path  idx="0" d="M16,5.333c-7.732,0-14,4.701-14,10.5c0,1.982,0.741,3.833,2.016,5.414L2,25.667l5.613-1.441c2.339,1.317,5.237,2.107,8.387,2.107c7.732,0,14-4.701,14-10.5C30,10.034,23.732,5.333,16,5.333z" transform="translate(5, -33)"></path><path  idx="0" transform="scale(.8) translate(9.5, -37)" d="M24.778,21.419 19.276,15.917 24.777,10.415 21.949,7.585 16.447,13.087 10.945,7.585 8.117,10.415 13.618,15.917 8.116,21.419 10.946,24.248 16.447,18.746 21.948,24.248z"><title>Remove vertex.</title></path></g></g><g  id="v-2348" display="none"><g  id="v-2333"><path  end="source" d="M 26 0 L 0 13 L 26 26 z"></path></g><g  id="v-2334"><path  end="target" d="M 26 0 L 0 13 L 26 26 z"></path></g></g><g  id="v-2347" display="none"><g  id="v-2331" transform="translate(1466.9190189760793, 640.7829005607209) "><g  event="remove"><circle r="11"></circle><path transform="scale(.8) translate(-16, -16)" d="M24.778,21.419 19.276,15.917 24.777,10.415 21.949,7.585 16.447,13.087 10.945,7.585 8.117,10.415 13.618,15.917 8.116,21.419 10.946,24.248 16.447,18.746 21.948,24.248z"></path><title>Remove link.</title></g><g  event="link:options"><circle r="11" transform="translate(25)"></circle><path fill="white" transform="scale(.55) translate(29, -16)" d="M31.229,17.736c0.064-0.571,0.104-1.148,0.104-1.736s-0.04-1.166-0.104-1.737l-4.377-1.557c-0.218-0.716-0.504-1.401-0.851-2.05l1.993-4.192c-0.725-0.91-1.549-1.734-2.458-2.459l-4.193,1.994c-0.647-0.347-1.334-0.632-2.049-0.849l-1.558-4.378C17.165,0.708,16.588,0.667,16,0.667s-1.166,0.041-1.737,0.105L12.707,5.15c-0.716,0.217-1.401,0.502-2.05,0.849L6.464,4.005C5.554,4.73,4.73,5.554,4.005,6.464l1.994,4.192c-0.347,0.648-0.632,1.334-0.849,2.05l-4.378,1.557C0.708,14.834,0.667,15.412,0.667,16s0.041,1.165,0.105,1.736l4.378,1.558c0.217,0.715,0.502,1.401,0.849,2.049l-1.994,4.193c0.725,0.909,1.549,1.733,2.459,2.458l4.192-1.993c0.648,0.347,1.334,0.633,2.05,0.851l1.557,4.377c0.571,0.064,1.148,0.104,1.737,0.104c0.588,0,1.165-0.04,1.736-0.104l1.558-4.377c0.715-0.218,1.399-0.504,2.049-0.851l4.193,1.993c0.909-0.725,1.733-1.549,2.458-2.458l-1.993-4.193c0.347-0.647,0.633-1.334,0.851-2.049L31.229,17.736zM16,20.871c-2.69,0-4.872-2.182-4.872-4.871c0-2.69,2.182-4.872,4.872-4.872c2.689,0,4.871,2.182,4.871,4.872C20.871,18.689,18.689,20.871,16,20.871z"></path><title>Link options.</title></g></g></g></g><!--z-index:38--><g   id="j_177" ><path  stroke="#707070" d="M 1829 1568 L 1688 1512 C 1682 1509.3333333333333 1676 1509.3333333333333 1670 1512 L 1529 1568" id="v-2364" stroke-width="2" stroke-dasharray="30 30" fill="none"></path><path  fill="black" stroke="black" d="M 0 0 0 0" transform="matrix(-0.928476707906966,-0.3713906337998342,0.3713906337998342,-0.928476707906966,1829,1568)"></path><path  fill="#707070" stroke="#707070" d="M 20 0 L 0 10 L 20 20 z" id="v-2366" transform="matrix(0.9284766089996245,-0.3713908810681253,0.3713908810681253,0.9284766089996245,1525.286115138385,1558.715275533185)"></path><path  d="M 1829 1568 L 1688 1512 C 1682 1509.3333333333333 1676 1509.3333333333333 1670 1512 L 1529 1568" id="v-2365" fill="none" style="pointer-events: visiblepainted; cursor: auto;"></path><g ><g id="v-2355"  label-idx="0" cursor="move" transform="matrix(1,0,0,1,1679,1510)"><rect joint-selector="rect" id="v-2359" fill="#ffffff" rx="3" ry="3" pointer-events="none" width="197.0878448486328" height="112.07651138305664" transform="matrix(1,0,0,1,-97.9,-56)"></rect><text joint-selector="text" id="v-2358" font-size="24px" xml:space="preserve" y="0.8em" fill="#707070" text-anchor="middle" pointer-events="none" font-family="Arial" font-weight="normal" transform="matrix(1,0,0,1,0,-53.2)"><tspan dy="0" >2: POST /api/v1/fo</tspan><tspan dy="1.2em" x="0" >lders/</tspan><tspan dy="1.2em" x="0" >{folderId}/messag</tspan><tspan dy="1.2em" x="0" >es</tspan></text></g><g id="v-2356"  label-idx="1" cursor="move" transform="matrix(1,0,0,1,1679,1579.5999755859375)"><rect joint-selector="rect" id="v-2361" fill="#ffffff" rx="3" ry="3" pointer-events="none" width="115.02848052978516" height="18.34036636352539" transform="matrix(1,0,0,1,-57.5,-9.2)"></rect><text joint-selector="text" id="v-2360" font-size="17px" xml:space="preserve" y="0.8em" fill="#707070" text-anchor="middle" pointer-events="none" font-family="Arial" font-weight="normal" transform="matrix(1,0,0,1,0,-8.1)"><tspan dy="0" >[HTTPS/REST]</tspan></text></g><g id="v-2357"  label-idx="2" cursor="move" transform="matrix(1,0,0,1,1669,1588)"><rect joint-selector="rect" id="v-2363" fill="#ffffff" rx="3" ry="3"  width="0" height="0" transform="matrix(1,0,0,1,0,0)" display="none"></rect><text joint-selector="text" id="v-2362" fill="#000000" font-size="14" text-anchor="middle" pointer-events="none"></text></g></g><g  display="none" style="display: none;"><g  transform="translate(1679, 1508)" id="v-2536"><circle  idx="0" r="10"></circle><path  idx="0" d="M16,5.333c-7.732,0-14,4.701-14,10.5c0,1.982,0.741,3.833,2.016,5.414L2,25.667l5.613-1.441c2.339,1.317,5.237,2.107,8.387,2.107c7.732,0,14-4.701,14-10.5C30,10.034,23.732,5.333,16,5.333z" transform="translate(5, -33)"></path><path  idx="0" transform="scale(.8) translate(9.5, -37)" d="M24.778,21.419 19.276,15.917 24.777,10.415 21.949,7.585 16.447,13.087 10.945,7.585 8.117,10.415 13.618,15.917 8.116,21.419 10.946,24.248 16.447,18.746 21.948,24.248z"><title>Remove vertex.</title></path></g></g><g  id="v-2368" display="none"><g  id="v-2353"><path  end="source" d="M 26 0 L 0 13 L 26 26 z"></path></g><g  id="v-2354"><path  end="target" d="M 26 0 L 0 13 L 26 26 z"></path></g></g><g  id="v-2367" display="none"><g  id="v-2352" transform="translate(1791.8246774688942, 1553.2353328954473) "><g  event="remove"><circle r="11"></circle><path transform="scale(.8) translate(-16, -16)" d="M24.778,21.419 19.276,15.917 24.777,10.415 21.949,7.585 16.447,13.087 10.945,7.585 8.117,10.415 13.618,15.917 8.116,21.419 10.946,24.248 16.447,18.746 21.948,24.248z"></path><title>Remove link.</title></g><g  event="link:options"><circle r="11" transform="translate(25)"></circle><path fill="white" transform="scale(.55) translate(29, -16)" d="M31.229,17.736c0.064-0.571,0.104-1.148,0.104-1.736s-0.04-1.166-0.104-1.737l-4.377-1.557c-0.218-0.716-0.504-1.401-0.851-2.05l1.993-4.192c-0.725-0.91-1.549-1.734-2.458-2.459l-4.193,1.994c-0.647-0.347-1.334-0.632-2.049-0.849l-1.558-4.378C17.165,0.708,16.588,0.667,16,0.667s-1.166,0.041-1.737,0.105L12.707,5.15c-0.716,0.217-1.401,0.502-2.05,0.849L6.464,4.005C5.554,4.73,4.73,5.554,4.005,6.464l1.994,4.192c-0.347,0.648-0.632,1.334-0.849,2.05l-4.378,1.557C0.708,14.834,0.667,15.412,0.667,16s0.041,1.165,0.105,1.736l4.378,1.558c0.217,0.715,0.502,1.401,0.849,2.049l-1.994,4.193c0.725,0.909,1.549,1.733,2.459,2.458l4.192-1.993c0.648,0.347,1.334,0.633,2.05,0.851l1.557,4.377c0.571,0.064,1.148,0.104,1.737,0.104c0.588,0,1.165-0.04,1.736-0.104l1.558-4.377c0.715-0.218,1.399-0.504,2.049-0.851l4.193,1.993c0.909-0.725,1.733-1.549,2.458-2.458l-1.993-4.193c0.347-0.647,0.633-1.334,0.851-2.049L31.229,17.736zM16,20.871c-2.69,0-4.872-2.182-4.872-4.871c0-2.69,2.182-4.872,4.872-4.872c2.689,0,4.871,2.182,4.871,4.872C20.871,18.689,18.689,20.871,16,20.871z"></path><title>Link options.</title></g></g></g></g><!--z-index:39--><g   id="j_178" ><path  stroke="#707070" d="M 1417 1808 L 1523 1950 C 1527 1955.3333333333333 1530.6666666666665 1960.6666666666665 1534 1966 L 1957 2617" id="v-2385" stroke-width="2" stroke-dasharray="30 30" fill="none"></path><path  fill="black" stroke="black" d="M 0 0 0 0" transform="matrix(0.599999976112929,0.8000000179153027,-0.8000000179153027,0.599999976112929,1416.5,1808)"></path><path  fill="#707070" stroke="#707070" d="M 20 0 L 0 10 L 20 20 z" id="v-2387" transform="matrix(-0.544368528050057,-0.8388461752124845,0.8388461752124845,-0.544368528050057,1948.2690907158758,2622.4437192982505)"></path><path  d="M 1417 1808 L 1523 1950 C 1527 1955.3333333333333 1530.6666666666665 1960.6666666666665 1534 1966 L 1957 2617" id="v-2386" fill="none" style="pointer-events: visiblepainted; cursor: auto;"></path><g ><g id="v-2376"  label-idx="0" cursor="move" transform="matrix(1,0,0,1,1691.9349365234375,2209.06298828125)"><rect joint-selector="rect" id="v-2380" fill="#ffffff" rx="3" ry="3" pointer-events="none" width="135.2887420654297" height="54.47651481628418" transform="matrix(1,0,0,1,-67,-27.2)"></rect><text joint-selector="text" id="v-2379" font-size="24px" xml:space="preserve" y="0.8em" fill="#707070" text-anchor="middle" pointer-events="none" font-family="Arial" font-weight="normal" transform="matrix(1,0,0,1,0,-24.4)"><tspan dy="0" >3: Проверка</tspan><tspan dy="1.2em" x="0" >токена</tspan></text></g><g id="v-2377"  label-idx="1" cursor="move" transform="matrix(1,0,0,1,1691.9349365234375,2249.863037109375)"><rect joint-selector="rect" id="v-2382" fill="#ffffff" rx="3" ry="3" pointer-events="none" width="114.11146545410156" height="18.34036636352539" transform="matrix(1,0,0,1,-57.1,-9.2)"></rect><text joint-selector="text" id="v-2381" font-size="17px" xml:space="preserve" y="0.8em" fill="#707070" text-anchor="middle" pointer-events="none" font-family="Arial" font-weight="normal" transform="matrix(1,0,0,1,0,-8.1)"><tspan dy="0" >[OAuth2/OIDC]</tspan></text></g><g id="v-2378"  label-idx="2" cursor="move" transform="matrix(1,0,0,1,1681.9349365234375,2258.262939453125)"><rect joint-selector="rect" id="v-2384" fill="#ffffff" rx="3" ry="3"  width="0" height="0" transform="matrix(1,0,0,1,0,0)" display="none"></rect><text joint-selector="text" id="v-2383" fill="#000000" font-size="14" text-anchor="middle" pointer-events="none"></text></g></g><g  display="none" style="display: none;"><g  transform="translate(1529, 1958)" id="v-2373"><circle  idx="0" r="10"></circle><path  idx="0" d="M16,5.333c-7.732,0-14,4.701-14,10.5c0,1.982,0.741,3.833,2.016,5.414L2,25.667l5.613-1.441c2.339,1.317,5.237,2.107,8.387,2.107c7.732,0,14-4.701,14-10.5C30,10.034,23.732,5.333,16,5.333z" transform="translate(5, -33)"></path><path  idx="0" transform="scale(.8) translate(9.5, -37)" d="M24.778,21.419 19.276,15.917 24.777,10.415 21.949,7.585 16.447,13.087 10.945,7.585 8.117,10.415 13.618,15.917 8.116,21.419 10.946,24.248 16.447,18.746 21.948,24.248z"><title>Remove vertex.</title></path></g></g><g  id="v-2389" display="none"><g  id="v-2374"><path  end="source" d="M 26 0 L 0 13 L 26 26 z"></path></g><g  id="v-2375"><path  end="target" d="M 26 0 L 0 13 L 26 26 z"></path></g></g><g  id="v-2388" display="none"><g  id="v-2372" transform="translate(1440.9277042744834, 1840.05409440544) "><g  event="remove"><circle r="11"></circle><path transform="scale(.8) translate(-16, -16)" d="M24.778,21.419 19.276,15.917 24.777,10.415 21.949,7.585 16.447,13.087 10.945,7.585 8.117,10.415 13.618,15.917 8.116,21.419 10.946,24.248 16.447,18.746 21.948,24.248z"></path><title>Remove link.</title></g><g  event="link:options"><circle r="11" transform="translate(25)"></circle><path fill="white" transform="scale(.55) translate(29, -16)" d="M31.229,17.736c0.064-0.571,0.104-1.148,0.104-1.736s-0.04-1.166-0.104-1.737l-4.377-1.557c-0.218-0.716-0.504-1.401-0.851-2.05l1.993-4.192c-0.725-0.91-1.549-1.734-2.458-2.459l-4.193,1.994c-0.647-0.347-1.334-0.632-2.049-0.849l-1.558-4.378C17.165,0.708,16.588,0.667,16,0.667s-1.166,0.041-1.737,0.105L12.707,5.15c-0.716,0.217-1.401,0.502-2.05,0.849L6.464,4.005C5.554,4.73,4.73,5.554,4.005,6.464l1.994,4.192c-0.347,0.648-0.632,1.334-0.849,2.05l-4.378,1.557C0.708,14.834,0.667,15.412,0.667,16s0.041,1.165,0.105,1.736l4.378,1.558c0.217,0.715,0.502,1.401,0.849,2.049l-1.994,4.193c0.725,0.909,1.549,1.733,2.459,2.458l4.192-1.993c0.648,0.347,1.334,0.633,2.05,0.851l1.557,4.377c0.571,0.064,1.148,0.104,1.737,0.104c0.588,0,1.165-0.04,1.736-0.104l1.558-4.377c0.715-0.218,1.399-0.504,2.049-0.851l4.193,1.993c0.909-0.725,1.733-1.549,2.458-2.458l-1.993-4.193c0.347-0.647,0.633-1.334,0.851-2.049L31.229,17.736zM16,20.871c-2.69,0-4.872-2.182-4.872-4.871c0-2.69,2.182-4.872,4.872-4.872c2.689,0,4.871,2.182,4.871,4.872C20.871,18.689,18.689,20.871,16,20.871z"></path><title>Link options.</title></g></g></g></g><!--z-index:40--><g   id="j_179" ><path  stroke="#707070" d="M 1079 1568 L 938 1512 C 931.9999999999999 1509.3333333333333 925.9999999999999 1509.3333333333333 920 1512 L 779 1568" id="v-2405" stroke-width="2" stroke-dasharray="30 30" fill="none"></path><path  fill="black" stroke="black" d="M 0 0 0 0" transform="matrix(-0.928476707906966,-0.3713906337998342,0.3713906337998342,-0.928476707906966,1079,1568)"></path><path  fill="#707070" stroke="#707070" d="M 20 0 L 0 10 L 20 20 z" id="v-2407" transform="matrix(0.9284766089996245,-0.3713908810681253,0.3713908810681253,0.9284766089996245,775.286115138385,1558.715275533185)"></path><path  d="M 1079 1568 L 938 1512 C 931.9999999999999 1509.3333333333333 925.9999999999999 1509.3333333333333 920 1512 L 779 1568" id="v-2406" fill="none" style="pointer-events: visiblepainted; cursor: auto;"></path><g ><g id="v-2396"  label-idx="0" cursor="move" transform="matrix(1,0,0,1,929,1510)"><rect joint-selector="rect" id="v-2400" fill="#ffffff" rx="3" ry="3" pointer-events="none" width="119.86885833740234" height="54.47651481628418" transform="matrix(1,0,0,1,-58.9,-27.2)"></rect><text joint-selector="text" id="v-2399" font-size="24px" xml:space="preserve" y="0.8em" fill="#707070" text-anchor="middle" pointer-events="none" font-family="Arial" font-weight="normal" transform="matrix(1,0,0,1,0,-24.4)"><tspan dy="0" >4: Создать</tspan><tspan dy="1.2em" x="0" >письмо</tspan></text></g><g id="v-2397"  label-idx="1" cursor="move" transform="matrix(1,0,0,1,929,1550.800048828125)"><rect joint-selector="rect" id="v-2402" fill="#ffffff" rx="3" ry="3" pointer-events="none" width="115.02848052978516" height="18.34036636352539" transform="matrix(1,0,0,1,-57.5,-9.2)"></rect><text joint-selector="text" id="v-2401" font-size="17px" xml:space="preserve" y="0.8em" fill="#707070" text-anchor="middle" pointer-events="none" font-family="Arial" font-weight="normal" transform="matrix(1,0,0,1,0,-8.1)"><tspan dy="0" >[HTTPS/REST]</tspan></text></g><g id="v-2398"  label-idx="2" cursor="move" transform="matrix(1,0,0,1,919,1559.199951171875)"><rect joint-selector="rect" id="v-2404" fill="#ffffff" rx="3" ry="3"  width="0" height="0" transform="matrix(1,0,0,1,0,0)" display="none"></rect><text joint-selector="text" id="v-2403" fill="#000000" font-size="14" text-anchor="middle" pointer-events="none"></text></g></g><g  display="none" style="display: none;"><g  transform="translate(929, 1508)" id="v-2538"><circle  idx="0" r="10"></circle><path  idx="0" d="M16,5.333c-7.732,0-14,4.701-14,10.5c0,1.982,0.741,3.833,2.016,5.414L2,25.667l5.613-1.441c2.339,1.317,5.237,2.107,8.387,2.107c7.732,0,14-4.701,14-10.5C30,10.034,23.732,5.333,16,5.333z" transform="translate(5, -33)"></path><path  idx="0" transform="scale(.8) translate(9.5, -37)" d="M24.778,21.419 19.276,15.917 24.777,10.415 21.949,7.585 16.447,13.087 10.945,7.585 8.117,10.415 13.618,15.917 8.116,21.419 10.946,24.248 16.447,18.746 21.948,24.248z"><title>Remove vertex.</title></path></g></g><g  id="v-2409" display="none"><g  id="v-2394"><path  end="source" d="M 26 0 L 0 13 L 26 26 z"></path></g><g  id="v-2395"><path  end="target" d="M 26 0 L 0 13 L 26 26 z"></path></g></g><g  id="v-2408" display="none"><g  id="v-2393" transform="translate(1041.8246774688942, 1553.2353328954473) "><g  event="remove"><circle r="11"></circle><path transform="scale(.8) translate(-16, -16)" d="M24.778,21.419 19.276,15.917 24.777,10.415 21.949,7.585 16.447,13.087 10.945,7.585 8.117,10.415 13.618,15.917 8.116,21.419 10.946,24.248 16.447,18.746 21.948,24.248z"></path><title>Remove link.</title></g><g  event="link:options"><circle r="11" transform="translate(25)"></circle><path fill="white" transform="scale(.55) translate(29, -16)" d="M31.229,17.736c0.064-0.571,0.104-1.148,0.104-1.736s-0.04-1.166-0.104-1.737l-4.377-1.557c-0.218-0.716-0.504-1.401-0.851-2.05l1.993-4.192c-0.725-0.91-1.549-1.734-2.458-2.459l-4.193,1.994c-0.647-0.347-1.334-0.632-2.049-0.849l-1.558-4.378C17.165,0.708,16.588,0.667,16,0.667s-1.166,0.041-1.737,0.105L12.707,5.15c-0.716,0.217-1.401,0.502-2.05,0.849L6.464,4.005C5.554,4.73,4.73,5.554,4.005,6.464l1.994,4.192c-0.347,0.648-0.632,1.334-0.849,2.05l-4.378,1.557C0.708,14.834,0.667,15.412,0.667,16s0.041,1.165,0.105,1.736l4.378,1.558c0.217,0.715,0.502,1.401,0.849,2.049l-1.994,4.193c0.725,0.909,1.549,1.733,2.459,2.458l4.192-1.993c0.648,0.347,1.334,0.633,2.05,0.851l1.557,4.377c0.571,0.064,1.148,0.104,1.737,0.104c0.588,0,1.165-0.04,1.736-0.104l1.558-4.377c0.715-0.218,1.399-0.504,2.049-0.851l4.193,1.993c0.909-0.725,1.733-1.549,2.458-2.458l-1.993-4.193c0.347-0.647,0.633-1.334,0.851-2.049L31.229,17.736zM16,20.871c-2.69,0-4.872-2.182-4.872-4.871c0-2.69,2.182-4.872,4.872-4.872c2.689,0,4.871,2.182,4.871,4.872C20.871,18.689,18.689,20.871,16,20.871z"></path><title>Link options.</title></g></g></g></g><!--z-index:41--><g   id="j_180" ><path  stroke="#707070" d="M 742 1508 L 1117 1208" id="v-2425" stroke-width="2" stroke-dasharray="30 30" fill="none"></path><path  fill="black" stroke="black" d="M 0 0 0 0" transform="matrix(0.7808686753084834,-0.624695215222571,0.624695215222571,0.7808686753084834,741.5,1508)"></path><path  fill="#707070" stroke="#707070" d="M 20 0 L 0 10 L 20 20 z" id="v-2427" transform="matrix(-0.7808688416748546,0.6246950072646418,-0.6246950072646418,-0.7808688416748546,1122.7469226690826,1215.8086865862897)"></path><path  d="M 742 1508 L 1117 1208" id="v-2426" fill="none" style="pointer-events: visiblepainted; cursor: auto;"></path><g ><g id="v-2416"  label-idx="0" cursor="move" transform="matrix(1,0,0,1,929.5,1358)"><rect joint-selector="rect" id="v-2420" fill="#ffffff" rx="3" ry="3" pointer-events="none" width="114.09136962890625" height="58.14458656311035" transform="matrix(1,0,0,1,-57,-29.1)"></rect><text joint-selector="text" id="v-2419" font-size="24px" xml:space="preserve" y="0.8em" fill="#707070" text-anchor="middle" pointer-events="none" font-family="Arial" font-weight="normal" transform="matrix(1,0,0,1,0,-26.3)"><tspan dy="0" >5: INSERT</tspan><tspan dy="1.2em" x="0" >message</tspan></text></g><g id="v-2417"  label-idx="1" cursor="move" transform="matrix(1,0,0,1,929.5,1398.800048828125)"><rect joint-selector="rect" id="v-2422" fill="#ffffff" rx="3" ry="3" pointer-events="none" width="43.38642883300781" height="18.34036636352539" transform="matrix(1,0,0,1,-21.7,-9.2)"></rect><text joint-selector="text" id="v-2421" font-size="17px" xml:space="preserve" y="0.8em" fill="#707070" text-anchor="middle" pointer-events="none" font-family="Arial" font-weight="normal" transform="matrix(1,0,0,1,0,-8.1)"><tspan dy="0" >[SQL]</tspan></text></g><g id="v-2418"  label-idx="2" cursor="move" transform="matrix(1,0,0,1,919.5,1407.199951171875)"><rect joint-selector="rect" id="v-2424" fill="#ffffff" rx="3" ry="3"  width="0" height="0" transform="matrix(1,0,0,1,0,0)" display="none"></rect><text joint-selector="text" id="v-2423" fill="#000000" font-size="14" text-anchor="middle" pointer-events="none"></text></g></g><g  display="none" style="display: none;"></g><g  id="v-2429" display="none"><g  id="v-2414"><path  end="source" d="M 26 0 L 0 13 L 26 26 z"></path></g><g  id="v-2415"><path  end="target" d="M 26 0 L 0 13 L 26 26 z"></path></g></g><g  id="v-2428" display="none"><g  id="v-2413" transform="translate(773.2347523777212, 1483.012198097823) "><g  event="remove"><circle r="11"></circle><path transform="scale(.8) translate(-16, -16)" d="M24.778,21.419 19.276,15.917 24.777,10.415 21.949,7.585 16.447,13.087 10.945,7.585 8.117,10.415 13.618,15.917 8.116,21.419 10.946,24.248 16.447,18.746 21.948,24.248z"></path><title>Remove link.</title></g><g  event="link:options"><circle r="11" transform="translate(25)"></circle><path fill="white" transform="scale(.55) translate(29, -16)" d="M31.229,17.736c0.064-0.571,0.104-1.148,0.104-1.736s-0.04-1.166-0.104-1.737l-4.377-1.557c-0.218-0.716-0.504-1.401-0.851-2.05l1.993-4.192c-0.725-0.91-1.549-1.734-2.458-2.459l-4.193,1.994c-0.647-0.347-1.334-0.632-2.049-0.849l-1.558-4.378C17.165,0.708,16.588,0.667,16,0.667s-1.166,0.041-1.737,0.105L12.707,5.15c-0.716,0.217-1.401,0.502-2.05,0.849L6.464,4.005C5.554,4.73,4.73,5.554,4.005,6.464l1.994,4.192c-0.347,0.648-0.632,1.334-0.849,2.05l-4.378,1.557C0.708,14.834,0.667,15.412,0.667,16s0.041,1.165,0.105,1.736l4.378,1.558c0.217,0.715,0.502,1.401,0.849,2.049l-1.994,4.193c0.725,0.909,1.549,1.733,2.459,2.458l4.192-1.993c0.648,0.347,1.334,0.633,2.05,0.851l1.557,4.377c0.571,0.064,1.148,0.104,1.737,0.104c0.588,0,1.165-0.04,1.736-0.104l1.558-4.377c0.715-0.218,1.399-0.504,2.049-0.851l4.193,1.993c0.909-0.725,1.733-1.549,2.458-2.458l-1.993-4.193c0.347-0.647,0.633-1.334,0.851-2.049L31.229,17.736zM16,20.871c-2.69,0-4.872-2.182-4.872-4.871c0-2.69,2.182-4.872,4.872-4.872c2.689,0,4.871,2.182,4.871,4.872C20.871,18.689,18.689,20.871,16,20.871z"></path><title>Link options.</title></g></g></g></g><!--z-index:42--><g   id="j_181" ><path  stroke="#707070" d="M 742 1808 L 1117 2108" id="v-2445" stroke-width="2" stroke-dasharray="30 30" fill="none"></path><path  fill="black" stroke="black" d="M 0 0 0 0" transform="matrix(0.7808688000832672,0.624695059254128,-0.624695059254128,0.7808688000832672,741.5,1808)"></path><path  fill="#707070" stroke="#707070" d="M 20 0 L 0 10 L 20 20 z" id="v-2447" transform="matrix(-0.7808688416748548,-0.6246950072646416,0.6246950072646416,-0.7808688416748548,1110.2530225237897,2115.808568176895)"></path><path  d="M 742 1808 L 1117 2108" id="v-2446" fill="none" style="pointer-events: visiblepainted; cursor: auto;"></path><g ><g id="v-2436"  label-idx="0" cursor="move" transform="matrix(1,0,0,1,929.5,1958)"><rect joint-selector="rect" id="v-2440" fill="#ffffff" rx="3" ry="3" pointer-events="none" width="183.78744506835938" height="86.9445915222168" transform="matrix(1,0,0,1,-91.2,-43.5)"></rect><text joint-selector="text" id="v-2439" font-size="24px" xml:space="preserve" y="0.8em" fill="#707070" text-anchor="middle" pointer-events="none" font-family="Arial" font-weight="normal" transform="matrix(1,0,0,1,0,-40.7)"><tspan dy="0" >6: Publish</tspan><tspan dy="1.2em" x="0" >MessageCreated</tspan><tspan dy="1.2em" x="0" >(опц.)</tspan></text></g><g id="v-2437"  label-idx="1" cursor="move" transform="matrix(1,0,0,1,929.5,2013.199951171875)"><rect joint-selector="rect" id="v-2442" fill="#ffffff" rx="3" ry="3" pointer-events="none" width="59.43424987792969" height="18.34036636352539" transform="matrix(1,0,0,1,-29.7,-9.2)"></rect><text joint-selector="text" id="v-2441" font-size="17px" xml:space="preserve" y="0.8em" fill="#707070" text-anchor="middle" pointer-events="none" font-family="Arial" font-weight="normal" transform="matrix(1,0,0,1,0,-8.1)"><tspan dy="0" >[AMQP]</tspan></text></g><g id="v-2438"  label-idx="2" cursor="move" transform="matrix(1,0,0,1,919.5,2021.5999755859375)"><rect joint-selector="rect" id="v-2444" fill="#ffffff" rx="3" ry="3"  width="0" height="0" transform="matrix(1,0,0,1,0,0)" display="none"></rect><text joint-selector="text" id="v-2443" fill="#000000" font-size="14" text-anchor="middle" pointer-events="none"></text></g></g><g  display="none" style="display: none;"></g><g  id="v-2449" display="none"><g  id="v-2434"><path  end="source" d="M 26 0 L 0 13 L 26 26 z"></path></g><g  id="v-2435"><path  end="target" d="M 26 0 L 0 13 L 26 26 z"></path></g></g><g  id="v-2448" display="none"><g  id="v-2433" transform="translate(773.2347523777212, 1832.9878019021771) "><g  event="remove"><circle r="11"></circle><path transform="scale(.8) translate(-16, -16)" d="M24.778,21.419 19.276,15.917 24.777,10.415 21.949,7.585 16.447,13.087 10.945,7.585 8.117,10.415 13.618,15.917 8.116,21.419 10.946,24.248 16.447,18.746 21.948,24.248z"></path><title>Remove link.</title></g><g  event="link:options"><circle r="11" transform="translate(25)"></circle><path fill="white" transform="scale(.55) translate(29, -16)" d="M31.229,17.736c0.064-0.571,0.104-1.148,0.104-1.736s-0.04-1.166-0.104-1.737l-4.377-1.557c-0.218-0.716-0.504-1.401-0.851-2.05l1.993-4.192c-0.725-0.91-1.549-1.734-2.458-2.459l-4.193,1.994c-0.647-0.347-1.334-0.632-2.049-0.849l-1.558-4.378C17.165,0.708,16.588,0.667,16,0.667s-1.166,0.041-1.737,0.105L12.707,5.15c-0.716,0.217-1.401,0.502-2.05,0.849L6.464,4.005C5.554,4.73,4.73,5.554,4.005,6.464l1.994,4.192c-0.347,0.648-0.632,1.334-0.849,2.05l-4.378,1.557C0.708,14.834,0.667,15.412,0.667,16s0.041,1.165,0.105,1.736l4.378,1.558c0.217,0.715,0.502,1.401,0.849,2.049l-1.994,4.193c0.725,0.909,1.549,1.733,2.459,2.458l4.192-1.993c0.648,0.347,1.334,0.633,2.05,0.851l1.557,4.377c0.571,0.064,1.148,0.104,1.737,0.104c0.588,0,1.165-0.04,1.736-0.104l1.558-4.377c0.715-0.218,1.399-0.504,2.049-0.851l4.193,1.993c0.909-0.725,1.733-1.549,2.458-2.458l-1.993-4.193c0.347-0.647,0.633-1.334,0.851-2.049L31.229,17.736zM16,20.871c-2.69,0-4.872-2.182-4.872-4.871c0-2.69,2.182-4.872,4.872-4.872c2.689,0,4.871,2.182,4.871,4.872C20.871,18.689,18.689,20.871,16,20.871z"></path><title>Link options.</title></g></g></g></g><!--z-index:43--><g   id="j_182" ><path  stroke="#707070" d="M 779 2258 L 1079 2258" id="v-2465" stroke-width="2" stroke-dasharray="30 30" fill="none"></path><path  fill="black" stroke="black" d="M 0 0 0 0" transform="matrix(1,0,0,1,779,2258)"></path><path  fill="#707070" stroke="#707070" d="M 20 0 L 0 10 L 20 20 z" id="v-2467" transform="matrix(-1,1.2246467991473532e-16,-1.2246467991473532e-16,-1,1079,2268)"></path><path  d="M 779 2258 L 1079 2258" id="v-2466" fill="none" style="pointer-events: visiblepainted; cursor: auto;"></path><g ><g id="v-2456"  label-idx="0" cursor="move" transform="matrix(1,0,0,1,929,2258)"><rect joint-selector="rect" id="v-2460" fill="#ffffff" rx="3" ry="3" pointer-events="none" width="183.78744506835938" height="86.9445915222168" transform="matrix(1,0,0,1,-91.2,-43.5)"></rect><text joint-selector="text" id="v-2459" font-size="24px" xml:space="preserve" y="0.8em" fill="#707070" text-anchor="middle" pointer-events="none" font-family="Arial" font-weight="normal" transform="matrix(1,0,0,1,0,-40.7)"><tspan dy="0" >7: Consume</tspan><tspan dy="1.2em" x="0" >MessageCreated</tspan><tspan dy="1.2em" x="0" >(опц.)</tspan></text></g><g id="v-2457"  label-idx="1" cursor="move" transform="matrix(1,0,0,1,929,2313.199951171875)"><rect joint-selector="rect" id="v-2462" fill="#ffffff" rx="3" ry="3" pointer-events="none" width="59.43424987792969" height="18.34036636352539" transform="matrix(1,0,0,1,-29.7,-9.2)"></rect><text joint-selector="text" id="v-2461" font-size="17px" xml:space="preserve" y="0.8em" fill="#707070" text-anchor="middle" pointer-events="none" font-family="Arial" font-weight="normal" transform="matrix(1,0,0,1,0,-8.1)"><tspan dy="0" >[AMQP]</tspan></text></g><g id="v-2458"  label-idx="2" cursor="move" transform="matrix(1,0,0,1,919,2321.60009765625)"><rect joint-selector="rect" id="v-2464" fill="#ffffff" rx="3" ry="3"  width="0" height="0" transform="matrix(1,0,0,1,0,0)" display="none"></rect><text joint-selector="text" id="v-2463" fill="#000000" font-size="14" text-anchor="middle" pointer-events="none"></text></g></g><g  display="none" style="display: none;"></g><g  id="v-2469" display="none"><g  id="v-2454"><path  end="source" d="M 26 0 L 0 13 L 26 26 z"></path></g><g  id="v-2455"><path  end="target" d="M 26 0 L 0 13 L 26 26 z"></path></g></g><g  id="v-2468" display="none"><g  id="v-2453" transform="translate(819, 2258) "><g  event="remove"><circle r="11"></circle><path transform="scale(.8) translate(-16, -16)" d="M24.778,21.419 19.276,15.917 24.777,10.415 21.949,7.585 16.447,13.087 10.945,7.585 8.117,10.415 13.618,15.917 8.116,21.419 10.946,24.248 16.447,18.746 21.948,24.248z"></path><title>Remove link.</title></g><g  event="link:options"><circle r="11" transform="translate(25)"></circle><path fill="white" transform="scale(.55) translate(29, -16)" d="M31.229,17.736c0.064-0.571,0.104-1.148,0.104-1.736s-0.04-1.166-0.104-1.737l-4.377-1.557c-0.218-0.716-0.504-1.401-0.851-2.05l1.993-4.192c-0.725-0.91-1.549-1.734-2.458-2.459l-4.193,1.994c-0.647-0.347-1.334-0.632-2.049-0.849l-1.558-4.378C17.165,0.708,16.588,0.667,16,0.667s-1.166,0.041-1.737,0.105L12.707,5.15c-0.716,0.217-1.401,0.502-2.05,0.849L6.464,4.005C5.554,4.73,4.73,5.554,4.005,6.464l1.994,4.192c-0.347,0.648-0.632,1.334-0.849,2.05l-4.378,1.557C0.708,14.834,0.667,15.412,0.667,16s0.041,1.165,0.105,1.736l4.378,1.558c0.217,0.715,0.502,1.401,0.849,2.049l-1.994,4.193c0.725,0.909,1.549,1.733,2.459,2.458l4.192-1.993c0.648,0.347,1.334,0.633,2.05,0.851l1.557,4.377c0.571,0.064,1.148,0.104,1.737,0.104c0.588,0,1.165-0.04,1.736-0.104l1.558-4.377c0.715-0.218,1.399-0.504,2.049-0.851l4.193,1.993c0.909-0.725,1.733-1.549,2.458-2.458l-1.993-4.193c0.347-0.647,0.633-1.334,0.851-2.049L31.229,17.736zM16,20.871c-2.69,0-4.872-2.182-4.872-4.871c0-2.69,2.182-4.872,4.872-4.872c2.689,0,4.871,2.182,4.871,4.872C20.871,18.689,18.689,20.871,16,20.871z"></path><title>Link options.</title></g></g></g></g><!--z-index:44--><g   id="j_183" ><path  stroke="#707070" d="M 742 2408 L 1117 2708" id="v-2485" stroke-width="2" stroke-dasharray="30 30" fill="none"></path><path  fill="black" stroke="black" d="M 0 0 0 0" transform="matrix(0.7808688000832672,0.624695059254128,-0.624695059254128,0.7808688000832672,741.5,2408)"></path><path  fill="#707070" stroke="#707070" d="M 20 0 L 0 10 L 20 20 z" id="v-2487" transform="matrix(-0.7808688416748548,-0.6246950072646416,0.6246950072646416,-0.7808688416748548,1110.2530225237897,2715.808568176895)"></path><path  d="M 742 2408 L 1117 2708" id="v-2486" fill="none" style="pointer-events: visiblepainted; cursor: auto;"></path><g ><g id="v-2476"  label-idx="0" cursor="move" transform="matrix(1,0,0,1,929.5,2558)"><rect joint-selector="rect" id="v-2480" fill="#ffffff" rx="3" ry="3" pointer-events="none" width="167.44058227539062" height="58.14458656311035" transform="matrix(1,0,0,1,-83.2,-29.1)"></rect><text joint-selector="text" id="v-2479" font-size="24px" xml:space="preserve" y="0.8em" fill="#707070" text-anchor="middle" pointer-events="none" font-family="Arial" font-weight="normal" transform="matrix(1,0,0,1,0,-26.3)"><tspan dy="0" >8: SMTP SEND</tspan><tspan dy="1.2em" x="0" >(опц.)</tspan></text></g><g id="v-2477"  label-idx="1" cursor="move" transform="matrix(1,0,0,1,929.5,2598.800048828125)"><rect joint-selector="rect" id="v-2482" fill="#ffffff" rx="3" ry="3" pointer-events="none" width="56.568565368652344" height="18.34036636352539" transform="matrix(1,0,0,1,-28.3,-9.2)"></rect><text joint-selector="text" id="v-2481" font-size="17px" xml:space="preserve" y="0.8em" fill="#707070" text-anchor="middle" pointer-events="none" font-family="Arial" font-weight="normal" transform="matrix(1,0,0,1,0,-8.1)"><tspan dy="0" >[SMTP]</tspan></text></g><g id="v-2478"  label-idx="2" cursor="move" transform="matrix(1,0,0,1,919.5,2607.199951171875)"><rect joint-selector="rect" id="v-2484" fill="#ffffff" rx="3" ry="3"  width="0" height="0" transform="matrix(1,0,0,1,0,0)" display="none"></rect><text joint-selector="text" id="v-2483" fill="#000000" font-size="14" text-anchor="middle" pointer-events="none"></text></g></g><g  display="none" style="display: none;"></g><g  id="v-2489" display="none"><g  id="v-2474"><path  end="source" d="M 26 0 L 0 13 L 26 26 z"></path></g><g  id="v-2475"><path  end="target" d="M 26 0 L 0 13 L 26 26 z"></path></g></g><g  id="v-2488" display="none"><g  id="v-2473" transform="translate(773.2347523777212, 2432.987801902177) "><g  event="remove"><circle r="11"></circle><path transform="scale(.8) translate(-16, -16)" d="M24.778,21.419 19.276,15.917 24.777,10.415 21.949,7.585 16.447,13.087 10.945,7.585 8.117,10.415 13.618,15.917 8.116,21.419 10.946,24.248 16.447,18.746 21.948,24.248z"></path><title>Remove link.</title></g><g  event="link:options"><circle r="11" transform="translate(25)"></circle><path fill="white" transform="scale(.55) translate(29, -16)" d="M31.229,17.736c0.064-0.571,0.104-1.148,0.104-1.736s-0.04-1.166-0.104-1.737l-4.377-1.557c-0.218-0.716-0.504-1.401-0.851-2.05l1.993-4.192c-0.725-0.91-1.549-1.734-2.458-2.459l-4.193,1.994c-0.647-0.347-1.334-0.632-2.049-0.849l-1.558-4.378C17.165,0.708,16.588,0.667,16,0.667s-1.166,0.041-1.737,0.105L12.707,5.15c-0.716,0.217-1.401,0.502-2.05,0.849L6.464,4.005C5.554,4.73,4.73,5.554,4.005,6.464l1.994,4.192c-0.347,0.648-0.632,1.334-0.849,2.05l-4.378,1.557C0.708,14.834,0.667,15.412,0.667,16s0.041,1.165,0.105,1.736l4.378,1.558c0.217,0.715,0.502,1.401,0.849,2.049l-1.994,4.193c0.725,0.909,1.549,1.733,2.459,2.458l4.192-1.993c0.648,0.347,1.334,0.633,2.05,0.851l1.557,4.377c0.571,0.064,1.148,0.104,1.737,0.104c0.588,0,1.165-0.04,1.736-0.104l1.558-4.377c0.715-0.218,1.399-0.504,2.049-0.851l4.193,1.993c0.909-0.725,1.733-1.549,2.458-2.458l-1.993-4.193c0.347-0.647,0.633-1.334,0.851-2.049L31.229,17.736zM16,20.871c-2.69,0-4.872-2.182-4.872-4.871c0-2.69,2.182-4.872,4.872-4.872c2.689,0,4.871,2.182,4.871,4.872C20.871,18.689,18.689,20.871,16,20.871z"></path><title>Link options.</title></g></g></g></g><!--z-index:45--><g   id="j_184" ><path  stroke="#707070" d="M 779 1748 L 920 1804 C 925.9999999999999 1806.6666666666665 931.9999999999999 1806.6666666666665 938 1804 L 1079 1748" id="v-2505" stroke-width="2" stroke-dasharray="30 30" fill="none"></path><path  fill="black" stroke="black" d="M 0 0 0 0" transform="matrix(0.9284766955435519,0.371390664708372,-0.371390664708372,0.9284766955435519,779,1748)"></path><path  fill="#707070" stroke="#707070" d="M 20 0 L 0 10 L 20 20 z" id="v-2507" transform="matrix(-0.928476707906966,0.37139063379983406,-0.37139063379983406,-0.928476707906966,1082.7138833780054,1757.2847279285713)"></path><path  d="M 779 1748 L 920 1804 C 925.9999999999999 1806.6666666666665 931.9999999999999 1806.6666666666665 938 1804 L 1079 1748" id="v-2506" fill="none" style="pointer-events: visiblepainted; cursor: auto;"></path><g ><g id="v-2496"  label-idx="0" cursor="move" transform="matrix(1,0,0,1,929,1806)"><rect joint-selector="rect" id="v-2500" fill="#ffffff" rx="3" ry="3" pointer-events="none" width="179.8218994140625" height="58.14458656311035" transform="matrix(1,0,0,1,-89.6,-29.1)"></rect><text joint-selector="text" id="v-2499" font-size="24px" xml:space="preserve" y="0.8em" fill="#707070" text-anchor="middle" pointer-events="none" font-family="Arial" font-weight="normal" transform="matrix(1,0,0,1,0,-26.3)"><tspan dy="0" >9: 201 Created +</tspan><tspan dy="1.2em" x="0" >messageId</tspan></text></g><g id="v-2497"  label-idx="1" cursor="move" transform="matrix(1,0,0,1,929,1846.800048828125)"><rect joint-selector="rect" id="v-2502" fill="#ffffff" rx="3" ry="3" pointer-events="none" width="115.02848052978516" height="18.34036636352539" transform="matrix(1,0,0,1,-57.5,-9.2)"></rect><text joint-selector="text" id="v-2501" font-size="17px" xml:space="preserve" y="0.8em" fill="#707070" text-anchor="middle" pointer-events="none" font-family="Arial" font-weight="normal" transform="matrix(1,0,0,1,0,-8.1)"><tspan dy="0" >[HTTPS/REST]</tspan></text></g><g id="v-2498"  label-idx="2" cursor="move" transform="matrix(1,0,0,1,919,1855.199951171875)"><rect joint-selector="rect" id="v-2504" fill="#ffffff" rx="3" ry="3"  width="0" height="0" transform="matrix(1,0,0,1,0,0)" display="none"></rect><text joint-selector="text" id="v-2503" fill="#000000" font-size="14" text-anchor="middle" pointer-events="none"></text></g></g><g  display="none" style="display: none;"><g  transform="translate(929, 1808)" id="v-2539"><circle  idx="0" r="10"></circle><path  idx="0" d="M16,5.333c-7.732,0-14,4.701-14,10.5c0,1.982,0.741,3.833,2.016,5.414L2,25.667l5.613-1.441c2.339,1.317,5.237,2.107,8.387,2.107c7.732,0,14-4.701,14-10.5C30,10.034,23.732,5.333,16,5.333z" transform="translate(5, -33)"></path><path  idx="0" transform="scale(.8) translate(9.5, -37)" d="M24.778,21.419 19.276,15.917 24.777,10.415 21.949,7.585 16.447,13.087 10.945,7.585 8.117,10.415 13.618,15.917 8.116,21.419 10.946,24.248 16.447,18.746 21.948,24.248z"><title>Remove vertex.</title></path></g></g><g  id="v-2509" display="none"><g  id="v-2494"><path  end="source" d="M 26 0 L 0 13 L 26 26 z"></path></g><g  id="v-2495"><path  end="target" d="M 26 0 L 0 13 L 26 26 z"></path></g></g><g  id="v-2508" display="none"><g  id="v-2493" transform="translate(816.1753225311058, 1762.7646671045527) "><g  event="remove"><circle r="11"></circle><path transform="scale(.8) translate(-16, -16)" d="M24.778,21.419 19.276,15.917 24.777,10.415 21.949,7.585 16.447,13.087 10.945,7.585 8.117,10.415 13.618,15.917 8.116,21.419 10.946,24.248 16.447,18.746 21.948,24.248z"></path><title>Remove link.</title></g><g  event="link:options"><circle r="11" transform="translate(25)"></circle><path fill="white" transform="scale(.55) translate(29, -16)" d="M31.229,17.736c0.064-0.571,0.104-1.148,0.104-1.736s-0.04-1.166-0.104-1.737l-4.377-1.557c-0.218-0.716-0.504-1.401-0.851-2.05l1.993-4.192c-0.725-0.91-1.549-1.734-2.458-2.459l-4.193,1.994c-0.647-0.347-1.334-0.632-2.049-0.849l-1.558-4.378C17.165,0.708,16.588,0.667,16,0.667s-1.166,0.041-1.737,0.105L12.707,5.15c-0.716,0.217-1.401,0.502-2.05,0.849L6.464,4.005C5.554,4.73,4.73,5.554,4.005,6.464l1.994,4.192c-0.347,0.648-0.632,1.334-0.849,2.05l-4.378,1.557C0.708,14.834,0.667,15.412,0.667,16s0.041,1.165,0.105,1.736l4.378,1.558c0.217,0.715,0.502,1.401,0.849,2.049l-1.994,4.193c0.725,0.909,1.549,1.733,2.459,2.458l4.192-1.993c0.648,0.347,1.334,0.633,2.05,0.851l1.557,4.377c0.571,0.064,1.148,0.104,1.737,0.104c0.588,0,1.165-0.04,1.736-0.104l1.558-4.377c0.715-0.218,1.399-0.504,2.049-0.851l4.193,1.993c0.909-0.725,1.733-1.549,2.458-2.458l-1.993-4.193c0.347-0.647,0.633-1.334,0.851-2.049L31.229,17.736zM16,20.871c-2.69,0-4.872-2.182-4.872-4.871c0-2.69,2.182-4.872,4.872-4.872c2.689,0,4.871,2.182,4.871,4.872C20.871,18.689,18.689,20.871,16,20.871z"></path><title>Link options.</title></g></g></g></g><!--z-index:46--><g   id="j_185" ><path  stroke="#707070" d="M 1529 1748 L 1670 1804 C 1676 1806.6666666666665 1682 1806.6666666666665 1688 1804 L 1829 1748" id="v-2522" stroke-width="2" stroke-dasharray="30 30" fill="none"></path><path  fill="black" stroke="black" d="M 0 0 0 0" transform="matrix(0.9284766955435519,0.371390664708372,-0.371390664708372,0.9284766955435519,1529,1748)"></path><path  fill="#707070" stroke="#707070" d="M 20 0 L 0 10 L 20 20 z" id="v-2524" transform="matrix(-0.928476707906966,0.37139063379983406,-0.37139063379983406,-0.928476707906966,1832.7138833780054,1757.2847279285713)"></path><path  d="M 1529 1748 L 1670 1804 C 1676 1806.6666666666665 1682 1806.6666666666665 1688 1804 L 1829 1748" id="v-2523" fill="none" style="pointer-events: visiblepainted; cursor: auto;"></path><g ><g id="v-2513"  label-idx="0" cursor="move" transform="matrix(1,0,0,1,1679,1806)"><rect joint-selector="rect" id="v-2517" fill="#ffffff" rx="3" ry="3" pointer-events="none" width="105.57173156738281" height="25.67651081085205" transform="matrix(1,0,0,1,-52.8,-12.8)"></rect><text joint-selector="text" id="v-2516" font-size="24px" xml:space="preserve" y="0.8em" fill="#707070" text-anchor="middle" pointer-events="none" font-family="Arial" font-weight="normal" transform="matrix(1,0,0,1,0,-10)"><tspan dy="0" >10: Ответ</tspan></text></g><g id="v-2514"  label-idx="1" cursor="move" transform="matrix(1,0,0,1,1679,1832.4000244140625)"><rect joint-selector="rect" id="v-2519" fill="#ffffff" rx="3" ry="3" pointer-events="none" width="115.02848052978516" height="18.34036636352539" transform="matrix(1,0,0,1,-57.5,-9.2)"></rect><text joint-selector="text" id="v-2518" font-size="17px" xml:space="preserve" y="0.8em" fill="#707070" text-anchor="middle" pointer-events="none" font-family="Arial" font-weight="normal" transform="matrix(1,0,0,1,0,-8.1)"><tspan dy="0" >[HTTPS/REST]</tspan></text></g><g id="v-2515"  label-idx="2" cursor="move" transform="matrix(1,0,0,1,1669,1840.800048828125)"><rect joint-selector="rect" id="v-2521" fill="#ffffff" rx="3" ry="3"  width="0" height="0" transform="matrix(1,0,0,1,0,0)" display="none"></rect><text joint-selector="text" id="v-2520" fill="#000000" font-size="14" text-anchor="middle" pointer-events="none"></text></g></g><g  display="none" style="display: none;"><g  transform="translate(1679, 1808)" id="v-2537"><circle  idx="0" r="10"></circle><path  idx="0" d="M16,5.333c-7.732,0-14,4.701-14,10.5c0,1.982,0.741,3.833,2.016,5.414L2,25.667l5.613-1.441c2.339,1.317,5.237,2.107,8.387,2.107c7.732,0,14-4.701,14-10.5C30,10.034,23.732,5.333,16,5.333z" transform="translate(5, -33)"></path><path  idx="0" transform="scale(.8) translate(9.5, -37)" d="M24.778,21.419 19.276,15.917 24.777,10.415 21.949,7.585 16.447,13.087 10.945,7.585 8.117,10.415 13.618,15.917 8.116,21.419 10.946,24.248 16.447,18.746 21.948,24.248z"><title>Remove vertex.</title></path></g></g><g  id="v-2526" display="none"><g  id="v-2511"><path  end="source" d="M 26 0 L 0 13 L 26 26 z"></path></g><g  id="v-2512"><path  end="target" d="M 26 0 L 0 13 L 26 26 z"></path></g></g><g  id="v-2525" display="none"><g  id="v-2510" transform="translate(1566.1753225311058, 1762.7646671045527) "><g  event="remove"><circle r="11"></circle><path transform="scale(.8) translate(-16, -16)" d="M24.778,21.419 19.276,15.917 24.777,10.415 21.949,7.585 16.447,13.087 10.945,7.585 8.117,10.415 13.618,15.917 8.116,21.419 10.946,24.248 16.447,18.746 21.948,24.248z"></path><title>Remove link.</title></g><g  event="link:options"><circle r="11" transform="translate(25)"></circle><path fill="white" transform="scale(.55) translate(29, -16)" d="M31.229,17.736c0.064-0.571,0.104-1.148,0.104-1.736s-0.04-1.166-0.104-1.737l-4.377-1.557c-0.218-0.716-0.504-1.401-0.851-2.05l1.993-4.192c-0.725-0.91-1.549-1.734-2.458-2.459l-4.193,1.994c-0.647-0.347-1.334-0.632-2.049-0.849l-1.558-4.378C17.165,0.708,16.588,0.667,16,0.667s-1.166,0.041-1.737,0.105L12.707,5.15c-0.716,0.217-1.401,0.502-2.05,0.849L6.464,4.005C5.554,4.73,4.73,5.554,4.005,6.464l1.994,4.192c-0.347,0.648-0.632,1.334-0.849,2.05l-4.378,1.557C0.708,14.834,0.667,15.412,0.667,16s0.041,1.165,0.105,1.736l4.378,1.558c0.217,0.715,0.502,1.401,0.849,2.049l-1.994,4.193c0.725,0.909,1.549,1.733,2.459,2.458l4.192-1.993c0.648,0.347,1.334,0.633,2.05,0.851l1.557,4.377c0.571,0.064,1.148,0.104,1.737,0.104c0.588,0,1.165-0.04,1.736-0.104l1.558-4.377c0.715-0.218,1.399-0.504,2.049-0.851l4.193,1.993c0.909-0.725,1.733-1.549,2.458-2.458l-1.993-4.193c0.347-0.647,0.633-1.334,0.851-2.049L31.229,17.736zM16,20.871c-2.69,0-4.872-2.182-4.872-4.871c0-2.69,2.182-4.872,4.872-4.872c2.689,0,4.871,2.182,4.871,4.872C20.871,18.689,18.689,20.871,16,20.871z"></path><title>Link options.</title></g></g></g></g><!--z-index:47--></g><g ></g><g ></g><g ></g></g></svg>