<svg xmlns="http://www.w3.org/2000/svg" xmlns:xlink="http://www.w3.org/1999/xlink" version="1.1" viewBox="0 0 2608 2570" style="background: #ffffff"><defs joint-selector="defs"></defs><g joint-selector="layers"  transform="matrix(1,0,0,1,0,0)"><g ></g><g ><!--z-index:0--><!--z-index:1--><!--z-index:2--><!--z-index:3--><!--z-index:4--><!--z-index:5--><!--z-index:6--><!--z-index:7--><!--z-index:8--><!--z-index:9--><!--z-index:10--><!--z-index:11--><!--z-index:12--><!--z-index:13--><!--z-index:14--><!--z-index:15--><!--z-index:16--><!--z-index:17--><!--z-index:18--><g   id="j_188"  transform="translate(20,2533.6)"><g id="v-2545"><text  id="v-2546" font-size="22px" xml:space="preserve" y="0.8em" font-weight="normal" text-anchor="start" fill="#aaaaaa" pointer-events="none" display="block" font-family="Arial"><tspan dy="0"  display="block">Wednesday, March 4, 2026 at 7:06 PM Moscow Standard Time</tspan></text></g></g><!--z-index:19--><g   id="j_187"  transform="translate(20,2507.2)"><g id="v-2543"><text  id="v-2544" font-size="22px" xml:space="preserve" y="0.8em" font-weight="normal" text-anchor="start" fill="#aaaaaa" pointer-events="none" display="block" font-family="Arial"><tspan dy="0"  display="block">API: Получение всех писем в папке</tspan></text></g></g><!--z-index:20--><g   id="j_186"  transform="translate(20,2464)"><g id="v-2541"><text  id="v-2542" font-size="36px" xml:space="preserve" y="0.8em" font-weight="normal" text-anchor="start" fill="#000000" pointer-events="none" display="block" font-family="Arial"><tspan dy="0"  display="block">[Dynamic] Email Service</tspan></text></g></g><!--z-index:21--><g   id="j_189"  transform="translate(1104,208)" style=""><g  id="v-2550" style="opacity: 1;"><rect  x="0" y="160" width="400" height="240" rx="70" id="v-2552" stroke="#073b6f" stroke-width="2" pointer-events="visiblePainted" fill="#08427b" style="fill: rgb(8, 66, 123); stroke: rgb(7, 59, 111);"></rect><circle  cx="200" cy="88.88888888888889" r="88.88888888888889" id="v-2551" stroke="#073b6f" stroke-width="2" pointer-events="visiblePainted" fill="#08427b" style="fill: rgb(8, 66, 123); stroke: rgb(7, 59, 111);"></circle><line  x1="80" y1="266.6666666666667" x2="80" y2="400" id="v-2558" stroke="#073b6f" stroke-width="2" style="stroke: rgb(7, 59, 111);"></line><line  x1="320" y1="266.6666666666667" x2="320" y2="400" id="v-2559" stroke="#073b6f" stroke-width="2" style="stroke: rgb(7, 59, 111);"></line><text  id="v-2553" font-size="34" xml:space="preserve" y="0.8em" font-weight="bold" text-anchor="middle" pointer-events="visible" font-family="Arial" fill="#ffffff" transform="matrix(1,0,0,1,200,218.1)" style="fill: rgb(255, 255, 255);"><tspan dy="0" >Пользователь</tspan></text><text  id="v-2554" font-size="17" xml:space="preserve" y="0.8em" text-anchor="middle" font-family="Arial" fill="#ffffff" transform="matrix(1,0,0,1,200,258.9)" style="fill: rgb(255, 255, 255);"><tspan dy="0" >[Person]</tspan></text><text  id="v-2555" font-size="24" xml:space="preserve" y="0.8em" text-anchor="middle" font-family="Arial" fill="#ffffff" transform="matrix(1,0,0,1,200,289.3)" style="fill: rgb(255, 255, 255);"><tspan dy="0" >Работает с почтой: папки и</tspan><tspan dy="1.2em" x="0" >письма.</tspan></text><g  id="v-2556" font-weight="normal" text-anchor="middle" color="#ffffff" transform="matrix(1,0,0,1,200,368)" display="none" style="fill: rgb(255, 255, 255);"><g ></g><g ></g><g ></g><g ></g></g><image  id="v-2557"></image></g></g><!--z-index:22--><g   id="j_190"  transform="translate(1829,2062)" style=""><g  id="v-2566" style="opacity: 1;"><rect  id="v-2567" rx="20" ry="20" stroke="#8a8a8a" stroke-width="2" pointer-events="visiblePainted" fill="#999999" width="450" height="300" style="fill: rgb(153, 153, 153); stroke: rgb(138, 138, 138);"></rect><text  id="v-2568" font-size="34" xml:space="preserve" y="0.8em" font-weight="bold" text-anchor="middle" pointer-events="visible" font-family="Arial" fill="#ffffff" transform="matrix(1,0,0,1,225,88.1)" style="fill: rgb(255, 255, 255);"><tspan dy="0" >Identity Provider</tspan></text><text  id="v-2569" font-size="17" xml:space="preserve" y="0.8em" text-anchor="middle" font-family="Arial" fill="#ffffff" transform="matrix(1,0,0,1,225,128.9)" style="fill: rgb(255, 255, 255);"><tspan dy="0" >[Software System]</tspan></text><text  id="v-2570" font-size="24" xml:space="preserve" y="0.8em" text-anchor="middle" font-family="Arial" fill="#ffffff" transform="matrix(1,0,0,1,225,159.3)" style="fill: rgb(255, 255, 255);"><tspan dy="0" >Внешняя аутентификация</tspan><tspan dy="1.2em" x="0" >(OAuth2/OIDC).</tspan></text><g  id="v-2571" color="#ffffff" transform="matrix(1,0,0,1,0,268)" display="none" style="fill: rgb(255, 255, 255);"><g ></g><g ></g><g ></g><g ></g></g><image  id="v-2572"></image></g></g><!--z-index:23--><g   id="j_192"  transform="translate(309,888)" style=""><g id="v-2583"><rect  id="v-2584" width="1990" height="1011" rx="0" ry="0" fill="#ffffff" stroke="#1168bd" stroke-width="1" stroke-dasharray="20,20" pointer-events="none"></rect><text  id="v-2585" font-size="24px" xml:space="preserve" y="972" font-weight="normal" fill="#1168bd" text-anchor="start" pointer-events="visible" font-family="Arial" transform="matrix(1,0,0,1,15,0)"><tspan dy="0" >Email Service</tspan></text><text  id="v-2586" font-size="17px" xml:space="preserve" y="996" font-weight="normal" fill="#1168bd" text-anchor="start" pointer-events="visible" font-family="Arial" transform="matrix(1,0,0,1,15,0)"><tspan dy="0" >[Software System]</tspan></text><image  id="v-2587" pointer-events="visible"></image></g></g><!--z-index:24--><g   id="j_191"  transform="translate(1829,1462)" style=""><g  id="v-2576" style="opacity: 1;"><rect  id="v-2577" rx="20" ry="20" stroke="#3c7fc0" stroke-width="2" pointer-events="visiblePainted" fill="#438dd5" width="450" height="300" style="fill: rgb(67, 141, 213); stroke: rgb(60, 127, 192);"></rect><text  id="v-2578" font-size="34" xml:space="preserve" y="0.8em" font-weight="bold" text-anchor="middle" pointer-events="visible" font-family="Arial" fill="#ffffff" transform="matrix(1,0,0,1,225,88.1)" style="fill: rgb(255, 255, 255);"><tspan dy="0" >Web Client</tspan></text><text  id="v-2579" font-size="17" xml:space="preserve" y="0.8em" text-anchor="middle" font-family="Arial" fill="#ffffff" transform="matrix(1,0,0,1,225,128.9)" style="fill: rgb(255, 255, 255);"><tspan dy="0" >[Container: Web Application]</tspan></text><text  id="v-2580" font-size="24" xml:space="preserve" y="0.8em" text-anchor="middle" font-family="Arial" fill="#ffffff" transform="matrix(1,0,0,1,225,159.3)" style="fill: rgb(255, 255, 255);"><tspan dy="0" >Веб-интерфейс (SPA), вызывает</tspan><tspan dy="1.2em" x="0" >backend API.</tspan></text><g  id="v-2581" color="#ffffff" transform="matrix(1,0,0,1,0,268)" display="none" style="fill: rgb(255, 255, 255);"><g ></g><g ></g><g ></g><g ></g></g><image  id="v-2582"></image></g></g><!--z-index:25--><g   id="j_193"  transform="translate(1079,1508)" style=""><g  id="v-2594" style="opacity: 1;"><rect  id="v-2595" rx="20" ry="20" stroke="#3c7fc0" stroke-width="2" pointer-events="visiblePainted" fill="#438dd5" width="450" height="300" style="fill: rgb(67, 141, 213); stroke: rgb(60, 127, 192);"></rect><text  id="v-2596" font-size="34" xml:space="preserve" y="0.8em" font-weight="bold" text-anchor="middle" pointer-events="visible" font-family="Arial" fill="#ffffff" transform="matrix(1,0,0,1,225,88.1)" style="fill: rgb(255, 255, 255);"><tspan dy="0" >API Gateway</tspan></text><text  id="v-2597" font-size="17" xml:space="preserve" y="0.8em" text-anchor="middle" font-family="Arial" fill="#ffffff" transform="matrix(1,0,0,1,225,128.9)" style="fill: rgb(255, 255, 255);"><tspan dy="0" >[Container: Nginx (Reverse Proxy)]</tspan></text><text  id="v-2598" font-size="24" xml:space="preserve" y="0.8em" text-anchor="middle" font-family="Arial" fill="#ffffff" transform="matrix(1,0,0,1,225,159.3)" style="fill: rgb(255, 255, 255);"><tspan dy="0" >Единая точка входа: TLS, роутинг,</tspan><tspan dy="1.2em" x="0" >rate limit.</tspan></text><g  id="v-2599" color="#ffffff" transform="matrix(1,0,0,1,0,268)" display="none" style="fill: rgb(255, 255, 255);"><g ></g><g ></g><g ></g><g ></g></g><image  id="v-2600"></image></g></g><!--z-index:26--><g   id="j_194"  transform="translate(329,1508)" style=""><g  id="v-2607" style="opacity: 1;"><rect  id="v-2608" rx="20" ry="20" stroke="#3c7fc0" stroke-width="2" pointer-events="visiblePainted" fill="#438dd5" width="450" height="300" style="fill: rgb(67, 141, 213); stroke: rgb(60, 127, 192);"></rect><text  id="v-2609" font-size="34" xml:space="preserve" y="0.8em" font-weight="bold" text-anchor="middle" pointer-events="visible" font-family="Arial" fill="#ffffff" transform="matrix(1,0,0,1,225,102.5)" style="fill: rgb(255, 255, 255);"><tspan dy="0" >Message Service</tspan></text><text  id="v-2610" font-size="17" xml:space="preserve" y="0.8em" text-anchor="middle" font-family="Arial" fill="#ffffff" transform="matrix(1,0,0,1,225,143.3)" style="fill: rgb(255, 255, 255);"><tspan dy="0" >[Container: C++ (Yandex userver), REST API]</tspan></text><text  id="v-2611" font-size="24" xml:space="preserve" y="0.8em" text-anchor="middle" font-family="Arial" fill="#ffffff" transform="matrix(1,0,0,1,225,173.7)" style="fill: rgb(255, 255, 255);"><tspan dy="0" >Создание/получение писем.</tspan></text><g  id="v-2612" color="#ffffff" transform="matrix(1,0,0,1,0,268)" display="none" style="fill: rgb(255, 255, 255);"><g ></g><g ></g><g ></g><g ></g></g><image  id="v-2613"></image></g></g><!--z-index:27--><g   id="j_195"  transform="translate(1079,908)" style=""><g  id="v-2617" style="opacity: 1;"><path  d="M 0,30 a 225,30 0,0,0 450 0 a 225,30 0,0,0 -450 0 l 0,240 a 225,30 0,0,0 450 0 l 0,-240" id="v-2618" stroke="#3c7fc0" stroke-width="2" pointer-events="visiblePainted" fill="#438dd5" style="fill: rgb(67, 141, 213); stroke: rgb(60, 127, 192);"></path><rect  id="v-2619" stroke-width="0" pointer-events="visiblePainted" fill="none" stroke="none" width="450" height="270" x="0" y="30"></rect><text  id="v-2620" font-size="34" xml:space="preserve" y="0.8em" font-weight="bold" text-anchor="middle" pointer-events="visible" font-family="Arial" fill="#ffffff" transform="matrix(1,0,0,1,225,110.6)" style="fill: rgb(255, 255, 255);"><tspan dy="0" >Database</tspan></text><text  id="v-2621" font-size="17" xml:space="preserve" y="0.8em" text-anchor="middle" font-family="Arial" fill="#ffffff" transform="matrix(1,0,0,1,225,151.4)" style="fill: rgb(255, 255, 255);"><tspan dy="0" >[Container: PostgreSQL]</tspan></text><text  id="v-2622" font-size="24" xml:space="preserve" y="0.8em" text-anchor="middle" font-family="Arial" fill="#ffffff" transform="matrix(1,0,0,1,225,181.8)" style="fill: rgb(255, 255, 255);"><tspan dy="0" >Хранит пользователей, папки,</tspan><tspan dy="1.2em" x="0" >сообщения.</tspan></text><g  id="v-2623" font-weight="normal" text-anchor="middle" color="#ffffff" transform="matrix(1,0,0,1,225,268)" display="none" style="fill: rgb(255, 255, 255);"><g ></g><g ></g><g ></g><g ></g></g><image  id="v-2624"></image></g></g><!--z-index:28--><g   id="j_196" ><path  stroke="#707070" d="M 1444 608 L 1523 721 C 1527 726.3333333333333 1530.6666666666665 732 1534 738 L 1965 1462" id="v-2641" stroke-width="2" stroke-dasharray="30 30" fill="none"></path><path  fill="black" stroke="black" d="M 0 0 0 0" transform="matrix(0.5739758615111792,0.8188722186046488,-0.8188722186046488,0.5739758615111792,1444.1868896484375,608)"></path><path  fill="#707070" stroke="#707070" d="M 20 0 L 0 10 L 20 20 z" id="v-2643" transform="matrix(-0.5110559533922023,-0.8595474463357954,0.8595474463357954,-0.5110559533922023,1956.219919054939,1467.110575012905)"></path><path  d="M 1444 608 L 1523 721 C 1527 726.3333333333333 1530.6666666666665 732 1534 738 L 1965 1462" id="v-2642" fill="none" style="pointer-events: visiblepainted; cursor: auto;"></path><g ><g id="v-2632"  label-idx="0" cursor="move" transform="matrix(1,0,0,1,1709.0537109375,1032.0577392578125)"><rect joint-selector="rect" id="v-2636" fill="#ffffff" rx="3" ry="3" pointer-events="none" width="146.5803680419922" height="58.14458656311035" transform="matrix(1,0,0,1,-73.3,-29.1)"></rect><text joint-selector="text" id="v-2635" font-size="24px" xml:space="preserve" y="0.8em" fill="#707070" text-anchor="middle" pointer-events="none" font-family="Arial" font-weight="normal" transform="matrix(1,0,0,1,0,-26.3)"><tspan dy="0" >1: Открывает</tspan><tspan dy="1.2em" x="0" >папку</tspan></text></g><g id="v-2633"  label-idx="1" cursor="move" transform="matrix(1,0,0,1,1709.0537109375,1072.857666015625)"><rect joint-selector="rect" id="v-2638" fill="#ffffff" rx="3" ry="3" pointer-events="none" width="65.05098724365234" height="18.34036636352539" transform="matrix(1,0,0,1,-32.5,-9.2)"></rect><text joint-selector="text" id="v-2637" font-size="17px" xml:space="preserve" y="0.8em" fill="#707070" text-anchor="middle" pointer-events="none" font-family="Arial" font-weight="normal" transform="matrix(1,0,0,1,0,-8.1)"><tspan dy="0" >[HTTPS]</tspan></text></g><g id="v-2634"  label-idx="2" cursor="move" transform="matrix(1,0,0,1,1699.0537109375,1081.2576904296875)"><rect joint-selector="rect" id="v-2640" fill="#ffffff" rx="3" ry="3"  width="0" height="0" transform="matrix(1,0,0,1,0,0)" display="none"></rect><text joint-selector="text" id="v-2639" fill="#000000" font-size="14" text-anchor="middle" pointer-events="none"></text></g></g><g  display="none" style="display: none;"><g  transform="translate(1529, 729)" id="v-2629"><circle  idx="0" r="10"></circle><path  idx="0" d="M16,5.333c-7.732,0-14,4.701-14,10.5c0,1.982,0.741,3.833,2.016,5.414L2,25.667l5.613-1.441c2.339,1.317,5.237,2.107,8.387,2.107c7.732,0,14-4.701,14-10.5C30,10.034,23.732,5.333,16,5.333z" transform="translate(5, -33)"></path><path  idx="0" transform="scale(.8) translate(9.5, -37)" d="M24.778,21.419 19.276,15.917 24.777,10.415 21.949,7.585 16.447,13.087 10.945,7.585 8.117,10.415 13.618,15.917 8.116,21.419 10.946,24.248 16.447,18.746 21.948,24.248z"><title>Remove vertex.</title></path></g></g><g  id="v-2645" display="none"><g  id="v-2630"><path  end="source" d="M 26 0 L 0 13 L 26 26 z"></path></g><g  id="v-2631"><path  end="target" d="M 26 0 L 0 13 L 26 26 z"></path></g></g><g  id="v-2644" display="none"><g  id="v-2628" transform="translate(1466.9190189760793, 640.7829005607209) "><g  event="remove"><circle r="11"></circle><path transform="scale(.8) translate(-16, -16)" d="M24.778,21.419 19.276,15.917 24.777,10.415 21.949,7.585 16.447,13.087 10.945,7.585 8.117,10.415 13.618,15.917 8.116,21.419 10.946,24.248 16.447,18.746 21.948,24.248z"></path><title>Remove link.</title></g><g  event="link:options"><circle r="11" transform="translate(25)"></circle><path fill="white" transform="scale(.55) translate(29, -16)" d="M31.229,17.736c0.064-0.571,0.104-1.148,0.104-1.736s-0.04-1.166-0.104-1.737l-4.377-1.557c-0.218-0.716-0.504-1.401-0.851-2.05l1.993-4.192c-0.725-0.91-1.549-1.734-2.458-2.459l-4.193,1.994c-0.647-0.347-1.334-0.632-2.049-0.849l-1.558-4.378C17.165,0.708,16.588,0.667,16,0.667s-1.166,0.041-1.737,0.105L12.707,5.15c-0.716,0.217-1.401,0.502-2.05,0.849L6.464,4.005C5.554,4.73,4.73,5.554,4.005,6.464l1.994,4.192c-0.347,0.648-0.632,1.334-0.849,2.05l-4.378,1.557C0.708,14.834,0.667,15.412,0.667,16s0.041,1.165,0.105,1.736l4.378,1.558c0.217,0.715,0.502,1.401,0.849,2.049l-1.994,4.193c0.725,0.909,1.549,1.733,2.459,2.458l4.192-1.993c0.648,0.347,1.334,0.633,2.05,0.851l1.557,4.377c0.571,0.064,1.148,0.104,1.737,0.104c0.588,0,1.165-0.04,1.736-0.104l1.558-4.377c0.715-0.218,1.399-0.504,2.049-0.851l4.193,1.993c0.909-0.725,1.733-1.549,2.458-2.458l-1.993-4.193c0.347-0.647,0.633-1.334,0.851-2.049L31.229,17.736zM16,20.871c-2.69,0-4.872-2.182-4.872-4.871c0-2.69,2.182-4.872,4.872-4.872c2.689,0,4.871,2.182,4.871,4.872C20.871,18.689,18.689,20.871,16,20.871z"></path><title>Link options.</title></g></g></g></g><!--z-index:29--><g   id="j_197" ><path  stroke="#707070" d="M 1829 1538 L 1679 1488 C 1672.8781703396444 1486.1875598855052 1666.8781703396444 1486.854226552172 1661 1490 L 1529 1552" id="v-2661" stroke-width="2" stroke-dasharray="30 30" fill="none"></path><path  fill="black" stroke="black" d="M 0 0 0 0" transform="matrix(-0.949674019580117,-0.3132399344504839,0.3132399344504839,-0.949674019580117,1829,1537.7861328125)"></path><path  fill="#707070" stroke="#707070" d="M 20 0 L 0 10 L 20 20 z" id="v-2663" transform="matrix(0.9042758014364534,-0.42694879662139823,0.42694879662139823,0.9042758014364534,1524.7304786287964,1542.724654756537)"></path><path  d="M 1829 1538 L 1679 1488 C 1672.8781703396444 1486.1875598855052 1666.8781703396444 1486.854226552172 1661 1490 L 1529 1552" id="v-2662" fill="none" style="pointer-events: visiblepainted; cursor: auto;"></path><g ><g id="v-2652"  label-idx="0" cursor="move" transform="matrix(1,0,0,1,1675.925537109375,1487.2965087890625)"><rect joint-selector="rect" id="v-2656" fill="#ffffff" rx="3" ry="3" pointer-events="none" width="187.79978942871094" height="112.07651138305664" transform="matrix(1,0,0,1,-93.2,-56)"></rect><text joint-selector="text" id="v-2655" font-size="24px" xml:space="preserve" y="0.8em" fill="#707070" text-anchor="middle" pointer-events="none" font-family="Arial" font-weight="normal" transform="matrix(1,0,0,1,0,-53.2)"><tspan dy="0" >2: GET /api/v1/fol</tspan><tspan dy="1.2em" x="0" >ders/</tspan><tspan dy="1.2em" x="0" >{folderId}/messag</tspan><tspan dy="1.2em" x="0" >es</tspan></text></g><g id="v-2653"  label-idx="1" cursor="move" transform="matrix(1,0,0,1,1675.925537109375,1556.896484375)"><rect joint-selector="rect" id="v-2658" fill="#ffffff" rx="3" ry="3" pointer-events="none" width="115.02848052978516" height="18.34036636352539" transform="matrix(1,0,0,1,-57.5,-9.2)"></rect><text joint-selector="text" id="v-2657" font-size="17px" xml:space="preserve" y="0.8em" fill="#707070" text-anchor="middle" pointer-events="none" font-family="Arial" font-weight="normal" transform="matrix(1,0,0,1,0,-8.1)"><tspan dy="0" >[HTTPS/REST]</tspan></text></g><g id="v-2654"  label-idx="2" cursor="move" transform="matrix(1,0,0,1,1665.925537109375,1565.2965087890625)"><rect joint-selector="rect" id="v-2660" fill="#ffffff" rx="3" ry="3"  width="0" height="0" transform="matrix(1,0,0,1,0,0)" display="none"></rect><text joint-selector="text" id="v-2659" fill="#000000" font-size="14" text-anchor="middle" pointer-events="none"></text></g></g><g  display="none" style="display: none;"><g  transform="translate(1669.8172555094666, 1485.2813398282578)" id="v-2769"><circle  idx="0" r="10"></circle><path  idx="0" d="M16,5.333c-7.732,0-14,4.701-14,10.5c0,1.982,0.741,3.833,2.016,5.414L2,25.667l5.613-1.441c2.339,1.317,5.237,2.107,8.387,2.107c7.732,0,14-4.701,14-10.5C30,10.034,23.732,5.333,16,5.333z" transform="translate(5, -33)"></path><path  idx="0" transform="scale(.8) translate(9.5, -37)" d="M24.778,21.419 19.276,15.917 24.777,10.415 21.949,7.585 16.447,13.087 10.945,7.585 8.117,10.415 13.618,15.917 8.116,21.419 10.946,24.248 16.447,18.746 21.948,24.248z"><title>Remove vertex.</title></path></g></g><g  id="v-2665" display="none"><g  id="v-2650"><path  end="source" d="M 26 0 L 0 13 L 26 26 z"></path></g><g  id="v-2651"><path  end="target" d="M 26 0 L 0 13 L 26 26 z"></path></g></g><g  id="v-2664" display="none"><g  id="v-2649" transform="translate(1791.0526680779794, 1525.3508893593266) "><g  event="remove"><circle r="11"></circle><path transform="scale(.8) translate(-16, -16)" d="M24.778,21.419 19.276,15.917 24.777,10.415 21.949,7.585 16.447,13.087 10.945,7.585 8.117,10.415 13.618,15.917 8.116,21.419 10.946,24.248 16.447,18.746 21.948,24.248z"></path><title>Remove link.</title></g><g  event="link:options"><circle r="11" transform="translate(25)"></circle><path fill="white" transform="scale(.55) translate(29, -16)" d="M31.229,17.736c0.064-0.571,0.104-1.148,0.104-1.736s-0.04-1.166-0.104-1.737l-4.377-1.557c-0.218-0.716-0.504-1.401-0.851-2.05l1.993-4.192c-0.725-0.91-1.549-1.734-2.458-2.459l-4.193,1.994c-0.647-0.347-1.334-0.632-2.049-0.849l-1.558-4.378C17.165,0.708,16.588,0.667,16,0.667s-1.166,0.041-1.737,0.105L12.707,5.15c-0.716,0.217-1.401,0.502-2.05,0.849L6.464,4.005C5.554,4.73,4.73,5.554,4.005,6.464l1.994,4.192c-0.347,0.648-0.632,1.334-0.849,2.05l-4.378,1.557C0.708,14.834,0.667,15.412,0.667,16s0.041,1.165,0.105,1.736l4.378,1.558c0.217,0.715,0.502,1.401,0.849,2.049l-1.994,4.193c0.725,0.909,1.549,1.733,2.459,2.458l4.192-1.993c0.648,0.347,1.334,0.633,2.05,0.851l1.557,4.377c0.571,0.064,1.148,0.104,1.737,0.104c0.588,0,1.165-0.04,1.736-0.104l1.558-4.377c0.715-0.218,1.399-0.504,2.049-0.851l4.193,1.993c0.909-0.725,1.733-1.549,2.458-2.458l-1.993-4.193c0.347-0.647,0.633-1.334,0.851-2.049L31.229,17.736zM16,20.871c-2.69,0-4.872-2.182-4.872-4.871c0-2.69,2.182-4.872,4.872-4.872c2.689,0,4.871,2.182,4.871,4.872C20.871,18.689,18.689,20.871,16,20.871z"></path><title>Link options.</title></g></g></g></g><!--z-index:30--><g   id="j_198" ><path  stroke="#707070" d="M 1507 1808 L 1851 2062" id="v-2681" stroke-width="2" stroke-dasharray="30 30" fill="none"></path><path  fill="black" stroke="black" d="M 0 0 0 0" transform="matrix(0.8043544248290068,0.5941497784717231,-0.5941497784717231,0.8043544248290068,1507.068603515625,1808)"></path><path  fill="#707070" stroke="#707070" d="M 20 0 L 0 10 L 20 20 z" id="v-2683" transform="matrix(-0.8043544643869193,-0.5941497249185866,0.5941497249185866,-0.8043544643869193,1844.9898647774958,2070.043635643055)"></path><path  d="M 1507 1808 L 1851 2062" id="v-2682" fill="none" style="pointer-events: visiblepainted; cursor: auto;"></path><g ><g id="v-2672"  label-idx="0" cursor="move" transform="matrix(1,0,0,1,1679,1935)"><rect joint-selector="rect" id="v-2676" fill="#ffffff" rx="3" ry="3" pointer-events="none" width="135.2887420654297" height="54.47651481628418" transform="matrix(1,0,0,1,-67,-27.2)"></rect><text joint-selector="text" id="v-2675" font-size="24px" xml:space="preserve" y="0.8em" fill="#707070" text-anchor="middle" pointer-events="none" font-family="Arial" font-weight="normal" transform="matrix(1,0,0,1,0,-24.4)"><tspan dy="0" >3: Проверка</tspan><tspan dy="1.2em" x="0" >токена</tspan></text></g><g id="v-2673"  label-idx="1" cursor="move" transform="matrix(1,0,0,1,1679,1975.800048828125)"><rect joint-selector="rect" id="v-2678" fill="#ffffff" rx="3" ry="3" pointer-events="none" width="114.11146545410156" height="18.34036636352539" transform="matrix(1,0,0,1,-57.1,-9.2)"></rect><text joint-selector="text" id="v-2677" font-size="17px" xml:space="preserve" y="0.8em" fill="#707070" text-anchor="middle" pointer-events="none" font-family="Arial" font-weight="normal" transform="matrix(1,0,0,1,0,-8.1)"><tspan dy="0" >[OAuth2/OIDC]</tspan></text></g><g id="v-2674"  label-idx="2" cursor="move" transform="matrix(1,0,0,1,1669,1984.199951171875)"><rect joint-selector="rect" id="v-2680" fill="#ffffff" rx="3" ry="3"  width="0" height="0" transform="matrix(1,0,0,1,0,0)" display="none"></rect><text joint-selector="text" id="v-2679" fill="#000000" font-size="14" text-anchor="middle" pointer-events="none"></text></g></g><g  display="none" style="display: none;"></g><g  id="v-2685" display="none"><g  id="v-2670"><path  end="source" d="M 26 0 L 0 13 L 26 26 z"></path></g><g  id="v-2671"><path  end="target" d="M 26 0 L 0 13 L 26 26 z"></path></g></g><g  id="v-2684" display="none"><g  id="v-2669" transform="translate(1539.1787060424913, 1831.7598585313744) "><g  event="remove"><circle r="11"></circle><path transform="scale(.8) translate(-16, -16)" d="M24.778,21.419 19.276,15.917 24.777,10.415 21.949,7.585 16.447,13.087 10.945,7.585 8.117,10.415 13.618,15.917 8.116,21.419 10.946,24.248 16.447,18.746 21.948,24.248z"></path><title>Remove link.</title></g><g  event="link:options"><circle r="11" transform="translate(25)"></circle><path fill="white" transform="scale(.55) translate(29, -16)" d="M31.229,17.736c0.064-0.571,0.104-1.148,0.104-1.736s-0.04-1.166-0.104-1.737l-4.377-1.557c-0.218-0.716-0.504-1.401-0.851-2.05l1.993-4.192c-0.725-0.91-1.549-1.734-2.458-2.459l-4.193,1.994c-0.647-0.347-1.334-0.632-2.049-0.849l-1.558-4.378C17.165,0.708,16.588,0.667,16,0.667s-1.166,0.041-1.737,0.105L12.707,5.15c-0.716,0.217-1.401,0.502-2.05,0.849L6.464,4.005C5.554,4.73,4.73,5.554,4.005,6.464l1.994,4.192c-0.347,0.648-0.632,1.334-0.849,2.05l-4.378,1.557C0.708,14.834,0.667,15.412,0.667,16s0.041,1.165,0.105,1.736l4.378,1.558c0.217,0.715,0.502,1.401,0.849,2.049l-1.994,4.193c0.725,0.909,1.549,1.733,2.459,2.458l4.192-1.993c0.648,0.347,1.334,0.633,2.05,0.851l1.557,4.377c0.571,0.064,1.148,0.104,1.737,0.104c0.588,0,1.165-0.04,1.736-0.104l1.558-4.377c0.715-0.218,1.399-0.504,2.049-0.851l4.193,1.993c0.909-0.725,1.733-1.549,2.458-2.458l-1.993-4.193c0.347-0.647,0.633-1.334,0.851-2.049L31.229,17.736zM16,20.871c-2.69,0-4.872-2.182-4.872-4.871c0-2.69,2.182-4.872,4.872-4.872c2.689,0,4.871,2.182,4.871,4.872C20.871,18.689,18.689,20.871,16,20.871z"></path><title>Link options.</title></g></g></g></g><!--z-index:31--><g   id="j_199" ><path  stroke="#707070" d="M 1079 1568 L 938 1512 C 931.9999999999999 1509.3333333333333 925.9999999999999 1509.3333333333333 920 1512 L 779 1568" id="v-2701" stroke-width="2" stroke-dasharray="30 30" fill="none"></path><path  fill="black" stroke="black" d="M 0 0 0 0" transform="matrix(-0.928476707906966,-0.3713906337998342,0.3713906337998342,-0.928476707906966,1079,1568)"></path><path  fill="#707070" stroke="#707070" d="M 20 0 L 0 10 L 20 20 z" id="v-2703" transform="matrix(0.9284766089996245,-0.3713908810681253,0.3713908810681253,0.9284766089996245,775.286115138385,1558.715275533185)"></path><path  d="M 1079 1568 L 938 1512 C 931.9999999999999 1509.3333333333333 925.9999999999999 1509.3333333333333 920 1512 L 779 1568" id="v-2702" fill="none" style="pointer-events: visiblepainted; cursor: auto;"></path><g ><g id="v-2692"  label-idx="0" cursor="move" transform="matrix(1,0,0,1,929,1510)"><rect joint-selector="rect" id="v-2696" fill="#ffffff" rx="3" ry="3" pointer-events="none" width="182.99899291992188" height="25.67651081085205" transform="matrix(1,0,0,1,-90.6,-12.8)"></rect><text joint-selector="text" id="v-2695" font-size="24px" xml:space="preserve" y="0.8em" fill="#707070" text-anchor="middle" pointer-events="none" font-family="Arial" font-weight="normal" transform="matrix(1,0,0,1,0,-10)"><tspan dy="0" >4: Список писем</tspan></text></g><g id="v-2693"  label-idx="1" cursor="move" transform="matrix(1,0,0,1,929,1536.4000244140625)"><rect joint-selector="rect" id="v-2698" fill="#ffffff" rx="3" ry="3" pointer-events="none" width="115.02848052978516" height="18.34036636352539" transform="matrix(1,0,0,1,-57.5,-9.2)"></rect><text joint-selector="text" id="v-2697" font-size="17px" xml:space="preserve" y="0.8em" fill="#707070" text-anchor="middle" pointer-events="none" font-family="Arial" font-weight="normal" transform="matrix(1,0,0,1,0,-8.1)"><tspan dy="0" >[HTTPS/REST]</tspan></text></g><g id="v-2694"  label-idx="2" cursor="move" transform="matrix(1,0,0,1,919,1544.800048828125)"><rect joint-selector="rect" id="v-2700" fill="#ffffff" rx="3" ry="3"  width="0" height="0" transform="matrix(1,0,0,1,0,0)" display="none"></rect><text joint-selector="text" id="v-2699" fill="#000000" font-size="14" text-anchor="middle" pointer-events="none"></text></g></g><g  display="none" style="display: none;"><g  transform="translate(929, 1508)" id="v-2771"><circle  idx="0" r="10"></circle><path  idx="0" d="M16,5.333c-7.732,0-14,4.701-14,10.5c0,1.982,0.741,3.833,2.016,5.414L2,25.667l5.613-1.441c2.339,1.317,5.237,2.107,8.387,2.107c7.732,0,14-4.701,14-10.5C30,10.034,23.732,5.333,16,5.333z" transform="translate(5, -33)"></path><path  idx="0" transform="scale(.8) translate(9.5, -37)" d="M24.778,21.419 19.276,15.917 24.777,10.415 21.949,7.585 16.447,13.087 10.945,7.585 8.117,10.415 13.618,15.917 8.116,21.419 10.946,24.248 16.447,18.746 21.948,24.248z"><title>Remove vertex.</title></path></g></g><g  id="v-2705" display="none"><g  id="v-2690"><path  end="source" d="M 26 0 L 0 13 L 26 26 z"></path></g><g  id="v-2691"><path  end="target" d="M 26 0 L 0 13 L 26 26 z"></path></g></g><g  id="v-2704" display="none"><g  id="v-2689" transform="translate(1041.8246774688942, 1553.2353328954473) "><g  event="remove"><circle r="11"></circle><path transform="scale(.8) translate(-16, -16)" d="M24.778,21.419 19.276,15.917 24.777,10.415 21.949,7.585 16.447,13.087 10.945,7.585 8.117,10.415 13.618,15.917 8.116,21.419 10.946,24.248 16.447,18.746 21.948,24.248z"></path><title>Remove link.</title></g><g  event="link:options"><circle r="11" transform="translate(25)"></circle><path fill="white" transform="scale(.55) translate(29, -16)" d="M31.229,17.736c0.064-0.571,0.104-1.148,0.104-1.736s-0.04-1.166-0.104-1.737l-4.377-1.557c-0.218-0.716-0.504-1.401-0.851-2.05l1.993-4.192c-0.725-0.91-1.549-1.734-2.458-2.459l-4.193,1.994c-0.647-0.347-1.334-0.632-2.049-0.849l-1.558-4.378C17.165,0.708,16.588,0.667,16,0.667s-1.166,0.041-1.737,0.105L12.707,5.15c-0.716,0.217-1.401,0.502-2.05,0.849L6.464,4.005C5.554,4.73,4.73,5.554,4.005,6.464l1.994,4.192c-0.347,0.648-0.632,1.334-0.849,2.05l-4.378,1.557C0.708,14.834,0.667,15.412,0.667,16s0.041,1.165,0.105,1.736l4.378,1.558c0.217,0.715,0.502,1.401,0.849,2.049l-1.994,4.193c0.725,0.909,1.549,1.733,2.459,2.458l4.192-1.993c0.648,0.347,1.334,0.633,2.05,0.851l1.557,4.377c0.571,0.064,1.148,0.104,1.737,0.104c0.588,0,1.165-0.04,1.736-0.104l1.558-4.377c0.715-0.218,1.399-0.504,2.049-0.851l4.193,1.993c0.909-0.725,1.733-1.549,2.458-2.458l-1.993-4.193c0.347-0.647,0.633-1.334,0.851-2.049L31.229,17.736zM16,20.871c-2.69,0-4.872-2.182-4.872-4.871c0-2.69,2.182-4.872,4.872-4.872c2.689,0,4.871,2.182,4.871,4.872C20.871,18.689,18.689,20.871,16,20.871z"></path><title>Link options.</title></g></g></g></g><!--z-index:32--><g   id="j_200" ><path  stroke="#707070" d="M 742 1508 L 1117 1208" id="v-2721" stroke-width="2" stroke-dasharray="30 30" fill="none"></path><path  fill="black" stroke="black" d="M 0 0 0 0" transform="matrix(0.7808686753084834,-0.624695215222571,0.624695215222571,0.7808686753084834,741.5,1508)"></path><path  fill="#707070" stroke="#707070" d="M 20 0 L 0 10 L 20 20 z" id="v-2723" transform="matrix(-0.7808688416748546,0.6246950072646418,-0.6246950072646418,-0.7808688416748546,1122.7469226690826,1215.8086865862897)"></path><path  d="M 742 1508 L 1117 1208" id="v-2722" fill="none" style="pointer-events: visiblepainted; cursor: auto;"></path><g ><g id="v-2712"  label-idx="0" cursor="move" transform="matrix(1,0,0,1,929.5,1358)"><rect joint-selector="rect" id="v-2716" fill="#ffffff" rx="3" ry="3" pointer-events="none" width="207.3768768310547" height="83.27651596069336" transform="matrix(1,0,0,1,-102.5,-41.6)"></rect><text joint-selector="text" id="v-2715" font-size="24px" xml:space="preserve" y="0.8em" fill="#707070" text-anchor="middle" pointer-events="none" font-family="Arial" font-weight="normal" transform="matrix(1,0,0,1,0,-38.8)"><tspan dy="0" >5: SELECT</tspan><tspan dy="1.2em" x="0" >messages WHERE</tspan><tspan dy="1.2em" x="0" >folderId=...</tspan></text></g><g id="v-2713"  label-idx="1" cursor="move" transform="matrix(1,0,0,1,929.5,1413.199951171875)"><rect joint-selector="rect" id="v-2718" fill="#ffffff" rx="3" ry="3" pointer-events="none" width="43.38642883300781" height="18.34036636352539" transform="matrix(1,0,0,1,-21.7,-9.2)"></rect><text joint-selector="text" id="v-2717" font-size="17px" xml:space="preserve" y="0.8em" fill="#707070" text-anchor="middle" pointer-events="none" font-family="Arial" font-weight="normal" transform="matrix(1,0,0,1,0,-8.1)"><tspan dy="0" >[SQL]</tspan></text></g><g id="v-2714"  label-idx="2" cursor="move" transform="matrix(1,0,0,1,919.5,1421.5999755859375)"><rect joint-selector="rect" id="v-2720" fill="#ffffff" rx="3" ry="3"  width="0" height="0" transform="matrix(1,0,0,1,0,0)" display="none"></rect><text joint-selector="text" id="v-2719" fill="#000000" font-size="14" text-anchor="middle" pointer-events="none"></text></g></g><g  display="none" style="display: none;"></g><g  id="v-2725" display="none"><g  id="v-2710"><path  end="source" d="M 26 0 L 0 13 L 26 26 z"></path></g><g  id="v-2711"><path  end="target" d="M 26 0 L 0 13 L 26 26 z"></path></g></g><g  id="v-2724" display="none"><g  id="v-2709" transform="translate(773.2347523777212, 1483.012198097823) "><g  event="remove"><circle r="11"></circle><path transform="scale(.8) translate(-16, -16)" d="M24.778,21.419 19.276,15.917 24.777,10.415 21.949,7.585 16.447,13.087 10.945,7.585 8.117,10.415 13.618,15.917 8.116,21.419 10.946,24.248 16.447,18.746 21.948,24.248z"></path><title>Remove link.</title></g><g  event="link:options"><circle r="11" transform="translate(25)"></circle><path fill="white" transform="scale(.55) translate(29, -16)" d="M31.229,17.736c0.064-0.571,0.104-1.148,0.104-1.736s-0.04-1.166-0.104-1.737l-4.377-1.557c-0.218-0.716-0.504-1.401-0.851-2.05l1.993-4.192c-0.725-0.91-1.549-1.734-2.458-2.459l-4.193,1.994c-0.647-0.347-1.334-0.632-2.049-0.849l-1.558-4.378C17.165,0.708,16.588,0.667,16,0.667s-1.166,0.041-1.737,0.105L12.707,5.15c-0.716,0.217-1.401,0.502-2.05,0.849L6.464,4.005C5.554,4.73,4.73,5.554,4.005,6.464l1.994,4.192c-0.347,0.648-0.632,1.334-0.849,2.05l-4.378,1.557C0.708,14.834,0.667,15.412,0.667,16s0.041,1.165,0.105,1.736l4.378,1.558c0.217,0.715,0.502,1.401,0.849,2.049l-1.994,4.193c0.725,0.909,1.549,1.733,2.459,2.458l4.192-1.993c0.648,0.347,1.334,0.633,2.05,0.851l1.557,4.377c0.571,0.064,1.148,0.104,1.737,0.104c0.588,0,1.165-0.04,1.736-0.104l1.558-4.377c0.715-0.218,1.399-0.504,2.049-0.851l4.193,1.993c0.909-0.725,1.733-1.549,2.458-2.458l-1.993-4.193c0.347-0.647,0.633-1.334,0.851-2.049L31.229,17.736zM16,20.871c-2.69,0-4.872-2.182-4.872-4.871c0-2.69,2.182-4.872,4.872-4.872c2.689,0,4.871,2.182,4.871,4.872C20.871,18.689,18.689,20.871,16,20.871z"></path><title>Link options.</title></g></g></g></g><!--z-index:33--><g   id="j_201" ><path  stroke="#707070" d="M 779 1748 L 920 1804 C 925.9999999999999 1806.6666666666665 931.9999999999999 1806.6666666666665 938 1804 L 1079 1748" id="v-2741" stroke-width="2" stroke-dasharray="30 30" fill="none"></path><path  fill="black" stroke="black" d="M 0 0 0 0" transform="matrix(0.9284766955435519,0.371390664708372,-0.371390664708372,0.9284766955435519,779,1748)"></path><path  fill="#707070" stroke="#707070" d="M 20 0 L 0 10 L 20 20 z" id="v-2743" transform="matrix(-0.928476707906966,0.37139063379983406,-0.37139063379983406,-0.928476707906966,1082.7138833780054,1757.2847279285713)"></path><path  d="M 779 1748 L 920 1804 C 925.9999999999999 1806.6666666666665 931.9999999999999 1806.6666666666665 938 1804 L 1079 1748" id="v-2742" fill="none" style="pointer-events: visiblepainted; cursor: auto;"></path><g ><g id="v-2732"  label-idx="0" cursor="move" transform="matrix(1,0,0,1,929,1806)"><rect joint-selector="rect" id="v-2736" fill="#ffffff" rx="3" ry="3" pointer-events="none" width="159.79043579101562" height="29.344584465026855" transform="matrix(1,0,0,1,-79.9,-14.7)"></rect><text joint-selector="text" id="v-2735" font-size="24px" xml:space="preserve" y="0.8em" fill="#707070" text-anchor="middle" pointer-events="none" font-family="Arial" font-weight="normal" transform="matrix(1,0,0,1,0,-11.9)"><tspan dy="0" >6: 200 OK (list)</tspan></text></g><g id="v-2733"  label-idx="1" cursor="move" transform="matrix(1,0,0,1,929,1832.4000244140625)"><rect joint-selector="rect" id="v-2738" fill="#ffffff" rx="3" ry="3" pointer-events="none" width="115.02848052978516" height="18.34036636352539" transform="matrix(1,0,0,1,-57.5,-9.2)"></rect><text joint-selector="text" id="v-2737" font-size="17px" xml:space="preserve" y="0.8em" fill="#707070" text-anchor="middle" pointer-events="none" font-family="Arial" font-weight="normal" transform="matrix(1,0,0,1,0,-8.1)"><tspan dy="0" >[HTTPS/REST]</tspan></text></g><g id="v-2734"  label-idx="2" cursor="move" transform="matrix(1,0,0,1,919,1840.800048828125)"><rect joint-selector="rect" id="v-2740" fill="#ffffff" rx="3" ry="3"  width="0" height="0" transform="matrix(1,0,0,1,0,0)" display="none"></rect><text joint-selector="text" id="v-2739" fill="#000000" font-size="14" text-anchor="middle" pointer-events="none"></text></g></g><g  display="none" style="display: none;"><g  transform="translate(929, 1808)" id="v-2772"><circle  idx="0" r="10"></circle><path  idx="0" d="M16,5.333c-7.732,0-14,4.701-14,10.5c0,1.982,0.741,3.833,2.016,5.414L2,25.667l5.613-1.441c2.339,1.317,5.237,2.107,8.387,2.107c7.732,0,14-4.701,14-10.5C30,10.034,23.732,5.333,16,5.333z" transform="translate(5, -33)"></path><path  idx="0" transform="scale(.8) translate(9.5, -37)" d="M24.778,21.419 19.276,15.917 24.777,10.415 21.949,7.585 16.447,13.087 10.945,7.585 8.117,10.415 13.618,15.917 8.116,21.419 10.946,24.248 16.447,18.746 21.948,24.248z"><title>Remove vertex.</title></path></g></g><g  id="v-2745" display="none"><g  id="v-2730"><path  end="source" d="M 26 0 L 0 13 L 26 26 z"></path></g><g  id="v-2731"><path  end="target" d="M 26 0 L 0 13 L 26 26 z"></path></g></g><g  id="v-2744" display="none"><g  id="v-2729" transform="translate(816.1753225311058, 1762.7646671045527) "><g  event="remove"><circle r="11"></circle><path transform="scale(.8) translate(-16, -16)" d="M24.778,21.419 19.276,15.917 24.777,10.415 21.949,7.585 16.447,13.087 10.945,7.585 8.117,10.415 13.618,15.917 8.116,21.419 10.946,24.248 16.447,18.746 21.948,24.248z"></path><title>Remove link.</title></g><g  event="link:options"><circle r="11" transform="translate(25)"></circle><path fill="white" transform="scale(.55) translate(29, -16)" d="M31.229,17.736c0.064-0.571,0.104-1.148,0.104-1.736s-0.04-1.166-0.104-1.737l-4.377-1.557c-0.218-0.716-0.504-1.401-0.851-2.05l1.993-4.192c-0.725-0.91-1.549-1.734-2.458-2.459l-4.193,1.994c-0.647-0.347-1.334-0.632-2.049-0.849l-1.558-4.378C17.165,0.708,16.588,0.667,16,0.667s-1.166,0.041-1.737,0.105L12.707,5.15c-0.716,0.217-1.401,0.502-2.05,0.849L6.464,4.005C5.554,4.73,4.73,5.554,4.005,6.464l1.994,4.192c-0.347,0.648-0.632,1.334-0.849,2.05l-4.378,1.557C0.708,14.834,0.667,15.412,0.667,16s0.041,1.165,0.105,1.736l4.378,1.558c0.217,0.715,0.502,1.401,0.849,2.049l-1.994,4.193c0.725,0.909,1.549,1.733,2.459,2.458l4.192-1.993c0.648,0.347,1.334,0.633,2.05,0.851l1.557,4.377c0.571,0.064,1.148,0.104,1.737,0.104c0.588,0,1.165-0.04,1.736-0.104l1.558-4.377c0.715-0.218,1.399-0.504,2.049-0.851l4.193,1.993c0.909-0.725,1.733-1.549,2.458-2.458l-1.993-4.193c0.347-0.647,0.633-1.334,0.851-2.049L31.229,17.736zM16,20.871c-2.69,0-4.872-2.182-4.872-4.871c0-2.69,2.182-4.872,4.872-4.872c2.689,0,4.871,2.182,4.871,4.872C20.871,18.689,18.689,20.871,16,20.871z"></path><title>Link options.</title></g></g></g></g><!--z-index:34--><g   id="j_202" ><path  stroke="#707070" d="M 1529 1732 L 1679 1782 C 1685.1218296603556 1783.8124401144946 1691.1218296603556 1783.1457734478279 1697 1780 L 1829 1718" id="v-2758" stroke-width="2" stroke-dasharray="30 30" fill="none"></path><path  fill="black" stroke="black" d="M 0 0 0 0" transform="matrix(0.9496739882972971,0.31324002929304107,-0.31324002929304107,0.9496739882972971,1529,1732.2138671875)"></path><path  fill="#707070" stroke="#707070" d="M 20 0 L 0 10 L 20 20 z" id="v-2760" transform="matrix(-0.904275687733079,0.426949037444596,-0.426949037444596,-0.904275687733079,1833.2695226424019,1727.2753416981973)"></path><path  d="M 1529 1732 L 1679 1782 C 1685.1218296603556 1783.8124401144946 1691.1218296603556 1783.1457734478279 1697 1780 L 1829 1718" id="v-2759" fill="none" style="pointer-events: visiblepainted; cursor: auto;"></path><g ><g id="v-2749"  label-idx="0" cursor="move" transform="matrix(1,0,0,1,1682.074462890625,1782.7034912109375)"><rect joint-selector="rect" id="v-2753" fill="#ffffff" rx="3" ry="3" pointer-events="none" width="92.23237609863281" height="25.67651081085205" transform="matrix(1,0,0,1,-46.1,-12.8)"></rect><text joint-selector="text" id="v-2752" font-size="24px" xml:space="preserve" y="0.8em" fill="#707070" text-anchor="middle" pointer-events="none" font-family="Arial" font-weight="normal" transform="matrix(1,0,0,1,0,-10)"><tspan dy="0" >7: Ответ</tspan></text></g><g id="v-2750"  label-idx="1" cursor="move" transform="matrix(1,0,0,1,1682.074462890625,1809.103515625)"><rect joint-selector="rect" id="v-2755" fill="#ffffff" rx="3" ry="3" pointer-events="none" width="115.02848052978516" height="18.34036636352539" transform="matrix(1,0,0,1,-57.5,-9.2)"></rect><text joint-selector="text" id="v-2754" font-size="17px" xml:space="preserve" y="0.8em" fill="#707070" text-anchor="middle" pointer-events="none" font-family="Arial" font-weight="normal" transform="matrix(1,0,0,1,0,-8.1)"><tspan dy="0" >[HTTPS/REST]</tspan></text></g><g id="v-2751"  label-idx="2" cursor="move" transform="matrix(1,0,0,1,1672.074462890625,1817.50341796875)"><rect joint-selector="rect" id="v-2757" fill="#ffffff" rx="3" ry="3"  width="0" height="0" transform="matrix(1,0,0,1,0,0)" display="none"></rect><text joint-selector="text" id="v-2756" fill="#000000" font-size="14" text-anchor="middle" pointer-events="none"></text></g></g><g  display="none" style="display: none;"><g  transform="translate(1688.1827444905337, 1784.7186601717422)" id="v-2770"><circle  idx="0" r="10"></circle><path  idx="0" d="M16,5.333c-7.732,0-14,4.701-14,10.5c0,1.982,0.741,3.833,2.016,5.414L2,25.667l5.613-1.441c2.339,1.317,5.237,2.107,8.387,2.107c7.732,0,14-4.701,14-10.5C30,10.034,23.732,5.333,16,5.333z" transform="translate(5, -33)"></path><path  idx="0" transform="scale(.8) translate(9.5, -37)" d="M24.778,21.419 19.276,15.917 24.777,10.415 21.949,7.585 16.447,13.087 10.945,7.585 8.117,10.415 13.618,15.917 8.116,21.419 10.946,24.248 16.447,18.746 21.948,24.248z"><title>Remove vertex.</title></path></g></g><g  id="v-2762" display="none"><g  id="v-2747"><path  end="source" d="M 26 0 L 0 13 L 26 26 z"></path></g><g  id="v-2748"><path  end="target" d="M 26 0 L 0 13 L 26 26 z"></path></g></g><g  id="v-2761" display="none"><g  id="v-2746" transform="translate(1566.9473319220206, 1744.6491106406734) "><g  event="remove"><circle r="11"></circle><path transform="scale(.8) translate(-16, -16)" d="M24.778,21.419 19.276,15.917 24.777,10.415 21.949,7.585 16.447,13.087 10.945,7.585 8.117,10.415 13.618,15.917 8.116,21.419 10.946,24.248 16.447,18.746 21.948,24.248z"></path><title>Remove link.</title></g><g  event="link:options"><circle r="11" transform="translate(25)"></circle><path fill="white" transform="scale(.55) translate(29, -16)" d="M31.229,17.736c0.064-0.571,0.104-1.148,0.104-1.736s-0.04-1.166-0.104-1.737l-4.377-1.557c-0.218-0.716-0.504-1.401-0.851-2.05l1.993-4.192c-0.725-0.91-1.549-1.734-2.458-2.459l-4.193,1.994c-0.647-0.347-1.334-0.632-2.049-0.849l-1.558-4.378C17.165,0.708,16.588,0.667,16,0.667s-1.166,0.041-1.737,0.105L12.707,5.15c-0.716,0.217-1.401,0.502-2.05,0.849L6.464,4.005C5.554,4.73,4.73,5.554,4.005,6.464l1.994,4.192c-0.347,0.648-0.632,1.334-0.849,2.05l-4.378,1.557C0.708,14.834,0.667,15.412,0.667,16s0.041,1.165,0.105,1.736l4.378,1.558c0.217,0.715,0.502,1.401,0.849,2.049l-1.994,4.193c0.725,0.909,1.549,1.733,2.459,2.458l4.192-1.993c0.648,0.347,1.334,0.633,2.05,0.851l1.557,4.377c0.571,0.064,1.148,0.104,1.737,0.104c0.588,0,1.165-0.04,1.736-0.104l1.558-4.377c0.715-0.218,1.399-0.504,2.049-0.851l4.193,1.993c0.909-0.725,1.733-1.549,2.458-2.458l-1.993-4.193c0.347-0.647,0.633-1.334,0.851-2.049L31.229,17.736zM16,20.871c-2.69,0-4.872-2.182-4.872-4.871c0-2.69,2.182-4.872,4.872-4.872c2.689,0,4.871,2.182,4.871,4.872C20.871,18.689,18.689,20.871,16,20.871z"></path><title>Link options.</title></g></g></g></g><!--z-index:35--></g><g ></g><g ></g><g ></g></g></svg>