<svg xmlns="http://www.w3.org/2000/svg" xmlns:xlink="http://www.w3.org/1999/xlink" version="1.1" viewBox="0 0 2316 1516" style="background: #ffffff"><defs joint-selector="defs"></defs><g joint-selector="layers"  transform="matrix(1,0,0,1,0,0)"><g ></g><g ><!--z-index:0--><!--z-index:1--><!--z-index:2--><!--z-index:3--><!--z-index:4--><!--z-index:5--><!--z-index:6--><!--z-index:7--><!--z-index:8--><!--z-index:9--><!--z-index:10--><!--z-index:11--><g   id="j_3"  transform="translate(20,1479.6)"><g id="v-7"><text  id="v-8" font-size="22px" xml:space="preserve" y="0.8em" font-weight="normal" text-anchor="start" fill="#aaaaaa" pointer-events="none" display="block" font-family="Arial"><tspan dy="0"  display="block">Thursday, February 12, 2026 at 10:50 PM Moscow Standard Time</tspan></text></g></g><!--z-index:12--><g   id="j_2"  transform="translate(20,1453.1999999999998)"><g id="v-5"><text  id="v-6" font-size="22px" xml:space="preserve" y="0.8em" font-weight="normal" text-anchor="start" fill="#aaaaaa" pointer-events="none" display="block" font-family="Arial"><tspan dy="0"  display="block">System Context</tspan></text></g></g><!--z-index:13--><g   id="j_1"  transform="translate(20,1409.9999999999998)"><g id="v-3"><text  id="v-4" font-size="36px" xml:space="preserve" y="0.8em" font-weight="normal" text-anchor="start" fill="#000000" pointer-events="none" display="block" font-family="Arial"><tspan dy="0"  display="block">[System Context] Почтовый сервис</tspan></text></g></g><!--z-index:14--><g   id="j_4"  transform="translate(208,208)" style=""><g  id="v-12" style="opacity: 1;"><rect  x="0" y="160" width="400" height="240" rx="70" id="v-14" stroke="#073b6f" stroke-width="2" pointer-events="visiblePainted" fill="#08427b" style="fill: rgb(8, 66, 123); stroke: rgb(7, 59, 111);"></rect><circle  cx="200" cy="88.88888888888889" r="88.88888888888889" id="v-13" stroke="#073b6f" stroke-width="2" pointer-events="visiblePainted" fill="#08427b" style="fill: rgb(8, 66, 123); stroke: rgb(7, 59, 111);"></circle><line  x1="80" y1="266.6666666666667" x2="80" y2="400" id="v-20" stroke="#073b6f" stroke-width="2" style="stroke: rgb(7, 59, 111);"></line><line  x1="320" y1="266.6666666666667" x2="320" y2="400" id="v-21" stroke="#073b6f" stroke-width="2" style="stroke: rgb(7, 59, 111);"></line><text  id="v-15" font-size="34" xml:space="preserve" y="0.8em" font-weight="bold" text-anchor="middle" pointer-events="visible" font-family="Arial" fill="#ffffff" transform="matrix(1,0,0,1,200,218.1)" style="fill: rgb(255, 255, 255);"><tspan dy="0" >Пользователь</tspan></text><text  id="v-16" font-size="17" xml:space="preserve" y="0.8em" text-anchor="middle" font-family="Arial" fill="#ffffff" transform="matrix(1,0,0,1,200,258.9)" style="fill: rgb(255, 255, 255);"><tspan dy="0" >[Person]</tspan></text><text  id="v-17" font-size="24" xml:space="preserve" y="0.8em" text-anchor="middle" font-family="Arial" fill="#ffffff" transform="matrix(1,0,0,1,200,289.3)" style="fill: rgb(255, 255, 255);"><tspan dy="0" >Читает и отправляет письма,</tspan><tspan dy="1.2em" x="0" >управляет папками.</tspan></text><g  id="v-18" font-weight="normal" text-anchor="middle" color="#ffffff" transform="matrix(1,0,0,1,200,368)" display="none" style="fill: rgb(255, 255, 255);"><g ></g><g ></g><g ></g><g ></g></g><image  id="v-19"></image></g></g><!--z-index:15--><g   id="j_5"  transform="translate(208,908)" style=""><g  id="v-25" style="opacity: 1;"><rect  x="0" y="160" width="400" height="240" rx="70" id="v-27" stroke="#603990" stroke-width="2" pointer-events="visiblePainted" fill="#6b3fa0" style="fill: rgb(107, 63, 160); stroke: rgb(96, 57, 144);"></rect><circle  cx="200" cy="88.88888888888889" r="88.88888888888889" id="v-26" stroke="#603990" stroke-width="2" pointer-events="visiblePainted" fill="#6b3fa0" style="fill: rgb(107, 63, 160); stroke: rgb(96, 57, 144);"></circle><line  x1="80" y1="266.6666666666667" x2="80" y2="400" id="v-33" stroke="#603990" stroke-width="2" style="stroke: rgb(96, 57, 144);"></line><line  x1="320" y1="266.6666666666667" x2="320" y2="400" id="v-34" stroke="#603990" stroke-width="2" style="stroke: rgb(96, 57, 144);"></line><text  id="v-28" font-size="34" xml:space="preserve" y="0.8em" font-weight="bold" text-anchor="middle" pointer-events="visible" font-family="Arial" fill="#ffffff" transform="matrix(1,0,0,1,200,203.7)" style="fill: rgb(255, 255, 255);"><tspan dy="0" >Администратор</tspan></text><text  id="v-29" font-size="17" xml:space="preserve" y="0.8em" text-anchor="middle" font-family="Arial" fill="#ffffff" transform="matrix(1,0,0,1,200,244.5)" style="fill: rgb(255, 255, 255);"><tspan dy="0" >[Person]</tspan></text><text  id="v-30" font-size="24" xml:space="preserve" y="0.8em" text-anchor="middle" font-family="Arial" fill="#ffffff" transform="matrix(1,0,0,1,200,274.9)" style="fill: rgb(255, 255, 255);"><tspan dy="0" >Поддержка и</tspan><tspan dy="1.2em" x="0" >администрирование сервиса.</tspan><tspan dy="1.2em" x="0" >(Опционально)</tspan></text><g  id="v-31" font-weight="normal" text-anchor="middle" color="#ffffff" transform="matrix(1,0,0,1,200,368)" display="none" style="fill: rgb(255, 255, 255);"><g ></g><g ></g><g ></g><g ></g></g><image  id="v-32"></image></g></g><!--z-index:16--><g   id="j_6"  transform="translate(1658,308)" style=""><g  id="v-41" style="opacity: 1;"><rect  id="v-42" rx="20" ry="20" stroke="#8a8a8a" stroke-width="2" pointer-events="visiblePainted" fill="#999999" width="450" height="300" style="fill: rgb(153, 153, 153); stroke: rgb(138, 138, 138);"></rect><text  id="v-43" font-size="34" xml:space="preserve" y="0.8em" font-weight="bold" text-anchor="middle" pointer-events="visible" font-family="Arial" fill="#ffffff" transform="matrix(1,0,0,1,225,88.1)" style="fill: rgb(255, 255, 255);"><tspan dy="0" >Identity Provider</tspan></text><text  id="v-44" font-size="17" xml:space="preserve" y="0.8em" text-anchor="middle" font-family="Arial" fill="#ffffff" transform="matrix(1,0,0,1,225,128.9)" style="fill: rgb(255, 255, 255);"><tspan dy="0" >[Software System]</tspan></text><text  id="v-45" font-size="24" xml:space="preserve" y="0.8em" text-anchor="middle" font-family="Arial" fill="#ffffff" transform="matrix(1,0,0,1,225,159.3)" style="fill: rgb(255, 255, 255);"><tspan dy="0" >Внешняя аутентификация</tspan><tspan dy="1.2em" x="0" >пользователей (OAuth2/OIDC).</tspan></text><g  id="v-46" color="#ffffff" transform="matrix(1,0,0,1,0,268)" display="none" style="fill: rgb(255, 255, 255);"><g ></g><g ></g><g ></g><g ></g></g><image  id="v-47"></image></g></g><!--z-index:17--><g   id="j_7"  transform="translate(1658,908)" style=""><g  id="v-54" style="opacity: 1;"><rect  id="v-55" rx="20" ry="20" stroke="#8a8a8a" stroke-width="2" pointer-events="visiblePainted" fill="#999999" width="450" height="300" style="fill: rgb(153, 153, 153); stroke: rgb(138, 138, 138);"></rect><text  id="v-56" font-size="34" xml:space="preserve" y="0.8em" font-weight="bold" text-anchor="middle" pointer-events="visible" font-family="Arial" fill="#ffffff" transform="matrix(1,0,0,1,225,88.1)" style="fill: rgb(255, 255, 255);"><tspan dy="0" >External Mail Servers</tspan></text><text  id="v-57" font-size="17" xml:space="preserve" y="0.8em" text-anchor="middle" font-family="Arial" fill="#ffffff" transform="matrix(1,0,0,1,225,128.9)" style="fill: rgb(255, 255, 255);"><tspan dy="0" >[Software System]</tspan></text><text  id="v-58" font-size="24" xml:space="preserve" y="0.8em" text-anchor="middle" font-family="Arial" fill="#ffffff" transform="matrix(1,0,0,1,225,159.3)" style="fill: rgb(255, 255, 255);"><tspan dy="0" >Внешние почтовые</tspan><tspan dy="1.2em" x="0" >серверы/домены (SMTP/IMAP).</tspan></text><g  id="v-59" color="#ffffff" transform="matrix(1,0,0,1,0,268)" display="none" style="fill: rgb(255, 255, 255);"><g ></g><g ></g><g ></g><g ></g></g><image  id="v-60"></image></g></g><!--z-index:18--><g   id="j_8"  transform="translate(908,608)" style=""><g  id="v-64" style="opacity: 1;"><rect  id="v-65" rx="20" ry="20" stroke="#0f5eaa" stroke-width="2" pointer-events="visiblePainted" fill="#1168bd" width="450" height="300" style="fill: rgb(17, 104, 189); stroke: rgb(15, 94, 170);"></rect><text  id="v-66" font-size="34" xml:space="preserve" y="0.8em" font-weight="bold" text-anchor="middle" pointer-events="visible" font-family="Arial" fill="#ffffff" transform="matrix(1,0,0,1,225,73.7)" style="fill: rgb(255, 255, 255);"><tspan dy="0" >Почтовый сервис</tspan></text><text  id="v-67" font-size="17" xml:space="preserve" y="0.8em" text-anchor="middle" font-family="Arial" fill="#ffffff" transform="matrix(1,0,0,1,225,114.5)" style="fill: rgb(255, 255, 255);"><tspan dy="0" >[Software System]</tspan></text><text  id="v-68" font-size="24" xml:space="preserve" y="0.8em" text-anchor="middle" font-family="Arial" fill="#ffffff" transform="matrix(1,0,0,1,225,144.9)" style="fill: rgb(255, 255, 255);"><tspan dy="0" >Backend API для управления</tspan><tspan dy="1.2em" x="0" >пользователями, папками и</tspan><tspan dy="1.2em" x="0" >сообщениями.</tspan></text><g  id="v-69" color="#ffffff" transform="matrix(1,0,0,1,0,268)" display="none" style="fill: rgb(255, 255, 255);"><g ></g><g ></g><g ></g><g ></g></g><image  id="v-70"></image></g></g><!--z-index:19--><g   id="j_9" ><path  stroke="#707070" d="M 608 505 L 908 649" id="v-86" stroke-width="2" stroke-dasharray="30 30" fill="none" style="opacity: 1;"></path><path  fill="black" stroke="black" d="M 0 0 0 0" transform="matrix(0.9005516398598422,0.4347490585909865,-0.4347490585909865,0.9005516398598422,608,504.5517272949219)"></path><path  fill="#707070" stroke="#707070" d="M 20 0 L 0 10 L 20 20 z" id="v-88" transform="matrix(-0.9005515964420836,-0.4347491485277626,0.4347491485277626,-0.9005515964420836,903.6525313150808,658.3848067661047)" style="opacity: 1;"></path><path  d="M 608 505 L 908 649" id="v-87" fill="none" style="pointer-events: visiblepainted; cursor: auto;"></path><g ><g id="v-77"  label-idx="0" cursor="move" transform="matrix(1,0,0,1,758,577)" style="opacity: 1;"><rect joint-selector="rect" id="v-81" fill="#ffffff" rx="3" ry="3" pointer-events="none" width="122.30955505371094" height="58.11645698547363" transform="matrix(1,0,0,1,-60.6,-29.1)"></rect><text joint-selector="text" id="v-80" font-size="24px" xml:space="preserve" y="0.8em" fill="#707070" text-anchor="middle" pointer-events="none" font-family="Arial" font-weight="normal" transform="matrix(1,0,0,1,0,-25.5)"><tspan dy="0" >Работает с</tspan><tspan dy="1.2em" x="0" >почтой</tspan></text></g><g id="v-78"  label-idx="1" cursor="move" transform="matrix(1,0,0,1,758,617.7999877929688)" style="opacity: 1;"><rect joint-selector="rect" id="v-83" fill="#ffffff" rx="3" ry="3" pointer-events="none" width="66.77830505371094" height="19.54430389404297" transform="matrix(1,0,0,1,-32.5,-9.8)"></rect><text joint-selector="text" id="v-82" font-size="17px" xml:space="preserve" y="0.8em" fill="#707070" text-anchor="middle" pointer-events="none" font-family="Arial" font-weight="normal" transform="matrix(1,0,0,1,0,-7.1)"><tspan dy="0" >[HTTPS]</tspan></text></g><g id="v-79"  label-idx="2" cursor="move" transform="matrix(1,0,0,1,748,626.2000122070312)" style="opacity: 1;"><rect joint-selector="rect" id="v-85" fill="#ffffff" rx="3" ry="3"  width="0" height="0" transform="matrix(1,0,0,1,0,0)" display="none"></rect><text joint-selector="text" id="v-84" fill="#000000" font-size="14" text-anchor="middle" pointer-events="none"></text></g></g><g  display="none" style="display: none;"></g><g  id="v-90" display="none"><g  id="v-75"><path  end="source" d="M 26 0 L 0 13 L 26 26 z"></path></g><g  id="v-76"><path  end="target" d="M 26 0 L 0 13 L 26 26 z"></path></g></g><g  id="v-89" display="none"><g  id="v-74" transform="translate(644.0609222987309, 522.3092427033909) "><g  event="remove"><circle r="11"></circle><path transform="scale(.8) translate(-16, -16)" d="M24.778,21.419 19.276,15.917 24.777,10.415 21.949,7.585 16.447,13.087 10.945,7.585 8.117,10.415 13.618,15.917 8.116,21.419 10.946,24.248 16.447,18.746 21.948,24.248z"></path><title>Remove link.</title></g><g  event="link:options"><circle r="11" transform="translate(25)"></circle><path fill="white" transform="scale(.55) translate(29, -16)" d="M31.229,17.736c0.064-0.571,0.104-1.148,0.104-1.736s-0.04-1.166-0.104-1.737l-4.377-1.557c-0.218-0.716-0.504-1.401-0.851-2.05l1.993-4.192c-0.725-0.91-1.549-1.734-2.458-2.459l-4.193,1.994c-0.647-0.347-1.334-0.632-2.049-0.849l-1.558-4.378C17.165,0.708,16.588,0.667,16,0.667s-1.166,0.041-1.737,0.105L12.707,5.15c-0.716,0.217-1.401,0.502-2.05,0.849L6.464,4.005C5.554,4.73,4.73,5.554,4.005,6.464l1.994,4.192c-0.347,0.648-0.632,1.334-0.849,2.05l-4.378,1.557C0.708,14.834,0.667,15.412,0.667,16s0.041,1.165,0.105,1.736l4.378,1.558c0.217,0.715,0.502,1.401,0.849,2.049l-1.994,4.193c0.725,0.909,1.549,1.733,2.459,2.458l4.192-1.993c0.648,0.347,1.334,0.633,2.05,0.851l1.557,4.377c0.571,0.064,1.148,0.104,1.737,0.104c0.588,0,1.165-0.04,1.736-0.104l1.558-4.377c0.715-0.218,1.399-0.504,2.049-0.851l4.193,1.993c0.909-0.725,1.733-1.549,2.458-2.458l-1.993-4.193c0.347-0.647,0.633-1.334,0.851-2.049L31.229,17.736zM16,20.871c-2.69,0-4.872-2.182-4.872-4.871c0-2.69,2.182-4.872,4.872-4.872c2.689,0,4.871,2.182,4.871,4.872C20.871,18.689,18.689,20.871,16,20.871z"></path><title>Link options.</title></g></g></g></g><!--z-index:20--><g   id="j_10" ><path  stroke="#707070" d="M 608 1011 L 908 867" id="v-106" stroke-width="2" stroke-dasharray="30 30" fill="none" style="opacity: 1;"></path><path  fill="black" stroke="black" d="M 0 0 0 0" transform="matrix(0.9005517122227532,-0.4347489086963502,0.4347489086963502,0.9005517122227532,608,1011.4483032226562)"></path><path  fill="#707070" stroke="#707070" d="M 20 0 L 0 10 L 20 20 z" id="v-108" transform="matrix(-0.9005515964420835,0.4347491485277628,-0.4347491485277628,-0.9005515964420835,912.347514285636,875.626225162737)" style="opacity: 1;"></path><path  d="M 608 1011 L 908 867" id="v-107" fill="none" style="pointer-events: visiblepainted; cursor: auto;"></path><g ><g id="v-97"  label-idx="0" cursor="move" transform="matrix(1,0,0,1,758,939)" style="opacity: 1;"><rect joint-selector="rect" id="v-101" fill="#ffffff" rx="3" ry="3" pointer-events="none" width="186.51275634765625" height="58.11645698547363" transform="matrix(1,0,0,1,-92.3,-29.1)"></rect><text joint-selector="text" id="v-100" font-size="24px" xml:space="preserve" y="0.8em" fill="#707070" text-anchor="middle" pointer-events="none" font-family="Arial" font-weight="normal" transform="matrix(1,0,0,1,0,-25.5)"><tspan dy="0" >Администрирует</tspan><tspan dy="1.2em" x="0" >/поддерживает</tspan></text></g><g id="v-98"  label-idx="1" cursor="move" transform="matrix(1,0,0,1,758,979.7999877929688)" style="opacity: 1;"><rect joint-selector="rect" id="v-103" fill="#ffffff" rx="3" ry="3" pointer-events="none" width="66.77830505371094" height="19.54430389404297" transform="matrix(1,0,0,1,-32.5,-9.8)"></rect><text joint-selector="text" id="v-102" font-size="17px" xml:space="preserve" y="0.8em" fill="#707070" text-anchor="middle" pointer-events="none" font-family="Arial" font-weight="normal" transform="matrix(1,0,0,1,0,-7.1)"><tspan dy="0" >[HTTPS]</tspan></text></g><g id="v-99"  label-idx="2" cursor="move" transform="matrix(1,0,0,1,748,988.2000122070312)" style="opacity: 1;"><rect joint-selector="rect" id="v-105" fill="#ffffff" rx="3" ry="3"  width="0" height="0" transform="matrix(1,0,0,1,0,0)" display="none"></rect><text joint-selector="text" id="v-104" fill="#000000" font-size="14" text-anchor="middle" pointer-events="none"></text></g></g><g  display="none" style="display: none;"></g><g  id="v-110" display="none"><g  id="v-95"><path  end="source" d="M 26 0 L 0 13 L 26 26 z"></path></g><g  id="v-96"><path  end="target" d="M 26 0 L 0 13 L 26 26 z"></path></g></g><g  id="v-109" display="none"><g  id="v-94" transform="translate(644.0609222987309, 993.6907572966091) "><g  event="remove"><circle r="11"></circle><path transform="scale(.8) translate(-16, -16)" d="M24.778,21.419 19.276,15.917 24.777,10.415 21.949,7.585 16.447,13.087 10.945,7.585 8.117,10.415 13.618,15.917 8.116,21.419 10.946,24.248 16.447,18.746 21.948,24.248z"></path><title>Remove link.</title></g><g  event="link:options"><circle r="11" transform="translate(25)"></circle><path fill="white" transform="scale(.55) translate(29, -16)" d="M31.229,17.736c0.064-0.571,0.104-1.148,0.104-1.736s-0.04-1.166-0.104-1.737l-4.377-1.557c-0.218-0.716-0.504-1.401-0.851-2.05l1.993-4.192c-0.725-0.91-1.549-1.734-2.458-2.459l-4.193,1.994c-0.647-0.347-1.334-0.632-2.049-0.849l-1.558-4.378C17.165,0.708,16.588,0.667,16,0.667s-1.166,0.041-1.737,0.105L12.707,5.15c-0.716,0.217-1.401,0.502-2.05,0.849L6.464,4.005C5.554,4.73,4.73,5.554,4.005,6.464l1.994,4.192c-0.347,0.648-0.632,1.334-0.849,2.05l-4.378,1.557C0.708,14.834,0.667,15.412,0.667,16s0.041,1.165,0.105,1.736l4.378,1.558c0.217,0.715,0.502,1.401,0.849,2.049l-1.994,4.193c0.725,0.909,1.549,1.733,2.459,2.458l4.192-1.993c0.648,0.347,1.334,0.633,2.05,0.851l1.557,4.377c0.571,0.064,1.148,0.104,1.737,0.104c0.588,0,1.165-0.04,1.736-0.104l1.558-4.377c0.715-0.218,1.399-0.504,2.049-0.851l4.193,1.993c0.909-0.725,1.733-1.549,2.458-2.458l-1.993-4.193c0.347-0.647,0.633-1.334,0.851-2.049L31.229,17.736zM16,20.871c-2.69,0-4.872-2.182-4.872-4.871c0-2.69,2.182-4.872,4.872-4.872c2.689,0,4.871,2.182,4.871,4.872C20.871,18.689,18.689,20.871,16,20.871z"></path><title>Link options.</title></g></g></g></g><!--z-index:21--><g   id="j_11" ><path  stroke="#707070" d="M 1358 668 L 1658 548" id="v-126" stroke-width="2" stroke-dasharray="30 30" fill="none" style="opacity: 1;"></path><path  fill="black" stroke="black" d="M 0 0 0 0" transform="matrix(0.9284766089996245,-0.3713908810681253,0.3713908810681253,0.9284766089996245,1358,668)"></path><path  fill="#707070" stroke="#707070" d="M 20 0 L 0 10 L 20 20 z" id="v-128" transform="matrix(-0.928476707906966,0.37139063379983406,-0.37139063379983406,-0.928476707906966,1661.7138833780054,557.2847889637276)" style="opacity: 1;"></path><path  d="M 1358 668 L 1658 548" id="v-127" fill="none" style="pointer-events: visiblepainted; cursor: auto;"></path><g ><g id="v-117"  label-idx="0" cursor="move" transform="matrix(1,0,0,1,1508,608)" style="opacity: 1;"><rect joint-selector="rect" id="v-121" fill="#ffffff" rx="3" ry="3" pointer-events="none" width="187.7067413330078" height="58.11645698547363" transform="matrix(1,0,0,1,-93.9,-29.1)"></rect><text joint-selector="text" id="v-120" font-size="24px" xml:space="preserve" y="0.8em" fill="#707070" text-anchor="middle" pointer-events="none" font-family="Arial" font-weight="normal" transform="matrix(1,0,0,1,0,-25.5)"><tspan dy="0" >Аутентифицируе</tspan><tspan dy="1.2em" x="0" >т пользователя</tspan></text></g><g id="v-118"  label-idx="1" cursor="move" transform="matrix(1,0,0,1,1508,648.7999877929688)" style="opacity: 1;"><rect joint-selector="rect" id="v-123" fill="#ffffff" rx="3" ry="3" pointer-events="none" width="115.77873229980469" height="19.54430389404297" transform="matrix(1,0,0,1,-57,-9.8)"></rect><text joint-selector="text" id="v-122" font-size="17px" xml:space="preserve" y="0.8em" fill="#707070" text-anchor="middle" pointer-events="none" font-family="Arial" font-weight="normal" transform="matrix(1,0,0,1,0,-7.1)"><tspan dy="0" >[OAuth2/OIDC]</tspan></text></g><g id="v-119"  label-idx="2" cursor="move" transform="matrix(1,0,0,1,1498,657.2000122070312)" style="opacity: 1;"><rect joint-selector="rect" id="v-125" fill="#ffffff" rx="3" ry="3"  width="0" height="0" transform="matrix(1,0,0,1,0,0)" display="none"></rect><text joint-selector="text" id="v-124" fill="#000000" font-size="14" text-anchor="middle" pointer-events="none"></text></g></g><g  display="none" style="display: none;"></g><g  id="v-130" display="none"><g  id="v-115"><path  end="source" d="M 26 0 L 0 13 L 26 26 z"></path></g><g  id="v-116"><path  end="target" d="M 26 0 L 0 13 L 26 26 z"></path></g></g><g  id="v-129" display="none"><g  id="v-114" transform="translate(1395.1390676354104, 653.1443729458358) "><g  event="remove"><circle r="11"></circle><path transform="scale(.8) translate(-16, -16)" d="M24.778,21.419 19.276,15.917 24.777,10.415 21.949,7.585 16.447,13.087 10.945,7.585 8.117,10.415 13.618,15.917 8.116,21.419 10.946,24.248 16.447,18.746 21.948,24.248z"></path><title>Remove link.</title></g><g  event="link:options"><circle r="11" transform="translate(25)"></circle><path fill="white" transform="scale(.55) translate(29, -16)" d="M31.229,17.736c0.064-0.571,0.104-1.148,0.104-1.736s-0.04-1.166-0.104-1.737l-4.377-1.557c-0.218-0.716-0.504-1.401-0.851-2.05l1.993-4.192c-0.725-0.91-1.549-1.734-2.458-2.459l-4.193,1.994c-0.647-0.347-1.334-0.632-2.049-0.849l-1.558-4.378C17.165,0.708,16.588,0.667,16,0.667s-1.166,0.041-1.737,0.105L12.707,5.15c-0.716,0.217-1.401,0.502-2.05,0.849L6.464,4.005C5.554,4.73,4.73,5.554,4.005,6.464l1.994,4.192c-0.347,0.648-0.632,1.334-0.849,2.05l-4.378,1.557C0.708,14.834,0.667,15.412,0.667,16s0.041,1.165,0.105,1.736l4.378,1.558c0.217,0.715,0.502,1.401,0.849,2.049l-1.994,4.193c0.725,0.909,1.549,1.733,2.459,2.458l4.192-1.993c0.648,0.347,1.334,0.633,2.05,0.851l1.557,4.377c0.571,0.064,1.148,0.104,1.737,0.104c0.588,0,1.165-0.04,1.736-0.104l1.558-4.377c0.715-0.218,1.399-0.504,2.049-0.851l4.193,1.993c0.909-0.725,1.733-1.549,2.458-2.458l-1.993-4.193c0.347-0.647,0.633-1.334,0.851-2.049L31.229,17.736zM16,20.871c-2.69,0-4.872-2.182-4.872-4.871c0-2.69,2.182-4.872,4.872-4.872c2.689,0,4.871,2.182,4.871,4.872C20.871,18.689,18.689,20.871,16,20.871z"></path><title>Link options.</title></g></g></g></g><!--z-index:22--><g   id="j_12" ><path  stroke="#707070" d="M 1358 848 L 1658 968" id="v-146" stroke-width="2" stroke-dasharray="30 30" fill="none" style="opacity: 1;"></path><path  fill="black" stroke="black" d="M 0 0 0 0" transform="matrix(0.9284766955435519,0.371390664708372,-0.371390664708372,0.9284766955435519,1358,848)"></path><path  fill="#707070" stroke="#707070" d="M 20 0 L 0 10 L 20 20 z" id="v-148" transform="matrix(-0.928476707906966,-0.3713906337998342,0.3713906337998342,-0.928476707906966,1654.2860707020088,977.2847451944117)" style="opacity: 1;"></path><path  d="M 1358 848 L 1658 968" id="v-147" fill="none" style="pointer-events: visiblepainted; cursor: auto;"></path><g ><g id="v-137"  label-idx="0" cursor="move" transform="matrix(1,0,0,1,1508,908)" style="opacity: 1;"><rect joint-selector="rect" id="v-141" fill="#ffffff" rx="3" ry="3" pointer-events="none" width="191.40570068359375" height="58.11645698547363" transform="matrix(1,0,0,1,-95.2,-29.1)"></rect><text joint-selector="text" id="v-140" font-size="24px" xml:space="preserve" y="0.8em" fill="#707070" text-anchor="middle" pointer-events="none" font-family="Arial" font-weight="normal" transform="matrix(1,0,0,1,0,-25.5)"><tspan dy="0" >Отправляет/полу</tspan><tspan dy="1.2em" x="0" >чает письма</tspan></text></g><g id="v-138"  label-idx="1" cursor="move" transform="matrix(1,0,0,1,1508,948.7999877929688)" style="opacity: 1;"><rect joint-selector="rect" id="v-143" fill="#ffffff" rx="3" ry="3" pointer-events="none" width="104.44916534423828" height="19.54430389404297" transform="matrix(1,0,0,1,-51.3,-9.8)"></rect><text joint-selector="text" id="v-142" font-size="17px" xml:space="preserve" y="0.8em" fill="#707070" text-anchor="middle" pointer-events="none" font-family="Arial" font-weight="normal" transform="matrix(1,0,0,1,0,-7.1)"><tspan dy="0" >[SMTP/IMAP]</tspan></text></g><g id="v-139"  label-idx="2" cursor="move" transform="matrix(1,0,0,1,1498,957.2000122070312)" style="opacity: 1;"><rect joint-selector="rect" id="v-145" fill="#ffffff" rx="3" ry="3"  width="0" height="0" transform="matrix(1,0,0,1,0,0)" display="none"></rect><text joint-selector="text" id="v-144" fill="#000000" font-size="14" text-anchor="middle" pointer-events="none"></text></g></g><g  display="none" style="display: none;"></g><g  id="v-150" display="none"><g  id="v-135"><path  end="source" d="M 26 0 L 0 13 L 26 26 z"></path></g><g  id="v-136"><path  end="target" d="M 26 0 L 0 13 L 26 26 z"></path></g></g><g  id="v-149" display="none"><g  id="v-134" transform="translate(1395.1390676354104, 862.8556270541642) "><g  event="remove"><circle r="11"></circle><path transform="scale(.8) translate(-16, -16)" d="M24.778,21.419 19.276,15.917 24.777,10.415 21.949,7.585 16.447,13.087 10.945,7.585 8.117,10.415 13.618,15.917 8.116,21.419 10.946,24.248 16.447,18.746 21.948,24.248z"></path><title>Remove link.</title></g><g  event="link:options"><circle r="11" transform="translate(25)"></circle><path fill="white" transform="scale(.55) translate(29, -16)" d="M31.229,17.736c0.064-0.571,0.104-1.148,0.104-1.736s-0.04-1.166-0.104-1.737l-4.377-1.557c-0.218-0.716-0.504-1.401-0.851-2.05l1.993-4.192c-0.725-0.91-1.549-1.734-2.458-2.459l-4.193,1.994c-0.647-0.347-1.334-0.632-2.049-0.849l-1.558-4.378C17.165,0.708,16.588,0.667,16,0.667s-1.166,0.041-1.737,0.105L12.707,5.15c-0.716,0.217-1.401,0.502-2.05,0.849L6.464,4.005C5.554,4.73,4.73,5.554,4.005,6.464l1.994,4.192c-0.347,0.648-0.632,1.334-0.849,2.05l-4.378,1.557C0.708,14.834,0.667,15.412,0.667,16s0.041,1.165,0.105,1.736l4.378,1.558c0.217,0.715,0.502,1.401,0.849,2.049l-1.994,4.193c0.725,0.909,1.549,1.733,2.459,2.458l4.192-1.993c0.648,0.347,1.334,0.633,2.05,0.851l1.557,4.377c0.571,0.064,1.148,0.104,1.737,0.104c0.588,0,1.165-0.04,1.736-0.104l1.558-4.377c0.715-0.218,1.399-0.504,2.049-0.851l4.193,1.993c0.909-0.725,1.733-1.549,2.458-2.458l-1.993-4.193c0.347-0.647,0.633-1.334,0.851-2.049L31.229,17.736zM16,20.871c-2.69,0-4.872-2.182-4.872-4.871c0-2.69,2.182-4.872,4.872-4.872c2.689,0,4.871,2.182,4.871,4.872C20.871,18.689,18.689,20.871,16,20.871z"></path><title>Link options.</title></g></g></g></g><!--z-index:23--></g><g ></g><g ></g><g ></g></g></svg>