<svg xmlns="http://www.w3.org/2000/svg" xmlns:xlink="http://www.w3.org/1999/xlink" version="1.1" viewBox="0 0 3920 2054" style="background: #ffffff"><defs joint-selector="defs"></defs><g joint-selector="layers"  transform="matrix(1,0,0,1,0,0)"><g ></g><g ><!--z-index:0--><!--z-index:1--><!--z-index:2--><!--z-index:3--><!--z-index:4--><!--z-index:5--><!--z-index:6--><!--z-index:7--><!--z-index:8--><!--z-index:9--><!--z-index:10--><!--z-index:11--><!--z-index:12--><!--z-index:13--><!--z-index:14--><!--z-index:15--><!--z-index:16--><!--z-index:17--><!--z-index:18--><!--z-index:19--><!--z-index:20--><!--z-index:21--><!--z-index:22--><g   id="j_32"  transform="translate(20,2017.6)"><g id="v-434"><text  id="v-435" font-size="22px" xml:space="preserve" y="0.8em" font-weight="normal" text-anchor="start" fill="#aaaaaa" pointer-events="none" display="block" font-family="Arial"><tspan dy="0"  display="block">Thursday, February 12, 2026 at 10:52 PM Moscow Standard Time</tspan></text></g></g><!--z-index:23--><g   id="j_31"  transform="translate(20,1991.1999999999998)"><g id="v-432"><text  id="v-433" font-size="22px" xml:space="preserve" y="0.8em" font-weight="normal" text-anchor="start" fill="#aaaaaa" pointer-events="none" display="block" font-family="Arial"><tspan dy="0"  display="block">Создание письма и отправка наружу</tspan></text></g></g><!--z-index:24--><g   id="j_30"  transform="translate(20,1947.9999999999998)"><g id="v-430"><text  id="v-431" font-size="36px" xml:space="preserve" y="0.8em" font-weight="normal" text-anchor="start" fill="#000000" pointer-events="none" display="block" font-family="Arial"><tspan dy="0"  display="block">[Dynamic] Почтовый сервис</tspan></text></g></g><!--z-index:25--><g   id="j_33"  transform="translate(208,579)" style=""><g  id="v-439" style="opacity: 1;"><rect  x="0" y="160" width="400" height="240" rx="70" id="v-441" stroke="#073b6f" stroke-width="2" pointer-events="visiblePainted" fill="#08427b" style="fill: rgb(8, 66, 123); stroke: rgb(7, 59, 111);"></rect><circle  cx="200" cy="88.88888888888889" r="88.88888888888889" id="v-440" stroke="#073b6f" stroke-width="2" pointer-events="visiblePainted" fill="#08427b" style="fill: rgb(8, 66, 123); stroke: rgb(7, 59, 111);"></circle><line  x1="80" y1="266.6666666666667" x2="80" y2="400" id="v-447" stroke="#073b6f" stroke-width="2" style="stroke: rgb(7, 59, 111);"></line><line  x1="320" y1="266.6666666666667" x2="320" y2="400" id="v-448" stroke="#073b6f" stroke-width="2" style="stroke: rgb(7, 59, 111);"></line><text  id="v-442" font-size="34" xml:space="preserve" y="0.8em" font-weight="bold" text-anchor="middle" pointer-events="visible" font-family="Arial" fill="#ffffff" transform="matrix(1,0,0,1,200,218.1)" style="fill: rgb(255, 255, 255);"><tspan dy="0" >Пользователь</tspan></text><text  id="v-443" font-size="17" xml:space="preserve" y="0.8em" text-anchor="middle" font-family="Arial" fill="#ffffff" transform="matrix(1,0,0,1,200,258.9)" style="fill: rgb(255, 255, 255);"><tspan dy="0" >[Person]</tspan></text><text  id="v-444" font-size="24" xml:space="preserve" y="0.8em" text-anchor="middle" font-family="Arial" fill="#ffffff" transform="matrix(1,0,0,1,200,289.3)" style="fill: rgb(255, 255, 255);"><tspan dy="0" >Читает и отправляет письма,</tspan><tspan dy="1.2em" x="0" >управляет папками.</tspan></text><g  id="v-445" font-weight="normal" text-anchor="middle" color="#ffffff" transform="matrix(1,0,0,1,200,368)" display="none" style="fill: rgb(255, 255, 255);"><g ></g><g ></g><g ></g><g ></g></g><image  id="v-446"></image></g></g><!--z-index:26--><g   id="j_34"  transform="translate(2408,1529)" style=""><g  id="v-455" style="opacity: 1;"><rect  id="v-456" rx="20" ry="20" stroke="#8a8a8a" stroke-width="2" pointer-events="visiblePainted" fill="#999999" width="450" height="300" style="fill: rgb(153, 153, 153); stroke: rgb(138, 138, 138);"></rect><text  id="v-457" font-size="34" xml:space="preserve" y="0.8em" font-weight="bold" text-anchor="middle" pointer-events="visible" font-family="Arial" fill="#ffffff" transform="matrix(1,0,0,1,225,88.1)" style="fill: rgb(255, 255, 255);"><tspan dy="0" >Identity Provider</tspan></text><text  id="v-458" font-size="17" xml:space="preserve" y="0.8em" text-anchor="middle" font-family="Arial" fill="#ffffff" transform="matrix(1,0,0,1,225,128.9)" style="fill: rgb(255, 255, 255);"><tspan dy="0" >[Software System]</tspan></text><text  id="v-459" font-size="24" xml:space="preserve" y="0.8em" text-anchor="middle" font-family="Arial" fill="#ffffff" transform="matrix(1,0,0,1,225,159.3)" style="fill: rgb(255, 255, 255);"><tspan dy="0" >Внешняя аутентификация</tspan><tspan dy="1.2em" x="0" >пользователей (OAuth2/OIDC).</tspan></text><g  id="v-460" color="#ffffff" transform="matrix(1,0,0,1,0,268)" display="none" style="fill: rgb(255, 255, 255);"><g ></g><g ></g><g ></g><g ></g></g><image  id="v-461"></image></g></g><!--z-index:27--><g   id="j_35"  transform="translate(3158,1529)" style=""><g  id="v-468" style="opacity: 1;"><rect  id="v-469" rx="20" ry="20" stroke="#8a8a8a" stroke-width="2" pointer-events="visiblePainted" fill="#999999" width="450" height="300" style="fill: rgb(153, 153, 153); stroke: rgb(138, 138, 138);"></rect><text  id="v-470" font-size="34" xml:space="preserve" y="0.8em" font-weight="bold" text-anchor="middle" pointer-events="visible" font-family="Arial" fill="#ffffff" transform="matrix(1,0,0,1,225,88.1)" style="fill: rgb(255, 255, 255);"><tspan dy="0" >External Mail Servers</tspan></text><text  id="v-471" font-size="17" xml:space="preserve" y="0.8em" text-anchor="middle" font-family="Arial" fill="#ffffff" transform="matrix(1,0,0,1,225,128.9)" style="fill: rgb(255, 255, 255);"><tspan dy="0" >[Software System]</tspan></text><text  id="v-472" font-size="24" xml:space="preserve" y="0.8em" text-anchor="middle" font-family="Arial" fill="#ffffff" transform="matrix(1,0,0,1,225,159.3)" style="fill: rgb(255, 255, 255);"><tspan dy="0" >Внешние почтовые</tspan><tspan dy="1.2em" x="0" >серверы/домены (SMTP/IMAP).</tspan></text><g  id="v-473" color="#ffffff" transform="matrix(1,0,0,1,0,268)" display="none" style="fill: rgb(255, 255, 255);"><g ></g><g ></g><g ></g><g ></g></g><image  id="v-474"></image></g></g><!--z-index:28--><g   id="j_37"  transform="translate(888,309)" style=""><g id="v-485"><rect  id="v-486" width="2740" height="1011" rx="0" ry="0" fill="#ffffff" stroke="#0f5eaa" stroke-width="1" stroke-dasharray="20,20" pointer-events="none"></rect><text  id="v-487" font-size="24px" xml:space="preserve" y="972" font-weight="normal" fill="#0f5eaa" text-anchor="start" pointer-events="visible" font-family="Arial" transform="matrix(1,0,0,1,15,0)"><tspan dy="0" >Почтовый сервис</tspan></text><text  id="v-488" font-size="17px" xml:space="preserve" y="996" font-weight="normal" fill="#0f5eaa" text-anchor="start" pointer-events="visible" font-family="Arial" transform="matrix(1,0,0,1,15,0)"><tspan dy="0" >[Software System]</tspan></text><image  id="v-489" pointer-events="visible"></image></g></g><!--z-index:29--><g   id="j_36"  transform="translate(908,629)" style=""><g  id="v-478" style="opacity: 1;"><rect  id="v-479" rx="20" ry="20" stroke="#266fc1" stroke-width="2" pointer-events="visiblePainted" fill="#2a7bd6" width="450" height="300" style="fill: rgb(42, 123, 214); stroke: rgb(38, 111, 193);"></rect><text  id="v-480" font-size="34" xml:space="preserve" y="0.8em" font-weight="bold" text-anchor="middle" pointer-events="visible" font-family="Arial" fill="#ffffff" transform="matrix(1,0,0,1,225,88.1)" style="fill: rgb(255, 255, 255);"><tspan dy="0" >Web Client</tspan></text><text  id="v-481" font-size="17" xml:space="preserve" y="0.8em" text-anchor="middle" font-family="Arial" fill="#ffffff" transform="matrix(1,0,0,1,225,128.9)" style="fill: rgb(255, 255, 255);"><tspan dy="0" >[Container: Web Application]</tspan></text><text  id="v-482" font-size="24" xml:space="preserve" y="0.8em" text-anchor="middle" font-family="Arial" fill="#ffffff" transform="matrix(1,0,0,1,225,159.3)" style="fill: rgb(255, 255, 255);"><tspan dy="0" >Веб-интерфейс для работы с</tspan><tspan dy="1.2em" x="0" >почтой.</tspan></text><g  id="v-483" color="#ffffff" transform="matrix(1,0,0,1,0,268)" display="none" style="fill: rgb(255, 255, 255);"><g ></g><g ></g><g ></g><g ></g></g><image  id="v-484"></image></g></g><!--z-index:30--><g   id="j_38"  transform="translate(1658,629)" style=""><g  id="v-496" style="opacity: 1;"><rect  id="v-497" rx="20" ry="20" stroke="#6081a1" stroke-width="2" pointer-events="visiblePainted" fill="#6b8fb3" width="450" height="300" style="fill: rgb(107, 143, 179); stroke: rgb(96, 129, 161);"></rect><text  id="v-498" font-size="34" xml:space="preserve" y="0.8em" font-weight="bold" text-anchor="middle" pointer-events="visible" font-family="Arial" fill="#ffffff" transform="matrix(1,0,0,1,225,73.7)" style="fill: rgb(255, 255, 255);"><tspan dy="0" >API Gateway</tspan></text><text  id="v-499" font-size="17" xml:space="preserve" y="0.8em" text-anchor="middle" font-family="Arial" fill="#ffffff" transform="matrix(1,0,0,1,225,114.5)" style="fill: rgb(255, 255, 255);"><tspan dy="0" >[Container: Nginx (Reverse Proxy)]</tspan></text><text  id="v-500" font-size="24" xml:space="preserve" y="0.8em" text-anchor="middle" font-family="Arial" fill="#ffffff" transform="matrix(1,0,0,1,225,144.9)" style="fill: rgb(255, 255, 255);"><tspan dy="0" >Единая точка входа:</tspan><tspan dy="1.2em" x="0" >маршрутизация, rate-limit, TLS</tspan><tspan dy="1.2em" x="0" >termination.</tspan></text><g  id="v-501" color="#ffffff" transform="matrix(1,0,0,1,0,268)" display="none" style="fill: rgb(255, 255, 255);"><g ></g><g ></g><g ></g><g ></g></g><image  id="v-502"></image></g></g><!--z-index:31--><g   id="j_39"  transform="translate(2408,329)" style=""><g  id="v-509" style="opacity: 1;"><rect  id="v-510" rx="20" ry="20" stroke="#266fc1" stroke-width="2" pointer-events="visiblePainted" fill="#2a7bd6" width="450" height="300" style="fill: rgb(42, 123, 214); stroke: rgb(38, 111, 193);"></rect><text  id="v-511" font-size="34" xml:space="preserve" y="0.8em" font-weight="bold" text-anchor="middle" pointer-events="visible" font-family="Arial" fill="#ffffff" transform="matrix(1,0,0,1,225,102.5)" style="fill: rgb(255, 255, 255);"><tspan dy="0" >Message Service</tspan></text><text  id="v-512" font-size="17" xml:space="preserve" y="0.8em" text-anchor="middle" font-family="Arial" fill="#ffffff" transform="matrix(1,0,0,1,225,143.3)" style="fill: rgb(255, 255, 255);"><tspan dy="0" >[Container: C++ (Yandex userver, REST API)]</tspan></text><text  id="v-513" font-size="24" xml:space="preserve" y="0.8em" text-anchor="middle" font-family="Arial" fill="#ffffff" transform="matrix(1,0,0,1,225,173.7)" style="fill: rgb(255, 255, 255);"><tspan dy="0" >Создание и получение писем.</tspan></text><g  id="v-514" color="#ffffff" transform="matrix(1,0,0,1,0,268)" display="none" style="fill: rgb(255, 255, 255);"><g ></g><g ></g><g ></g><g ></g></g><image  id="v-515"></image></g></g><!--z-index:32--><g   id="j_40"  transform="translate(3158,929)" style=""><g  id="v-519" style="opacity: 1;"><rect  id="v-520" rx="20" ry="20" stroke="#6081a1" stroke-width="2" pointer-events="visiblePainted" fill="#6b8fb3" width="450" height="300" style="fill: rgb(107, 143, 179); stroke: rgb(96, 129, 161);"></rect><text  id="v-521" font-size="34" xml:space="preserve" y="0.8em" font-weight="bold" text-anchor="middle" pointer-events="visible" font-family="Arial" fill="#ffffff" transform="matrix(1,0,0,1,225,88.1)" style="fill: rgb(255, 255, 255);"><tspan dy="0" >Message Broker</tspan></text><text  id="v-522" font-size="17" xml:space="preserve" y="0.8em" text-anchor="middle" font-family="Arial" fill="#ffffff" transform="matrix(1,0,0,1,225,128.9)" style="fill: rgb(255, 255, 255);"><tspan dy="0" >[Container: RabbitMQ (AMQP)]</tspan></text><text  id="v-523" font-size="24" xml:space="preserve" y="0.8em" text-anchor="middle" font-family="Arial" fill="#ffffff" transform="matrix(1,0,0,1,225,159.3)" style="fill: rgb(255, 255, 255);"><tspan dy="0" >Асинхронные события</tspan><tspan dy="1.2em" x="0" >(опционально).</tspan></text><g  id="v-524" color="#ffffff" transform="matrix(1,0,0,1,0,268)" display="none" style="fill: rgb(255, 255, 255);"><g ></g><g ></g><g ></g><g ></g></g><image  id="v-525"></image></g></g><!--z-index:33--><g   id="j_41"  transform="translate(2408,929)" style=""><g  id="v-532" style="opacity: 1;"><rect  id="v-533" rx="20" ry="20" stroke="#6081a1" stroke-width="2" pointer-events="visiblePainted" fill="#6b8fb3" width="450" height="300" style="fill: rgb(107, 143, 179); stroke: rgb(96, 129, 161);"></rect><text  id="v-534" font-size="34" xml:space="preserve" y="0.8em" font-weight="bold" text-anchor="middle" pointer-events="visible" font-family="Arial" fill="#ffffff" transform="matrix(1,0,0,1,225,73.7)" style="fill: rgb(255, 255, 255);"><tspan dy="0" >Mail Gateway</tspan></text><text  id="v-535" font-size="17" xml:space="preserve" y="0.8em" text-anchor="middle" font-family="Arial" fill="#ffffff" transform="matrix(1,0,0,1,225,114.5)" style="fill: rgb(255, 255, 255);"><tspan dy="0" >[Container: C++ (Yandex userver worker)]</tspan></text><text  id="v-536" font-size="24" xml:space="preserve" y="0.8em" text-anchor="middle" font-family="Arial" fill="#ffffff" transform="matrix(1,0,0,1,225,144.9)" style="fill: rgb(255, 255, 255);"><tspan dy="0" >Адаптер для отправки/получения</tspan><tspan dy="1.2em" x="0" >почты через SMTP/IMAP</tspan><tspan dy="1.2em" x="0" >(опционально).</tspan></text><g  id="v-537" color="#ffffff" transform="matrix(1,0,0,1,0,268)" display="none" style="fill: rgb(255, 255, 255);"><g ></g><g ></g><g ></g><g ></g></g><image  id="v-538"></image></g></g><!--z-index:34--><g   id="j_42"  transform="translate(3158,329)" style=""><g  id="v-542" style="opacity: 1;"><path  d="M 0,30 a 225,30 0,0,0 450 0 a 225,30 0,0,0 -450 0 l 0,240 a 225,30 0,0,0 450 0 l 0,-240" id="v-543" stroke="#0a3783" stroke-width="2" pointer-events="visiblePainted" fill="#0b3d91" style="fill: rgb(11, 61, 145); stroke: rgb(10, 55, 131);"></path><rect  id="v-544" stroke-width="0" pointer-events="visiblePainted" fill="none" stroke="none" width="450" height="270" x="0" y="30"></rect><text  id="v-545" font-size="34" xml:space="preserve" y="0.8em" font-weight="bold" text-anchor="middle" pointer-events="visible" font-family="Arial" fill="#ffffff" transform="matrix(1,0,0,1,225,110.6)" style="fill: rgb(255, 255, 255);"><tspan dy="0" >Database</tspan></text><text  id="v-546" font-size="17" xml:space="preserve" y="0.8em" text-anchor="middle" font-family="Arial" fill="#ffffff" transform="matrix(1,0,0,1,225,151.4)" style="fill: rgb(255, 255, 255);"><tspan dy="0" >[Container: PostgreSQL]</tspan></text><text  id="v-547" font-size="24" xml:space="preserve" y="0.8em" text-anchor="middle" font-family="Arial" fill="#ffffff" transform="matrix(1,0,0,1,225,181.8)" style="fill: rgb(255, 255, 255);"><tspan dy="0" >Хранит пользователей, папки,</tspan><tspan dy="1.2em" x="0" >сообщения.</tspan></text><g  id="v-548" font-weight="normal" text-anchor="middle" color="#ffffff" transform="matrix(1,0,0,1,225,268)" display="none" style="fill: rgb(255, 255, 255);"><g ></g><g ></g><g ></g><g ></g></g><image  id="v-549"></image></g></g><!--z-index:35--><g   id="j_43" ><path  stroke="#707070" d="M 608 779 L 908 779" id="v-565" stroke-width="2" stroke-dasharray="30 30" fill="none"></path><path  fill="black" stroke="black" d="M 0 0 0 0" transform="matrix(1,0,0,1,608,779)"></path><path  fill="#707070" stroke="#707070" d="M 20 0 L 0 10 L 20 20 z" id="v-567" transform="matrix(-1,1.2246467991473532e-16,-1.2246467991473532e-16,-1,908,789.0000000000009)"></path><path  d="M 608 779 L 908 779" id="v-566" fill="none" style="pointer-events: visiblepainted; cursor: auto;"></path><g ><g id="v-556"  label-idx="0" cursor="move" transform="matrix(1,0,0,1,758,779)"><rect joint-selector="rect" id="v-560" fill="#ffffff" rx="3" ry="3" pointer-events="none" width="190.37718200683594" height="85.16681289672852" transform="matrix(1,0,0,1,-93.6,-42.6)"></rect><text joint-selector="text" id="v-559" font-size="24px" xml:space="preserve" y="0.8em" fill="#707070" text-anchor="middle" pointer-events="none" font-family="Arial" font-weight="normal" transform="matrix(1,0,0,1,0,-39.7)"><tspan dy="0" >1: Пишет письмо</tspan><tspan dy="1.2em" x="0" >и нажимает</tspan><tspan dy="1.2em" x="0" >Отправить</tspan></text></g><g id="v-557"  label-idx="1" cursor="move" transform="matrix(1,0,0,1,758,834.2000122070312)"><rect joint-selector="rect" id="v-562" fill="#ffffff" rx="3" ry="3" pointer-events="none" width="65.85604095458984" height="22.05344295501709" transform="matrix(1,0,0,1,-32.6,-11)"></rect><text joint-selector="text" id="v-561" font-size="17px" xml:space="preserve" y="0.8em" fill="#707070" text-anchor="middle" pointer-events="none" font-family="Arial" font-weight="normal" transform="matrix(1,0,0,1,0,-8.1)"><tspan dy="0" >[HTTPS]</tspan></text></g><g id="v-558"  label-idx="2" cursor="move" transform="matrix(1,0,0,1,748,842.5999755859375)"><rect joint-selector="rect" id="v-564" fill="#ffffff" rx="3" ry="3"  width="0" height="0" transform="matrix(1,0,0,1,0,0)" display="none"></rect><text joint-selector="text" id="v-563" fill="#000000" font-size="14" text-anchor="middle" pointer-events="none"></text></g></g><g  display="none" style="display: none;"></g><g  id="v-569" display="none"><g  id="v-554"><path  end="source" d="M 26 0 L 0 13 L 26 26 z"></path></g><g  id="v-555"><path  end="target" d="M 26 0 L 0 13 L 26 26 z"></path></g></g><g  id="v-568" display="none"><g  id="v-553" transform="translate(648, 779) "><g  event="remove"><circle r="11"></circle><path transform="scale(.8) translate(-16, -16)" d="M24.778,21.419 19.276,15.917 24.777,10.415 21.949,7.585 16.447,13.087 10.945,7.585 8.117,10.415 13.618,15.917 8.116,21.419 10.946,24.248 16.447,18.746 21.948,24.248z"></path><title>Remove link.</title></g><g  event="link:options"><circle r="11" transform="translate(25)"></circle><path fill="white" transform="scale(.55) translate(29, -16)" d="M31.229,17.736c0.064-0.571,0.104-1.148,0.104-1.736s-0.04-1.166-0.104-1.737l-4.377-1.557c-0.218-0.716-0.504-1.401-0.851-2.05l1.993-4.192c-0.725-0.91-1.549-1.734-2.458-2.459l-4.193,1.994c-0.647-0.347-1.334-0.632-2.049-0.849l-1.558-4.378C17.165,0.708,16.588,0.667,16,0.667s-1.166,0.041-1.737,0.105L12.707,5.15c-0.716,0.217-1.401,0.502-2.05,0.849L6.464,4.005C5.554,4.73,4.73,5.554,4.005,6.464l1.994,4.192c-0.347,0.648-0.632,1.334-0.849,2.05l-4.378,1.557C0.708,14.834,0.667,15.412,0.667,16s0.041,1.165,0.105,1.736l4.378,1.558c0.217,0.715,0.502,1.401,0.849,2.049l-1.994,4.193c0.725,0.909,1.549,1.733,2.459,2.458l4.192-1.993c0.648,0.347,1.334,0.633,2.05,0.851l1.557,4.377c0.571,0.064,1.148,0.104,1.737,0.104c0.588,0,1.165-0.04,1.736-0.104l1.558-4.377c0.715-0.218,1.399-0.504,2.049-0.851l4.193,1.993c0.909-0.725,1.733-1.549,2.458-2.458l-1.993-4.193c0.347-0.647,0.633-1.334,0.851-2.049L31.229,17.736zM16,20.871c-2.69,0-4.872-2.182-4.872-4.871c0-2.69,2.182-4.872,4.872-4.872c2.689,0,4.871,2.182,4.871,4.872C20.871,18.689,18.689,20.871,16,20.871z"></path><title>Link options.</title></g></g></g></g><!--z-index:36--><g   id="j_44" ><path  stroke="#707070" d="M 1358 779 L 1658 779" id="v-585" stroke-width="2" stroke-dasharray="30 30" fill="none"></path><path  fill="black" stroke="black" d="M 0 0 0 0" transform="matrix(1,0,0,1,1358,779)"></path><path  fill="#707070" stroke="#707070" d="M 20 0 L 0 10 L 20 20 z" id="v-587" transform="matrix(-1,1.2246467991473532e-16,-1.2246467991473532e-16,-1,1658,789.0000000000009)"></path><path  d="M 1358 779 L 1658 779" id="v-586" fill="none" style="pointer-events: visiblepainted; cursor: auto;"></path><g ><g id="v-576"  label-idx="0" cursor="move" transform="matrix(1,0,0,1,1508,779)"><rect joint-selector="rect" id="v-580" fill="#ffffff" rx="3" ry="3" pointer-events="none" width="197.18450927734375" height="56.36680221557617" transform="matrix(1,0,0,1,-98.5,-28.2)"></rect><text joint-selector="text" id="v-579" font-size="24px" xml:space="preserve" y="0.8em" fill="#707070" text-anchor="middle" pointer-events="none" font-family="Arial" font-weight="normal" transform="matrix(1,0,0,1,0,-25.3)"><tspan dy="0" >2: POST /folders/{i</tspan><tspan dy="1.2em" x="0" >d}/messages</tspan></text></g><g id="v-577"  label-idx="1" cursor="move" transform="matrix(1,0,0,1,1508,819.7999877929688)"><rect joint-selector="rect" id="v-582" fill="#ffffff" rx="3" ry="3" pointer-events="none" width="115.83223724365234" height="22.05344295501709" transform="matrix(1,0,0,1,-57.5,-11)"></rect><text joint-selector="text" id="v-581" font-size="17px" xml:space="preserve" y="0.8em" fill="#707070" text-anchor="middle" pointer-events="none" font-family="Arial" font-weight="normal" transform="matrix(1,0,0,1,0,-8.1)"><tspan dy="0" >[HTTPS/JSON]</tspan></text></g><g id="v-578"  label-idx="2" cursor="move" transform="matrix(1,0,0,1,1498,828.2000122070312)"><rect joint-selector="rect" id="v-584" fill="#ffffff" rx="3" ry="3"  width="0" height="0" transform="matrix(1,0,0,1,0,0)" display="none"></rect><text joint-selector="text" id="v-583" fill="#000000" font-size="14" text-anchor="middle" pointer-events="none"></text></g></g><g  display="none" style="display: none;"></g><g  id="v-589" display="none"><g  id="v-574"><path  end="source" d="M 26 0 L 0 13 L 26 26 z"></path></g><g  id="v-575"><path  end="target" d="M 26 0 L 0 13 L 26 26 z"></path></g></g><g  id="v-588" display="none"><g  id="v-573" transform="translate(1398, 779) "><g  event="remove"><circle r="11"></circle><path transform="scale(.8) translate(-16, -16)" d="M24.778,21.419 19.276,15.917 24.777,10.415 21.949,7.585 16.447,13.087 10.945,7.585 8.117,10.415 13.618,15.917 8.116,21.419 10.946,24.248 16.447,18.746 21.948,24.248z"></path><title>Remove link.</title></g><g  event="link:options"><circle r="11" transform="translate(25)"></circle><path fill="white" transform="scale(.55) translate(29, -16)" d="M31.229,17.736c0.064-0.571,0.104-1.148,0.104-1.736s-0.04-1.166-0.104-1.737l-4.377-1.557c-0.218-0.716-0.504-1.401-0.851-2.05l1.993-4.192c-0.725-0.91-1.549-1.734-2.458-2.459l-4.193,1.994c-0.647-0.347-1.334-0.632-2.049-0.849l-1.558-4.378C17.165,0.708,16.588,0.667,16,0.667s-1.166,0.041-1.737,0.105L12.707,5.15c-0.716,0.217-1.401,0.502-2.05,0.849L6.464,4.005C5.554,4.73,4.73,5.554,4.005,6.464l1.994,4.192c-0.347,0.648-0.632,1.334-0.849,2.05l-4.378,1.557C0.708,14.834,0.667,15.412,0.667,16s0.041,1.165,0.105,1.736l4.378,1.558c0.217,0.715,0.502,1.401,0.849,2.049l-1.994,4.193c0.725,0.909,1.549,1.733,2.459,2.458l4.192-1.993c0.648,0.347,1.334,0.633,2.05,0.851l1.557,4.377c0.571,0.064,1.148,0.104,1.737,0.104c0.588,0,1.165-0.04,1.736-0.104l1.558-4.377c0.715-0.218,1.399-0.504,2.049-0.851l4.193,1.993c0.909-0.725,1.733-1.549,2.458-2.458l-1.993-4.193c0.347-0.647,0.633-1.334,0.851-2.049L31.229,17.736zM16,20.871c-2.69,0-4.872-2.182-4.872-4.871c0-2.69,2.182-4.872,4.872-4.872c2.689,0,4.871,2.182,4.871,4.872C20.871,18.689,18.689,20.871,16,20.871z"></path><title>Link options.</title></g></g></g></g><!--z-index:37--><g   id="j_45" ><path  stroke="#707070" d="M 2008 929 L 2508 1529" id="v-605" stroke-width="2" stroke-dasharray="30 30" fill="none"></path><path  fill="black" stroke="black" d="M 0 0 0 0" transform="matrix(0.6401844186703123,0.7682212637591818,-0.7682212637591818,0.6401844186703123,2008,929)"></path><path  fill="#707070" stroke="#707070" d="M 20 0 L 0 10 L 20 20 z" id="v-607" transform="matrix(-0.6401844186703125,-0.7682212637591816,0.7682212637591816,-0.6401844186703125,2500.3177760803605,1535.401805847733)"></path><path  d="M 2008 929 L 2508 1529" id="v-606" fill="none" style="pointer-events: visiblepainted; cursor: auto;"></path><g ><g id="v-596"  label-idx="0" cursor="move" transform="matrix(1,0,0,1,2258,1229)"><rect joint-selector="rect" id="v-600" fill="#ffffff" rx="3" ry="3" pointer-events="none" width="154.1981201171875" height="56.36680221557617" transform="matrix(1,0,0,1,-75.3,-28.2)"></rect><text joint-selector="text" id="v-599" font-size="24px" xml:space="preserve" y="0.8em" fill="#707070" text-anchor="middle" pointer-events="none" font-family="Arial" font-weight="normal" transform="matrix(1,0,0,1,0,-25.3)"><tspan dy="0" >3: Валидация</tspan><tspan dy="1.2em" x="0" >access token</tspan></text></g><g id="v-597"  label-idx="1" cursor="move" transform="matrix(1,0,0,1,2258,1269.800048828125)"><rect joint-selector="rect" id="v-602" fill="#ffffff" rx="3" ry="3" pointer-events="none" width="114.92088317871094" height="22.05344295501709" transform="matrix(1,0,0,1,-57.1,-11)"></rect><text joint-selector="text" id="v-601" font-size="17px" xml:space="preserve" y="0.8em" fill="#707070" text-anchor="middle" pointer-events="none" font-family="Arial" font-weight="normal" transform="matrix(1,0,0,1,0,-8.1)"><tspan dy="0" >[OAuth2/OIDC]</tspan></text></g><g id="v-598"  label-idx="2" cursor="move" transform="matrix(1,0,0,1,2248,1278.199951171875)"><rect joint-selector="rect" id="v-604" fill="#ffffff" rx="3" ry="3"  width="0" height="0" transform="matrix(1,0,0,1,0,0)" display="none"></rect><text joint-selector="text" id="v-603" fill="#000000" font-size="14" text-anchor="middle" pointer-events="none"></text></g></g><g  display="none" style="display: none;"></g><g  id="v-609" display="none"><g  id="v-594"><path  end="source" d="M 26 0 L 0 13 L 26 26 z"></path></g><g  id="v-595"><path  end="target" d="M 26 0 L 0 13 L 26 26 z"></path></g></g><g  id="v-608" display="none"><g  id="v-593" transform="translate(2033.6073759865792, 959.728851183895) "><g  event="remove"><circle r="11"></circle><path transform="scale(.8) translate(-16, -16)" d="M24.778,21.419 19.276,15.917 24.777,10.415 21.949,7.585 16.447,13.087 10.945,7.585 8.117,10.415 13.618,15.917 8.116,21.419 10.946,24.248 16.447,18.746 21.948,24.248z"></path><title>Remove link.</title></g><g  event="link:options"><circle r="11" transform="translate(25)"></circle><path fill="white" transform="scale(.55) translate(29, -16)" d="M31.229,17.736c0.064-0.571,0.104-1.148,0.104-1.736s-0.04-1.166-0.104-1.737l-4.377-1.557c-0.218-0.716-0.504-1.401-0.851-2.05l1.993-4.192c-0.725-0.91-1.549-1.734-2.458-2.459l-4.193,1.994c-0.647-0.347-1.334-0.632-2.049-0.849l-1.558-4.378C17.165,0.708,16.588,0.667,16,0.667s-1.166,0.041-1.737,0.105L12.707,5.15c-0.716,0.217-1.401,0.502-2.05,0.849L6.464,4.005C5.554,4.73,4.73,5.554,4.005,6.464l1.994,4.192c-0.347,0.648-0.632,1.334-0.849,2.05l-4.378,1.557C0.708,14.834,0.667,15.412,0.667,16s0.041,1.165,0.105,1.736l4.378,1.558c0.217,0.715,0.502,1.401,0.849,2.049l-1.994,4.193c0.725,0.909,1.549,1.733,2.459,2.458l4.192-1.993c0.648,0.347,1.334,0.633,2.05,0.851l1.557,4.377c0.571,0.064,1.148,0.104,1.737,0.104c0.588,0,1.165-0.04,1.736-0.104l1.558-4.377c0.715-0.218,1.399-0.504,2.049-0.851l4.193,1.993c0.909-0.725,1.733-1.549,2.458-2.458l-1.993-4.193c0.347-0.647,0.633-1.334,0.851-2.049L31.229,17.736zM16,20.871c-2.69,0-4.872-2.182-4.872-4.871c0-2.69,2.182-4.872,4.872-4.872c2.689,0,4.871,2.182,4.871,4.872C20.871,18.689,18.689,20.871,16,20.871z"></path><title>Link options.</title></g></g></g></g><!--z-index:38--><g   id="j_46" ><path  stroke="#707070" d="M 2108 689 L 2408 569" id="v-625" stroke-width="2" stroke-dasharray="30 30" fill="none"></path><path  fill="black" stroke="black" d="M 0 0 0 0" transform="matrix(0.9284766089996245,-0.3713908810681253,0.3713908810681253,0.9284766089996245,2108,689)"></path><path  fill="#707070" stroke="#707070" d="M 20 0 L 0 10 L 20 20 z" id="v-627" transform="matrix(-0.928476707906966,0.37139063379983406,-0.37139063379983406,-0.928476707906966,2411.7140054483184,578.2847889637284)"></path><path  d="M 2108 689 L 2408 569" id="v-626" fill="none" style="pointer-events: visiblepainted; cursor: auto;"></path><g ><g id="v-616"  label-idx="0" cursor="move" transform="matrix(1,0,0,1,2258,629)"><rect joint-selector="rect" id="v-620" fill="#ffffff" rx="3" ry="3" pointer-events="none" width="173.15399169921875" height="56.36680221557617" transform="matrix(1,0,0,1,-85,-28.2)"></rect><text joint-selector="text" id="v-619" font-size="24px" xml:space="preserve" y="0.8em" fill="#707070" text-anchor="middle" pointer-events="none" font-family="Arial" font-weight="normal" transform="matrix(1,0,0,1,0,-25.3)"><tspan dy="0" >4: Создать</tspan><tspan dy="1.2em" x="0" >письмо в папке</tspan></text></g><g id="v-617"  label-idx="1" cursor="move" transform="matrix(1,0,0,1,2258,669.7999877929688)"><rect joint-selector="rect" id="v-622" fill="#ffffff" rx="3" ry="3" pointer-events="none" width="115.83223724365234" height="22.05344295501709" transform="matrix(1,0,0,1,-57.5,-11)"></rect><text joint-selector="text" id="v-621" font-size="17px" xml:space="preserve" y="0.8em" fill="#707070" text-anchor="middle" pointer-events="none" font-family="Arial" font-weight="normal" transform="matrix(1,0,0,1,0,-8.1)"><tspan dy="0" >[HTTPS/JSON]</tspan></text></g><g id="v-618"  label-idx="2" cursor="move" transform="matrix(1,0,0,1,2248,678.2000122070312)"><rect joint-selector="rect" id="v-624" fill="#ffffff" rx="3" ry="3"  width="0" height="0" transform="matrix(1,0,0,1,0,0)" display="none"></rect><text joint-selector="text" id="v-623" fill="#000000" font-size="14" text-anchor="middle" pointer-events="none"></text></g></g><g  display="none" style="display: none;"></g><g  id="v-629" display="none"><g  id="v-614"><path  end="source" d="M 26 0 L 0 13 L 26 26 z"></path></g><g  id="v-615"><path  end="target" d="M 26 0 L 0 13 L 26 26 z"></path></g></g><g  id="v-628" display="none"><g  id="v-613" transform="translate(2145.1390676354104, 674.1443729458358) "><g  event="remove"><circle r="11"></circle><path transform="scale(.8) translate(-16, -16)" d="M24.778,21.419 19.276,15.917 24.777,10.415 21.949,7.585 16.447,13.087 10.945,7.585 8.117,10.415 13.618,15.917 8.116,21.419 10.946,24.248 16.447,18.746 21.948,24.248z"></path><title>Remove link.</title></g><g  event="link:options"><circle r="11" transform="translate(25)"></circle><path fill="white" transform="scale(.55) translate(29, -16)" d="M31.229,17.736c0.064-0.571,0.104-1.148,0.104-1.736s-0.04-1.166-0.104-1.737l-4.377-1.557c-0.218-0.716-0.504-1.401-0.851-2.05l1.993-4.192c-0.725-0.91-1.549-1.734-2.458-2.459l-4.193,1.994c-0.647-0.347-1.334-0.632-2.049-0.849l-1.558-4.378C17.165,0.708,16.588,0.667,16,0.667s-1.166,0.041-1.737,0.105L12.707,5.15c-0.716,0.217-1.401,0.502-2.05,0.849L6.464,4.005C5.554,4.73,4.73,5.554,4.005,6.464l1.994,4.192c-0.347,0.648-0.632,1.334-0.849,2.05l-4.378,1.557C0.708,14.834,0.667,15.412,0.667,16s0.041,1.165,0.105,1.736l4.378,1.558c0.217,0.715,0.502,1.401,0.849,2.049l-1.994,4.193c0.725,0.909,1.549,1.733,2.459,2.458l4.192-1.993c0.648,0.347,1.334,0.633,2.05,0.851l1.557,4.377c0.571,0.064,1.148,0.104,1.737,0.104c0.588,0,1.165-0.04,1.736-0.104l1.558-4.377c0.715-0.218,1.399-0.504,2.049-0.851l4.193,1.993c0.909-0.725,1.733-1.549,2.458-2.458l-1.993-4.193c0.347-0.647,0.633-1.334,0.851-2.049L31.229,17.736zM16,20.871c-2.69,0-4.872-2.182-4.872-4.871c0-2.69,2.182-4.872,4.872-4.872c2.689,0,4.871,2.182,4.871,4.872C20.871,18.689,18.689,20.871,16,20.871z"></path><title>Link options.</title></g></g></g></g><!--z-index:39--><g   id="j_47" ><path  stroke="#707070" d="M 2858 479 L 3158 479" id="v-645" stroke-width="2" stroke-dasharray="30 30" fill="none"></path><path  fill="black" stroke="black" d="M 0 0 0 0" transform="matrix(1,0,0,1,2858,479)"></path><path  fill="#707070" stroke="#707070" d="M 20 0 L 0 10 L 20 20 z" id="v-647" transform="matrix(-1,1.2246467991473532e-16,-1.2246467991473532e-16,-1,3158,489.0000000000009)"></path><path  d="M 2858 479 L 3158 479" id="v-646" fill="none" style="pointer-events: visiblepainted; cursor: auto;"></path><g ><g id="v-636"  label-idx="0" cursor="move" transform="matrix(1,0,0,1,3008,479)"><rect joint-selector="rect" id="v-640" fill="#ffffff" rx="3" ry="3" pointer-events="none" width="149.69561767578125" height="56.36680221557617" transform="matrix(1,0,0,1,-72.8,-28.2)"></rect><text joint-selector="text" id="v-639" font-size="24px" xml:space="preserve" y="0.8em" fill="#707070" text-anchor="middle" pointer-events="none" font-family="Arial" font-weight="normal" transform="matrix(1,0,0,1,0,-25.3)"><tspan dy="0" >5: Сохранить</tspan><tspan dy="1.2em" x="0" >письмо</tspan></text></g><g id="v-637"  label-idx="1" cursor="move" transform="matrix(1,0,0,1,3008,519.7999877929688)"><rect joint-selector="rect" id="v-642" fill="#ffffff" rx="3" ry="3" pointer-events="none" width="167.76422119140625" height="22.05344295501709" transform="matrix(1,0,0,1,-83.5,-11)"></rect><text joint-selector="text" id="v-641" font-size="17px" xml:space="preserve" y="0.8em" fill="#707070" text-anchor="middle" pointer-events="none" font-family="Arial" font-weight="normal" transform="matrix(1,0,0,1,0,-8.1)"><tspan dy="0" >[PostgreSQL protocol]</tspan></text></g><g id="v-638"  label-idx="2" cursor="move" transform="matrix(1,0,0,1,2998,528.2000122070312)"><rect joint-selector="rect" id="v-644" fill="#ffffff" rx="3" ry="3"  width="0" height="0" transform="matrix(1,0,0,1,0,0)" display="none"></rect><text joint-selector="text" id="v-643" fill="#000000" font-size="14" text-anchor="middle" pointer-events="none"></text></g></g><g  display="none" style="display: none;"></g><g  id="v-649" display="none"><g  id="v-634"><path  end="source" d="M 26 0 L 0 13 L 26 26 z"></path></g><g  id="v-635"><path  end="target" d="M 26 0 L 0 13 L 26 26 z"></path></g></g><g  id="v-648" display="none"><g  id="v-633" transform="translate(2898, 479) "><g  event="remove"><circle r="11"></circle><path transform="scale(.8) translate(-16, -16)" d="M24.778,21.419 19.276,15.917 24.777,10.415 21.949,7.585 16.447,13.087 10.945,7.585 8.117,10.415 13.618,15.917 8.116,21.419 10.946,24.248 16.447,18.746 21.948,24.248z"></path><title>Remove link.</title></g><g  event="link:options"><circle r="11" transform="translate(25)"></circle><path fill="white" transform="scale(.55) translate(29, -16)" d="M31.229,17.736c0.064-0.571,0.104-1.148,0.104-1.736s-0.04-1.166-0.104-1.737l-4.377-1.557c-0.218-0.716-0.504-1.401-0.851-2.05l1.993-4.192c-0.725-0.91-1.549-1.734-2.458-2.459l-4.193,1.994c-0.647-0.347-1.334-0.632-2.049-0.849l-1.558-4.378C17.165,0.708,16.588,0.667,16,0.667s-1.166,0.041-1.737,0.105L12.707,5.15c-0.716,0.217-1.401,0.502-2.05,0.849L6.464,4.005C5.554,4.73,4.73,5.554,4.005,6.464l1.994,4.192c-0.347,0.648-0.632,1.334-0.849,2.05l-4.378,1.557C0.708,14.834,0.667,15.412,0.667,16s0.041,1.165,0.105,1.736l4.378,1.558c0.217,0.715,0.502,1.401,0.849,2.049l-1.994,4.193c0.725,0.909,1.549,1.733,2.459,2.458l4.192-1.993c0.648,0.347,1.334,0.633,2.05,0.851l1.557,4.377c0.571,0.064,1.148,0.104,1.737,0.104c0.588,0,1.165-0.04,1.736-0.104l1.558-4.377c0.715-0.218,1.399-0.504,2.049-0.851l4.193,1.993c0.909-0.725,1.733-1.549,2.458-2.458l-1.993-4.193c0.347-0.647,0.633-1.334,0.851-2.049L31.229,17.736zM16,20.871c-2.69,0-4.872-2.182-4.872-4.871c0-2.69,2.182-4.872,4.872-4.872c2.689,0,4.871,2.182,4.871,4.872C20.871,18.689,18.689,20.871,16,20.871z"></path><title>Link options.</title></g></g></g></g><!--z-index:40--><g   id="j_48" ><path  stroke="#707070" d="M 2821 629 L 3196 929" id="v-665" stroke-width="2" stroke-dasharray="30 30" fill="none"></path><path  fill="black" stroke="black" d="M 0 0 0 0" transform="matrix(0.7808688000832672,0.624695059254128,-0.624695059254128,0.7808688000832672,2820.5,629)"></path><path  fill="#707070" stroke="#707070" d="M 20 0 L 0 10 L 20 20 z" id="v-667" transform="matrix(-0.7808688416748548,-0.6246950072646416,0.6246950072646416,-0.7808688416748548,3189.2531445941017,936.8086902472081)"></path><path  d="M 2821 629 L 3196 929" id="v-666" fill="none" style="pointer-events: visiblepainted; cursor: auto;"></path><g ><g id="v-656"  label-idx="0" cursor="move" transform="matrix(1,0,0,1,3008.5,779)"><rect joint-selector="rect" id="v-660" fill="#ffffff" rx="3" ry="3" pointer-events="none" width="187.27769470214844" height="85.16681289672852" transform="matrix(1,0,0,1,-91.6,-42.6)"></rect><text joint-selector="text" id="v-659" font-size="24px" xml:space="preserve" y="0.8em" fill="#707070" text-anchor="middle" pointer-events="none" font-family="Arial" font-weight="normal" transform="matrix(1,0,0,1,0,-39.7)"><tspan dy="0" >6: Опубликовать</tspan><tspan dy="1.2em" x="0" >событие</tspan><tspan dy="1.2em" x="0" >MessageCreated</tspan></text></g><g id="v-657"  label-idx="1" cursor="move" transform="matrix(1,0,0,1,3008.5,834.2000122070312)"><rect joint-selector="rect" id="v-662" fill="#ffffff" rx="3" ry="3" pointer-events="none" width="60.20454406738281" height="22.05344295501709" transform="matrix(1,0,0,1,-29.7,-11)"></rect><text joint-selector="text" id="v-661" font-size="17px" xml:space="preserve" y="0.8em" fill="#707070" text-anchor="middle" pointer-events="none" font-family="Arial" font-weight="normal" transform="matrix(1,0,0,1,0,-8.1)"><tspan dy="0" >[AMQP]</tspan></text></g><g id="v-658"  label-idx="2" cursor="move" transform="matrix(1,0,0,1,2998.5,842.5999755859375)"><rect joint-selector="rect" id="v-664" fill="#ffffff" rx="3" ry="3"  width="0" height="0" transform="matrix(1,0,0,1,0,0)" display="none"></rect><text joint-selector="text" id="v-663" fill="#000000" font-size="14" text-anchor="middle" pointer-events="none"></text></g></g><g  display="none" style="display: none;"></g><g  id="v-669" display="none"><g  id="v-654"><path  end="source" d="M 26 0 L 0 13 L 26 26 z"></path></g><g  id="v-655"><path  end="target" d="M 26 0 L 0 13 L 26 26 z"></path></g></g><g  id="v-668" display="none"><g  id="v-653" transform="translate(2852.2347523777216, 653.987801902177) "><g  event="remove"><circle r="11"></circle><path transform="scale(.8) translate(-16, -16)" d="M24.778,21.419 19.276,15.917 24.777,10.415 21.949,7.585 16.447,13.087 10.945,7.585 8.117,10.415 13.618,15.917 8.116,21.419 10.946,24.248 16.447,18.746 21.948,24.248z"></path><title>Remove link.</title></g><g  event="link:options"><circle r="11" transform="translate(25)"></circle><path fill="white" transform="scale(.55) translate(29, -16)" d="M31.229,17.736c0.064-0.571,0.104-1.148,0.104-1.736s-0.04-1.166-0.104-1.737l-4.377-1.557c-0.218-0.716-0.504-1.401-0.851-2.05l1.993-4.192c-0.725-0.91-1.549-1.734-2.458-2.459l-4.193,1.994c-0.647-0.347-1.334-0.632-2.049-0.849l-1.558-4.378C17.165,0.708,16.588,0.667,16,0.667s-1.166,0.041-1.737,0.105L12.707,5.15c-0.716,0.217-1.401,0.502-2.05,0.849L6.464,4.005C5.554,4.73,4.73,5.554,4.005,6.464l1.994,4.192c-0.347,0.648-0.632,1.334-0.849,2.05l-4.378,1.557C0.708,14.834,0.667,15.412,0.667,16s0.041,1.165,0.105,1.736l4.378,1.558c0.217,0.715,0.502,1.401,0.849,2.049l-1.994,4.193c0.725,0.909,1.549,1.733,2.459,2.458l4.192-1.993c0.648,0.347,1.334,0.633,2.05,0.851l1.557,4.377c0.571,0.064,1.148,0.104,1.737,0.104c0.588,0,1.165-0.04,1.736-0.104l1.558-4.377c0.715-0.218,1.399-0.504,2.049-0.851l4.193,1.993c0.909-0.725,1.733-1.549,2.458-2.458l-1.993-4.193c0.347-0.647,0.633-1.334,0.851-2.049L31.229,17.736zM16,20.871c-2.69,0-4.872-2.182-4.872-4.871c0-2.69,2.182-4.872,4.872-4.872c2.689,0,4.871,2.182,4.871,4.872C20.871,18.689,18.689,20.871,16,20.871z"></path><title>Link options.</title></g></g></g></g><!--z-index:41--><g   id="j_49" ><path  stroke="#707070" d="M 2858 1079 L 3158 1079" id="v-685" stroke-width="2" stroke-dasharray="30 30" fill="none"></path><path  fill="black" stroke="black" d="M 0 0 0 0" transform="matrix(1,0,0,1,2858,1079)"></path><path  fill="#707070" stroke="#707070" d="M 20 0 L 0 10 L 20 20 z" id="v-687" transform="matrix(-1,1.2246467991473532e-16,-1.2246467991473532e-16,-1,3158,1089.000000000001)"></path><path  d="M 2858 1079 L 3158 1079" id="v-686" fill="none" style="pointer-events: visiblepainted; cursor: auto;"></path><g ><g id="v-676"  label-idx="0" cursor="move" transform="matrix(1,0,0,1,3008,1079)"><rect joint-selector="rect" id="v-680" fill="#ffffff" rx="3" ry="3" pointer-events="none" width="135.94351196289062" height="85.16681289672852" transform="matrix(1,0,0,1,-65.9,-42.6)"></rect><text joint-selector="text" id="v-679" font-size="24px" xml:space="preserve" y="0.8em" fill="#707070" text-anchor="middle" pointer-events="none" font-family="Arial" font-weight="normal" transform="matrix(1,0,0,1,0,-39.7)"><tspan dy="0" >7: Получить</tspan><tspan dy="1.2em" x="0" >событие на</tspan><tspan dy="1.2em" x="0" >отправку</tspan></text></g><g id="v-677"  label-idx="1" cursor="move" transform="matrix(1,0,0,1,3008,1134.199951171875)"><rect joint-selector="rect" id="v-682" fill="#ffffff" rx="3" ry="3" pointer-events="none" width="60.20454406738281" height="22.05344295501709" transform="matrix(1,0,0,1,-29.7,-11)"></rect><text joint-selector="text" id="v-681" font-size="17px" xml:space="preserve" y="0.8em" fill="#707070" text-anchor="middle" pointer-events="none" font-family="Arial" font-weight="normal" transform="matrix(1,0,0,1,0,-8.1)"><tspan dy="0" >[AMQP]</tspan></text></g><g id="v-678"  label-idx="2" cursor="move" transform="matrix(1,0,0,1,2998,1142.5999755859375)"><rect joint-selector="rect" id="v-684" fill="#ffffff" rx="3" ry="3"  width="0" height="0" transform="matrix(1,0,0,1,0,0)" display="none"></rect><text joint-selector="text" id="v-683" fill="#000000" font-size="14" text-anchor="middle" pointer-events="none"></text></g></g><g  display="none" style="display: none;"></g><g  id="v-689" display="none"><g  id="v-674"><path  end="source" d="M 26 0 L 0 13 L 26 26 z"></path></g><g  id="v-675"><path  end="target" d="M 26 0 L 0 13 L 26 26 z"></path></g></g><g  id="v-688" display="none"><g  id="v-673" transform="translate(2898, 1079) "><g  event="remove"><circle r="11"></circle><path transform="scale(.8) translate(-16, -16)" d="M24.778,21.419 19.276,15.917 24.777,10.415 21.949,7.585 16.447,13.087 10.945,7.585 8.117,10.415 13.618,15.917 8.116,21.419 10.946,24.248 16.447,18.746 21.948,24.248z"></path><title>Remove link.</title></g><g  event="link:options"><circle r="11" transform="translate(25)"></circle><path fill="white" transform="scale(.55) translate(29, -16)" d="M31.229,17.736c0.064-0.571,0.104-1.148,0.104-1.736s-0.04-1.166-0.104-1.737l-4.377-1.557c-0.218-0.716-0.504-1.401-0.851-2.05l1.993-4.192c-0.725-0.91-1.549-1.734-2.458-2.459l-4.193,1.994c-0.647-0.347-1.334-0.632-2.049-0.849l-1.558-4.378C17.165,0.708,16.588,0.667,16,0.667s-1.166,0.041-1.737,0.105L12.707,5.15c-0.716,0.217-1.401,0.502-2.05,0.849L6.464,4.005C5.554,4.73,4.73,5.554,4.005,6.464l1.994,4.192c-0.347,0.648-0.632,1.334-0.849,2.05l-4.378,1.557C0.708,14.834,0.667,15.412,0.667,16s0.041,1.165,0.105,1.736l4.378,1.558c0.217,0.715,0.502,1.401,0.849,2.049l-1.994,4.193c0.725,0.909,1.549,1.733,2.459,2.458l4.192-1.993c0.648,0.347,1.334,0.633,2.05,0.851l1.557,4.377c0.571,0.064,1.148,0.104,1.737,0.104c0.588,0,1.165-0.04,1.736-0.104l1.558-4.377c0.715-0.218,1.399-0.504,2.049-0.851l4.193,1.993c0.909-0.725,1.733-1.549,2.458-2.458l-1.993-4.193c0.347-0.647,0.633-1.334,0.851-2.049L31.229,17.736zM16,20.871c-2.69,0-4.872-2.182-4.872-4.871c0-2.69,2.182-4.872,4.872-4.872c2.689,0,4.871,2.182,4.871,4.872C20.871,18.689,18.689,20.871,16,20.871z"></path><title>Link options.</title></g></g></g></g><!--z-index:42--><g   id="j_50" ><path  stroke="#707070" d="M 2821 1229 L 3196 1529" id="v-705" stroke-width="2" stroke-dasharray="30 30" fill="none"></path><path  fill="black" stroke="black" d="M 0 0 0 0" transform="matrix(0.7808688000832672,0.624695059254128,-0.624695059254128,0.7808688000832672,2820.5,1229)"></path><path  fill="#707070" stroke="#707070" d="M 20 0 L 0 10 L 20 20 z" id="v-707" transform="matrix(-0.7808688416748548,-0.6246950072646416,0.6246950072646416,-0.7808688416748548,3189.2531445941017,1536.8086902472082)"></path><path  d="M 2821 1229 L 3196 1529" id="v-706" fill="none" style="pointer-events: visiblepainted; cursor: auto;"></path><g ><g id="v-696"  label-idx="0" cursor="move" transform="matrix(1,0,0,1,3008.5,1379)"><rect joint-selector="rect" id="v-700" fill="#ffffff" rx="3" ry="3" pointer-events="none" width="149.43878173828125" height="56.36680221557617" transform="matrix(1,0,0,1,-72.7,-28.2)"></rect><text joint-selector="text" id="v-699" font-size="24px" xml:space="preserve" y="0.8em" fill="#707070" text-anchor="middle" pointer-events="none" font-family="Arial" font-weight="normal" transform="matrix(1,0,0,1,0,-25.3)"><tspan dy="0" >8: Отправить</tspan><tspan dy="1.2em" x="0" >письмо</tspan></text></g><g id="v-697"  label-idx="1" cursor="move" transform="matrix(1,0,0,1,3008.5,1419.800048828125)"><rect joint-selector="rect" id="v-702" fill="#ffffff" rx="3" ry="3" pointer-events="none" width="103.57633209228516" height="22.05344295501709" transform="matrix(1,0,0,1,-51.4,-11)"></rect><text joint-selector="text" id="v-701" font-size="17px" xml:space="preserve" y="0.8em" fill="#707070" text-anchor="middle" pointer-events="none" font-family="Arial" font-weight="normal" transform="matrix(1,0,0,1,0,-8.1)"><tspan dy="0" >[SMTP/IMAP]</tspan></text></g><g id="v-698"  label-idx="2" cursor="move" transform="matrix(1,0,0,1,2998.5,1428.199951171875)"><rect joint-selector="rect" id="v-704" fill="#ffffff" rx="3" ry="3"  width="0" height="0" transform="matrix(1,0,0,1,0,0)" display="none"></rect><text joint-selector="text" id="v-703" fill="#000000" font-size="14" text-anchor="middle" pointer-events="none"></text></g></g><g  display="none" style="display: none;"></g><g  id="v-709" display="none"><g  id="v-694"><path  end="source" d="M 26 0 L 0 13 L 26 26 z"></path></g><g  id="v-695"><path  end="target" d="M 26 0 L 0 13 L 26 26 z"></path></g></g><g  id="v-708" display="none"><g  id="v-693" transform="translate(2852.2347523777216, 1253.987801902177) "><g  event="remove"><circle r="11"></circle><path transform="scale(.8) translate(-16, -16)" d="M24.778,21.419 19.276,15.917 24.777,10.415 21.949,7.585 16.447,13.087 10.945,7.585 8.117,10.415 13.618,15.917 8.116,21.419 10.946,24.248 16.447,18.746 21.948,24.248z"></path><title>Remove link.</title></g><g  event="link:options"><circle r="11" transform="translate(25)"></circle><path fill="white" transform="scale(.55) translate(29, -16)" d="M31.229,17.736c0.064-0.571,0.104-1.148,0.104-1.736s-0.04-1.166-0.104-1.737l-4.377-1.557c-0.218-0.716-0.504-1.401-0.851-2.05l1.993-4.192c-0.725-0.91-1.549-1.734-2.458-2.459l-4.193,1.994c-0.647-0.347-1.334-0.632-2.049-0.849l-1.558-4.378C17.165,0.708,16.588,0.667,16,0.667s-1.166,0.041-1.737,0.105L12.707,5.15c-0.716,0.217-1.401,0.502-2.05,0.849L6.464,4.005C5.554,4.73,4.73,5.554,4.005,6.464l1.994,4.192c-0.347,0.648-0.632,1.334-0.849,2.05l-4.378,1.557C0.708,14.834,0.667,15.412,0.667,16s0.041,1.165,0.105,1.736l4.378,1.558c0.217,0.715,0.502,1.401,0.849,2.049l-1.994,4.193c0.725,0.909,1.549,1.733,2.459,2.458l4.192-1.993c0.648,0.347,1.334,0.633,2.05,0.851l1.557,4.377c0.571,0.064,1.148,0.104,1.737,0.104c0.588,0,1.165-0.04,1.736-0.104l1.558-4.377c0.715-0.218,1.399-0.504,2.049-0.851l4.193,1.993c0.909-0.725,1.733-1.549,2.458-2.458l-1.993-4.193c0.347-0.647,0.633-1.334,0.851-2.049L31.229,17.736zM16,20.871c-2.69,0-4.872-2.182-4.872-4.871c0-2.69,2.182-4.872,4.872-4.872c2.689,0,4.871,2.182,4.871,4.872C20.871,18.689,18.689,20.871,16,20.871z"></path><title>Link options.</title></g></g></g></g><!--z-index:43--></g><g ></g><g ></g><g ></g></g></svg>